<svg width="181" height="182" viewBox="0 0 181 182" fill="none" xmlns="http://www.w3.org/2000/svg">
<path d="M16.4178 173.343C16.2218 173.343 16.0748 173.294 15.9278 173.147C15.7807 173 15.7317 172.853 15.7317 172.657C15.7317 172.608 15.7317 172.559 15.7317 172.51C15.7317 172.461 15.7317 172.412 15.7807 172.363C15.7807 172.314 15.8297 172.265 15.8297 172.265C15.8787 172.216 15.8787 172.216 15.9278 172.167C15.9768 172.118 15.9768 172.118 16.0258 172.069C16.0748 172.069 16.0748 172.02 16.1238 172.02C16.1728 172.02 16.2218 171.971 16.2708 171.971C16.3688 171.971 16.4668 171.971 16.5159 171.971C16.5649 171.971 16.6139 171.971 16.6629 172.02C16.7119 172.02 16.7609 172.069 16.7609 172.069C16.8099 172.118 16.8099 172.118 16.8589 172.167C16.9079 172.216 16.9079 172.216 16.9569 172.265C16.9569 172.314 17.0059 172.314 17.0059 172.363C17.0059 172.412 17.055 172.461 17.055 172.51C17.055 172.559 17.055 172.608 17.055 172.657C17.055 172.853 17.0059 173 16.8589 173.147C16.7609 173.245 16.6139 173.343 16.4178 173.343Z" fill="#7048A3"/>
<path d="M161.924 171.922C161.728 171.628 161.826 171.187 162.169 171.04C162.463 170.843 162.904 170.99 163.051 171.285C163.247 171.579 163.1 172.02 162.806 172.167C162.708 172.216 162.61 172.265 162.463 172.265C162.267 172.265 162.071 172.167 161.924 171.922ZM13.7224 170.255C13.5264 169.961 13.5754 169.52 13.9184 169.324C14.2125 169.128 14.6536 169.177 14.8496 169.52C15.0456 169.814 14.9966 170.255 14.6536 170.451C14.5555 170.549 14.4085 170.549 14.2615 170.549C14.0654 170.549 13.8204 170.402 13.7224 170.255ZM164.962 170.157C164.766 169.863 164.864 169.422 165.159 169.226C165.453 169.03 165.894 169.128 166.09 169.422C166.286 169.716 166.188 170.157 165.894 170.353C165.796 170.402 165.649 170.451 165.551 170.451C165.306 170.451 165.109 170.353 164.962 170.157ZM167.903 168.148C167.707 167.854 167.756 167.462 168.05 167.217C168.344 167.021 168.736 167.07 168.981 167.364C169.177 167.658 169.128 168.05 168.834 168.295C168.736 168.393 168.589 168.442 168.442 168.442C168.246 168.442 168.05 168.344 167.903 168.148ZM11.8601 167.119C11.713 166.776 11.8111 166.384 12.1541 166.237C12.4972 166.041 12.8892 166.188 13.0363 166.531C13.1833 166.874 13.0853 167.266 12.7422 167.413C12.6442 167.462 12.5462 167.511 12.4482 167.511C12.2031 167.511 11.9581 167.364 11.8601 167.119ZM170.745 166.041C170.5 165.747 170.549 165.355 170.843 165.109C171.138 164.864 171.53 164.913 171.775 165.208C172.02 165.502 171.971 165.894 171.677 166.139C171.53 166.237 171.432 166.286 171.285 166.286C171.089 166.286 170.892 166.188 170.745 166.041ZM10.3408 163.835C10.1938 163.492 10.3898 163.1 10.7329 162.953C11.0759 162.806 11.468 163.002 11.566 163.345C11.713 163.688 11.517 164.08 11.174 164.178C11.0759 164.227 11.0269 164.227 10.9289 164.227C10.6839 164.276 10.4388 164.129 10.3408 163.835ZM173.49 163.786C173.245 163.541 173.294 163.1 173.539 162.855C173.833 162.61 174.225 162.659 174.47 162.904C174.715 163.149 174.666 163.59 174.421 163.835C174.274 163.933 174.127 163.982 173.98 163.982C173.784 163.982 173.588 163.933 173.49 163.786ZM176.087 161.385C175.842 161.14 175.842 160.699 176.087 160.454C176.332 160.209 176.774 160.209 177.019 160.454C177.264 160.699 177.264 161.14 177.019 161.385C176.872 161.532 176.725 161.581 176.528 161.581C176.381 161.581 176.185 161.532 176.087 161.385ZM9.21361 160.454C9.1156 160.111 9.31163 159.719 9.65469 159.621C9.99775 159.523 10.3898 159.719 10.4878 160.062C10.5859 160.405 10.3898 160.797 10.0468 160.895C9.99775 160.895 9.94874 160.944 9.85072 160.944C9.55667 160.944 9.31163 160.748 9.21361 160.454ZM178.538 158.836C178.244 158.591 178.244 158.15 178.489 157.905C178.734 157.66 179.175 157.611 179.42 157.856C179.665 158.101 179.714 158.542 179.469 158.787C179.322 158.934 179.175 158.983 178.979 158.983C178.832 159.032 178.685 158.983 178.538 158.836ZM8.42948 156.925C8.38047 156.582 8.62551 156.239 8.96857 156.19C9.31163 156.141 9.65469 156.386 9.75271 156.729C9.80172 157.072 9.55667 157.415 9.21361 157.513C9.16461 157.513 9.1646 157.513 9.1156 157.513C8.77254 157.464 8.47848 157.219 8.42948 156.925ZM180.89 156.19C180.596 155.945 180.547 155.553 180.792 155.259C181.037 154.965 181.429 154.965 181.723 155.161C182.017 155.406 182.066 155.798 181.821 156.092C181.674 156.239 181.527 156.337 181.331 156.337C181.184 156.337 181.037 156.288 180.89 156.19ZM8.03741 153.347C8.03741 153.004 8.28245 152.661 8.67452 152.661C9.01758 152.661 9.36064 152.906 9.36064 153.298C9.36064 153.641 9.1156 153.985 8.72353 153.985H8.67452C8.33146 153.936 8.08642 153.691 8.03741 153.347ZM183.096 153.445C182.802 153.249 182.753 152.808 182.949 152.514C183.145 152.22 183.586 152.171 183.88 152.367C184.174 152.563 184.223 153.004 184.027 153.298C183.88 153.494 183.684 153.543 183.488 153.543C183.39 153.592 183.243 153.543 183.096 153.445ZM185.203 150.603C184.909 150.407 184.811 149.966 185.007 149.672C185.203 149.378 185.644 149.28 185.938 149.476C186.232 149.672 186.33 150.113 186.134 150.407C185.987 150.603 185.791 150.701 185.595 150.701C185.448 150.701 185.301 150.652 185.203 150.603ZM8.62551 150.407C8.28245 150.407 7.9884 150.064 7.9884 149.721C7.9884 149.378 8.33146 149.084 8.67452 149.084C9.01758 149.084 9.31163 149.427 9.31163 149.77C9.31163 150.113 9.01758 150.407 8.62551 150.407C8.67452 150.407 8.67452 150.407 8.62551 150.407ZM187.114 147.613C186.82 147.417 186.722 147.025 186.869 146.682C187.065 146.388 187.457 146.29 187.8 146.437C188.094 146.633 188.192 147.025 188.045 147.368C187.898 147.564 187.702 147.711 187.457 147.711C187.359 147.711 187.212 147.662 187.114 147.613ZM8.91956 146.878C8.5765 146.829 8.33146 146.486 8.38047 146.143C8.42948 145.8 8.77254 145.555 9.1156 145.604C9.45865 145.653 9.7037 145.996 9.65469 146.339C9.60568 146.682 9.31163 146.878 9.01758 146.878C8.96857 146.878 8.96857 146.878 8.91956 146.878ZM188.928 144.575C188.585 144.379 188.487 143.987 188.683 143.693C188.879 143.35 189.271 143.252 189.565 143.448C189.859 143.644 190.006 144.036 189.81 144.33C189.663 144.526 189.467 144.673 189.222 144.673C189.124 144.624 189.026 144.624 188.928 144.575ZM9.55667 143.399C9.21361 143.301 9.01758 142.958 9.1156 142.566C9.21361 142.223 9.55667 142.026 9.94874 142.076C10.2918 142.174 10.5368 142.517 10.4388 142.909C10.3408 143.203 10.0958 143.399 9.80171 143.399C9.7037 143.448 9.65469 143.399 9.55667 143.399ZM190.545 141.438C190.202 141.291 190.055 140.899 190.251 140.556C190.398 140.213 190.79 140.066 191.133 140.262C191.476 140.409 191.623 140.801 191.427 141.144C191.329 141.389 191.084 141.536 190.839 141.536C190.741 141.487 190.643 141.438 190.545 141.438ZM10.6349 140.017C10.2918 139.87 10.1448 139.478 10.2428 139.135C10.3898 138.792 10.7819 138.645 11.1249 138.743C11.468 138.89 11.615 139.282 11.517 139.625C11.419 139.87 11.1739 140.066 10.8799 140.066C10.7819 140.066 10.6839 140.066 10.6349 140.017ZM192.015 138.204C191.672 138.057 191.525 137.665 191.672 137.322C191.819 136.979 192.211 136.832 192.554 136.979C192.897 137.126 193.044 137.518 192.897 137.861C192.799 138.106 192.554 138.253 192.26 138.253C192.162 138.253 192.064 138.253 192.015 138.204ZM12.0561 136.783C11.7621 136.587 11.615 136.194 11.8111 135.9C12.0071 135.557 12.3992 135.459 12.6932 135.655C13.0363 135.851 13.1343 136.243 12.9383 136.538C12.8402 136.734 12.5952 136.881 12.3502 136.881C12.2521 136.881 12.1541 136.832 12.0561 136.783ZM193.289 134.92C192.946 134.773 192.75 134.43 192.897 134.087C193.044 133.744 193.387 133.548 193.73 133.695C194.073 133.793 194.27 134.185 194.122 134.528C194.024 134.822 193.779 134.969 193.485 134.969C193.436 134.92 193.387 134.92 193.289 134.92ZM13.8204 133.744C13.5264 133.548 13.4283 133.107 13.6244 132.813C13.8204 132.519 14.2615 132.421 14.5555 132.617C14.8496 132.813 14.9476 133.254 14.7516 133.548C14.6045 133.744 14.4085 133.842 14.2125 133.842C14.0654 133.842 13.9184 133.793 13.8204 133.744ZM194.417 131.539C194.074 131.441 193.877 131.049 193.975 130.706C194.073 130.362 194.466 130.166 194.809 130.264C195.152 130.362 195.348 130.755 195.25 131.098C195.152 131.392 194.907 131.588 194.613 131.588C194.564 131.588 194.515 131.588 194.417 131.539ZM15.8788 130.853C15.5847 130.608 15.5357 130.215 15.7807 129.921C16.0258 129.627 16.4179 129.578 16.7119 129.823C17.006 130.068 17.055 130.46 16.8099 130.755C16.6629 130.951 16.4669 131 16.2708 131C16.1238 131 15.9768 130.951 15.8788 130.853ZM18.0841 128.059C17.7901 127.814 17.7901 127.422 17.9861 127.128C18.2312 126.834 18.6232 126.834 18.9173 127.03C19.2113 127.275 19.2113 127.667 19.0153 127.961C18.8683 128.108 18.7213 128.206 18.5252 128.206C18.3292 128.255 18.1822 128.157 18.0841 128.059ZM195.397 128.157C195.054 128.059 194.809 127.716 194.907 127.373C195.005 127.03 195.348 126.785 195.691 126.883C196.034 126.981 196.279 127.324 196.181 127.667C196.083 127.961 195.838 128.157 195.544 128.157C195.495 128.157 195.446 128.157 195.397 128.157ZM20.3875 125.413C20.1425 125.168 20.0935 124.776 20.3385 124.481C20.5836 124.187 20.9756 124.187 21.2697 124.432C21.5637 124.677 21.5637 125.07 21.3187 125.364C21.1717 125.511 21.0246 125.609 20.8286 125.609C20.6816 125.56 20.5346 125.511 20.3875 125.413ZM196.181 124.677C195.838 124.628 195.593 124.285 195.642 123.893C195.691 123.55 196.034 123.305 196.426 123.354C196.769 123.403 197.014 123.746 196.965 124.138C196.916 124.481 196.622 124.677 196.328 124.677C196.279 124.727 196.23 124.677 196.181 124.677ZM22.7399 122.766C22.4459 122.521 22.4459 122.129 22.6909 121.835C22.936 121.541 23.328 121.541 23.6221 121.786C23.9161 122.031 23.9161 122.423 23.6711 122.717C23.5241 122.864 23.3771 122.962 23.181 122.962C23.034 122.913 22.887 122.864 22.7399 122.766ZM196.769 121.198C196.426 121.149 196.132 120.806 196.181 120.463C196.23 120.12 196.573 119.826 196.916 119.875C197.259 119.924 197.553 120.267 197.504 120.61C197.455 120.953 197.161 121.198 196.867 121.198C196.818 121.198 196.818 121.198 196.769 121.198ZM25.0924 120.12C24.7983 119.875 24.7983 119.483 24.9943 119.189C25.2394 118.895 25.6314 118.895 25.9255 119.091C26.2195 119.336 26.2195 119.728 26.0235 120.022C25.8765 120.169 25.7295 120.267 25.5334 120.267C25.3374 120.267 25.1904 120.218 25.0924 120.12ZM197.161 117.669C196.818 117.62 196.524 117.326 196.573 116.983C196.622 116.64 196.916 116.346 197.259 116.395C197.602 116.444 197.896 116.738 197.896 117.081C197.847 117.424 197.602 117.669 197.259 117.669C197.21 117.669 197.161 117.669 197.161 117.669ZM27.2977 117.375C27.0037 117.179 26.9547 116.738 27.1507 116.444C27.3467 116.15 27.7878 116.101 28.0819 116.297C28.3759 116.493 28.4249 116.934 28.2289 117.228C28.0819 117.424 27.8858 117.473 27.6898 117.473C27.5918 117.473 27.4448 117.424 27.2977 117.375ZM29.3561 114.484C29.062 114.288 28.964 113.896 29.1601 113.553C29.3561 113.259 29.7482 113.161 30.0912 113.357C30.3853 113.553 30.4833 113.945 30.2872 114.288C30.1402 114.484 29.9442 114.582 29.7482 114.582C29.6011 114.582 29.5031 114.533 29.3561 114.484ZM197.357 114.141C197.014 114.141 196.72 113.847 196.72 113.455C196.72 113.112 197.014 112.817 197.406 112.817C197.749 112.817 198.043 113.112 198.043 113.504C198.043 113.847 197.749 114.141 197.357 114.141ZM31.2184 111.445C30.8753 111.298 30.7773 110.857 30.9244 110.563C31.1204 110.22 31.5125 110.122 31.8065 110.269C32.1496 110.465 32.2476 110.857 32.1006 111.151C32.0025 111.396 31.7575 111.494 31.5125 111.494C31.4144 111.543 31.3164 111.494 31.2184 111.445ZM196.72 109.975C196.72 109.632 197.014 109.289 197.357 109.289C197.7 109.289 198.043 109.583 198.043 109.926C198.043 110.269 197.749 110.612 197.406 110.612C197.014 110.612 196.72 110.318 196.72 109.975ZM32.7377 108.26C32.3946 108.113 32.1986 107.77 32.3456 107.427C32.4926 107.083 32.8357 106.887 33.1787 107.034C33.5218 107.181 33.6688 107.525 33.5708 107.868C33.4728 108.113 33.2278 108.309 32.9337 108.309C32.8847 108.309 32.7867 108.26 32.7377 108.26ZM196.524 106.495C196.475 106.152 196.769 105.809 197.112 105.809C197.455 105.76 197.798 106.054 197.847 106.397C197.896 106.74 197.602 107.083 197.259 107.132H197.21C196.818 107.083 196.524 106.838 196.524 106.495ZM33.8159 104.878C33.4728 104.78 33.2278 104.437 33.3258 104.094C33.4238 103.751 33.7668 103.506 34.1099 103.604C34.453 103.702 34.698 104.045 34.6 104.388C34.551 104.682 34.2569 104.927 33.9629 104.927C33.9139 104.927 33.8649 104.878 33.8159 104.878ZM196.132 103.016C196.083 102.673 196.328 102.33 196.72 102.281C197.063 102.232 197.406 102.477 197.455 102.869C197.504 103.212 197.259 103.555 196.867 103.604C196.818 103.604 196.818 103.604 196.769 103.604C196.475 103.555 196.181 103.31 196.132 103.016ZM34.404 101.398C34.0609 101.398 33.7668 101.055 33.7668 100.712C33.7668 100.369 34.1099 100.075 34.453 100.075C34.796 100.075 35.0901 100.418 35.0901 100.761C35.0901 101.104 34.796 101.398 34.404 101.398ZM195.593 99.5362C195.544 99.1931 195.74 98.8501 196.132 98.752C196.475 98.703 196.818 98.8991 196.916 99.2911C196.965 99.6342 196.769 99.9772 196.377 100.075C196.328 100.075 196.279 100.075 196.279 100.075C195.887 100.075 195.642 99.8302 195.593 99.5362ZM33.5708 97.3308C33.5218 96.9877 33.7668 96.6447 34.1099 96.5957C34.453 96.5467 34.796 96.7917 34.845 97.1348C34.894 97.4778 34.649 97.8209 34.3059 97.8699C34.2569 97.8699 34.2569 97.8699 34.2079 97.8699C33.9139 97.8699 33.6198 97.6248 33.5708 97.3308ZM194.858 96.1056C194.76 95.7625 195.005 95.4195 195.348 95.3214C195.691 95.2234 196.083 95.4685 196.132 95.8115C196.23 96.1546 195.985 96.5467 195.642 96.5957C195.593 96.5957 195.544 96.5957 195.495 96.5957C195.201 96.5957 194.907 96.3996 194.858 96.1056ZM32.7867 93.9982C32.6887 93.6551 32.8357 93.2631 33.1787 93.1651C33.5218 93.0671 33.9139 93.2141 34.0119 93.5571C34.1099 93.9002 33.9629 94.2923 33.6198 94.3903C33.5708 94.3903 33.4728 94.4393 33.4238 94.4393C33.1297 94.4393 32.8357 94.2923 32.7867 93.9982ZM193.926 92.724C193.828 92.3809 194.024 91.9889 194.368 91.8908C194.711 91.7928 195.103 91.9889 195.201 92.3319C195.299 92.675 195.103 93.0671 194.76 93.1651C194.711 93.1651 194.613 93.2141 194.564 93.2141C194.27 93.2141 194.024 93.0181 193.926 92.724ZM31.4144 90.8617C31.2674 90.5186 31.3654 90.1265 31.7085 89.9795C32.0515 89.8325 32.4436 89.9305 32.5906 90.2736C32.7377 90.6166 32.6397 91.0087 32.2966 91.1557C32.1986 91.2047 32.1006 91.2537 32.0025 91.2537C31.7575 91.2047 31.5125 91.0577 31.4144 90.8617ZM192.848 89.3914C192.75 89.0484 192.897 88.6563 193.24 88.5583C193.583 88.4603 193.975 88.6073 194.073 88.9503C194.172 89.2934 194.024 89.6855 193.681 89.7835C193.632 89.7835 193.534 89.8325 193.485 89.8325C193.24 89.8325 192.946 89.6365 192.848 89.3914ZM29.6501 87.8232C29.4541 87.5291 29.5521 87.088 29.8462 86.892C30.1402 86.6959 30.5813 86.794 30.7773 87.088C30.9734 87.3821 30.8753 87.8232 30.5813 88.0192C30.4833 88.1172 30.3363 88.1172 30.2382 88.1172C29.9932 88.1662 29.7972 88.0192 29.6501 87.8232ZM191.623 86.1079C191.476 85.7648 191.672 85.3727 191.966 85.2257C192.309 85.0787 192.701 85.2747 192.848 85.5688C192.995 85.9118 192.799 86.3039 192.505 86.4509C192.407 86.4999 192.358 86.4999 192.26 86.4999C192.015 86.4999 191.77 86.3529 191.623 86.1079ZM27.6408 84.9807C27.4448 84.6866 27.4938 84.2945 27.7878 84.0495C28.0819 83.8535 28.4739 83.9025 28.719 84.1965C28.915 84.4906 28.866 84.8826 28.572 85.1277C28.4739 85.2257 28.3269 85.2747 28.1799 85.2747C27.9838 85.2257 27.7878 85.1767 27.6408 84.9807ZM190.251 82.8733C190.104 82.5302 190.251 82.1382 190.594 81.9911C190.937 81.8441 191.329 81.9911 191.476 82.3342C191.623 82.6773 191.476 83.0693 191.133 83.2163C191.035 83.2654 190.937 83.2654 190.839 83.2654C190.594 83.2654 190.349 83.1183 190.251 82.8733ZM25.4844 82.1872C25.2394 81.8931 25.2884 81.5011 25.5824 81.256C25.8765 81.011 26.2686 81.06 26.5136 81.354C26.7586 81.6481 26.7096 82.0401 26.4156 82.2852C26.2686 82.3832 26.1705 82.4322 26.0235 82.4322C25.8275 82.4322 25.6314 82.3342 25.4844 82.1872ZM188.732 79.7368C188.536 79.3937 188.683 79.0016 189.026 78.8546C189.369 78.6586 189.761 78.8056 189.908 79.1487C190.104 79.4917 189.957 79.8838 189.614 80.0308C189.516 80.0798 189.418 80.1288 189.32 80.1288C189.075 80.0798 188.83 79.9328 188.732 79.7368ZM23.279 79.3937C23.034 79.0996 23.083 78.7076 23.3771 78.4625C23.6711 78.2175 24.0632 78.2665 24.3082 78.5605C24.5533 78.8546 24.5042 79.2467 24.2102 79.4917C24.0632 79.5897 23.9652 79.6387 23.8181 79.6387C23.6221 79.6877 23.4261 79.5897 23.279 79.3937ZM187.016 76.6492C186.82 76.3552 186.918 75.9141 187.261 75.7671C187.555 75.571 187.996 75.6691 188.143 76.0121C188.339 76.3062 188.241 76.7472 187.898 76.8943C187.8 76.9433 187.702 76.9923 187.555 76.9923C187.359 76.9923 187.114 76.8943 187.016 76.6492ZM21.1227 76.6002C20.9266 76.3062 20.9756 75.9141 21.2697 75.669C21.5637 75.473 21.9558 75.522 22.2009 75.8161C22.3969 76.1101 22.3479 76.5022 22.0538 76.7472C21.9558 76.8453 21.8088 76.8943 21.6618 76.8943C21.4657 76.8453 21.2697 76.7472 21.1227 76.6002ZM185.154 73.7087C184.958 73.4147 185.056 72.9736 185.35 72.7775C185.644 72.5815 186.085 72.6795 186.281 72.9736C186.477 73.2676 186.379 73.7087 186.085 73.9047C185.987 74.0028 185.84 74.0028 185.742 74.0028C185.497 74.0028 185.301 73.8557 185.154 73.7087ZM19.1133 73.6597C18.9173 73.3656 19.0153 72.9246 19.3094 72.7285C19.6034 72.5325 20.0445 72.6305 20.2405 72.9246C20.4365 73.2186 20.3385 73.6597 20.0445 73.8557C19.9465 73.9048 19.7994 73.9538 19.7014 73.9538C19.4564 73.9538 19.2113 73.8557 19.1133 73.6597ZM183.145 70.8172C182.949 70.5232 182.998 70.1311 183.292 69.8861C183.586 69.69 183.978 69.739 184.223 70.0331C184.419 70.3271 184.37 70.7192 184.076 70.9642C183.978 71.0622 183.831 71.1113 183.684 71.1113C183.488 71.0623 183.292 70.9642 183.145 70.8172ZM17.3 70.5232C17.153 70.1801 17.251 69.788 17.5941 69.641C17.9371 69.494 18.3292 69.592 18.4762 69.9351C18.6232 70.2781 18.5252 70.6702 18.1822 70.8172C18.0841 70.8662 17.9861 70.9152 17.8881 70.9152C17.6431 70.8662 17.398 70.7682 17.3 70.5232ZM180.988 68.0237C180.743 67.7297 180.792 67.3376 181.086 67.0926C181.38 66.8475 181.772 66.8965 182.017 67.1906C182.262 67.4846 182.213 67.8767 181.919 68.1217C181.772 68.2198 181.625 68.2688 181.478 68.2688C181.331 68.2688 181.135 68.2198 180.988 68.0237ZM15.7807 67.2886C15.6337 66.9455 15.7807 66.5535 16.1238 66.4065C16.4669 66.2594 16.8589 66.4065 17.006 66.7495C17.153 67.0926 17.006 67.4846 16.6629 67.6317C16.5649 67.6807 16.5159 67.6807 16.4179 67.6807C16.1238 67.6807 15.8788 67.5336 15.7807 67.2886ZM178.734 65.3773C178.489 65.1322 178.489 64.6912 178.783 64.4461C179.028 64.2011 179.469 64.2011 179.714 64.4951C179.959 64.7402 179.959 65.1812 179.665 65.4263C179.518 65.5243 179.371 65.6223 179.224 65.6223C179.028 65.6223 178.832 65.5243 178.734 65.3773ZM14.5555 63.907C14.4575 63.564 14.6536 63.1719 14.9966 63.0739C15.3397 62.9759 15.7317 63.1719 15.8298 63.515C15.9278 63.858 15.7317 64.2501 15.3887 64.3481C15.3397 64.3481 15.2417 64.3971 15.1926 64.3971C14.8986 64.3481 14.6045 64.2011 14.5555 63.907ZM176.283 62.8778C176.038 62.6328 176.038 62.1917 176.283 61.9467C176.528 61.7016 176.97 61.7016 177.215 61.9467C177.46 62.1917 177.46 62.6328 177.215 62.8778C177.068 63.0249 176.921 63.0739 176.724 63.0739C176.577 63.0249 176.43 62.9759 176.283 62.8778ZM13.5754 60.4274C13.4773 60.0844 13.7224 59.7413 14.0654 59.6433C14.4085 59.5453 14.7516 59.7903 14.8496 60.1334C14.9476 60.4764 14.7026 60.8195 14.3595 60.9175C14.3105 60.9175 14.2615 60.9175 14.2125 60.9175C13.9184 60.9665 13.6244 60.7705 13.5754 60.4274ZM173.735 60.4764C173.441 60.2314 173.441 59.8393 173.686 59.5453C173.931 59.2512 174.323 59.2512 174.617 59.4963C174.911 59.7413 174.911 60.1334 174.666 60.4274C174.519 60.5744 174.372 60.6725 174.176 60.6725C174.029 60.6235 173.882 60.5744 173.735 60.4764ZM171.04 58.173C170.745 57.928 170.745 57.5359 170.941 57.2419C171.187 56.9478 171.579 56.9478 171.873 57.1439C172.167 57.3889 172.167 57.781 171.971 58.075C171.824 58.222 171.677 58.3201 171.481 58.3201C171.334 58.3201 171.187 58.2711 171.04 58.173ZM12.8892 56.8988C12.8402 56.5558 13.0853 56.2127 13.4283 56.1637C13.7714 56.1147 14.1145 56.3597 14.1635 56.7028C14.2125 57.0458 13.9674 57.3889 13.6244 57.4379C13.5754 57.4379 13.5754 57.4379 13.5264 57.4379C13.2323 57.4869 12.9383 57.2419 12.8892 56.8988ZM168.344 55.8696C168.05 55.6246 168.05 55.2325 168.246 54.9385C168.491 54.6444 168.883 54.6444 169.177 54.8895C169.471 55.1345 169.471 55.5266 169.226 55.8206C169.079 55.9677 168.932 56.0657 168.736 56.0657C168.638 56.0657 168.491 56.0167 168.344 55.8696ZM12.4972 53.3212C12.4482 52.9781 12.7422 52.6351 13.1343 52.6351C13.4773 52.5861 13.8204 52.8801 13.8204 53.2722C13.8204 53.6152 13.5754 53.9583 13.1833 53.9583H13.1343C12.8402 53.9583 12.5462 53.6643 12.4972 53.3212ZM165.698 53.5172C165.453 53.2722 165.404 52.8311 165.649 52.5861C165.894 52.341 166.335 52.292 166.58 52.5371C166.825 52.7821 166.874 53.2232 166.629 53.4682C166.482 53.6152 166.335 53.6643 166.139 53.6643C165.992 53.7133 165.796 53.6152 165.698 53.5172ZM163.149 50.9688C162.904 50.6747 162.953 50.2827 163.198 50.0376C163.492 49.7926 163.884 49.8416 164.129 50.0866C164.374 50.3807 164.325 50.7728 164.08 51.0178C163.933 51.1158 163.786 51.1648 163.639 51.1648C163.492 51.1648 163.296 51.1158 163.149 50.9688ZM13.0853 50.4297C12.7422 50.4297 12.4482 50.1357 12.4482 49.7436C12.4482 49.4005 12.7422 49.1065 13.1343 49.1065C13.4773 49.1065 13.7714 49.4005 13.7714 49.7926C13.7224 50.1356 13.4283 50.4297 13.0853 50.4297ZM160.895 48.1263C160.699 47.8323 160.748 47.3912 161.091 47.1951C161.385 46.9991 161.777 47.0481 162.022 47.3912C162.218 47.6852 162.169 48.1263 161.826 48.3223C161.728 48.4203 161.581 48.4203 161.434 48.4203C161.238 48.3713 161.042 48.2733 160.895 48.1263ZM13.2323 46.9011C12.8892 46.8521 12.5952 46.558 12.6442 46.166C12.6932 45.8229 12.9873 45.5289 13.3793 45.5779C13.7224 45.6269 14.0164 45.9209 13.9674 46.313C13.9184 46.6561 13.6244 46.9011 13.3303 46.9011C13.2813 46.9011 13.2813 46.9011 13.2323 46.9011ZM159.13 44.8917C158.983 44.5487 159.13 44.1566 159.474 44.0096C159.817 43.8626 160.209 44.0096 160.356 44.3527C160.503 44.6957 160.356 45.0878 160.013 45.2348C159.915 45.2838 159.817 45.2838 159.768 45.2838C159.474 45.3328 159.228 45.1858 159.13 44.8917ZM13.7224 43.3725C13.3793 43.3235 13.1343 42.9314 13.1833 42.5883C13.2323 42.2453 13.6244 42.0002 13.9674 42.0493C14.3105 42.1473 14.5555 42.4903 14.5065 42.8334C14.4575 43.1274 14.1635 43.3725 13.8694 43.3725C13.7714 43.3725 13.7224 43.3725 13.7224 43.3725ZM67.6317 41.4612C67.6317 41.1181 67.8767 40.775 68.2688 40.775C68.6119 40.775 68.9549 41.0201 68.9549 41.4121C68.9549 41.7552 68.7099 42.0983 68.3178 42.0983C68.3178 42.0983 68.3178 42.0983 68.2688 42.0983C67.9747 42.0983 67.6807 41.8532 67.6317 41.4612ZM158.003 41.4121C157.954 41.0691 158.15 40.726 158.542 40.628C158.885 40.579 159.228 40.775 159.326 41.1671C159.376 41.5102 159.179 41.8532 158.787 41.9512C158.738 41.9512 158.689 41.9512 158.64 41.9512C158.346 41.9512 158.101 41.7062 158.003 41.4121ZM64.6912 41.9022C64.3481 41.8532 64.1031 41.5102 64.1521 41.1671C64.2011 40.824 64.5442 40.579 64.8872 40.628C65.2303 40.677 65.4753 41.0201 65.4263 41.3631C65.3773 41.7062 65.0832 41.9022 64.7892 41.9022C64.7402 41.9022 64.7402 41.9022 64.6912 41.9022ZM71.1603 41.0691C71.0623 40.726 71.3073 40.334 71.6504 40.285C71.9934 40.1869 72.3855 40.383 72.4345 40.775C72.5325 41.1181 72.2875 41.5102 71.9444 41.5592C71.8954 41.5592 71.8464 41.5592 71.7974 41.5592C71.5034 41.6082 71.2583 41.4121 71.1603 41.0691ZM61.1626 41.0691C60.8195 40.9711 60.6235 40.579 60.7215 40.2359C60.8195 39.8929 61.2116 39.6968 61.5546 39.7949C61.8977 39.8929 62.0937 40.285 61.9957 40.628C61.8977 40.9221 61.6527 41.0691 61.3586 41.0691C61.2606 41.0691 61.2116 41.0691 61.1626 41.0691ZM74.5419 39.9909C74.3949 39.6478 74.5419 39.2558 74.8849 39.1087C75.228 38.9617 75.6201 39.1087 75.7671 39.4518C75.9141 39.7949 75.7671 40.1869 75.424 40.334C75.326 40.383 75.228 40.383 75.13 40.383C74.8849 40.383 74.6399 40.2359 74.5419 39.9909ZM14.5065 39.9419C14.1635 39.8439 13.9674 39.4518 14.0654 39.1087C14.1635 38.7657 14.5555 38.5697 14.8986 38.6677C15.2417 38.7657 15.4377 39.1578 15.3397 39.5008C15.2417 39.7949 14.9966 39.9419 14.7026 39.9419C14.6536 39.9909 14.6045 39.9419 14.5065 39.9419ZM57.781 39.6968C57.4379 39.5498 57.2909 39.1578 57.4869 38.8147C57.634 38.4716 58.026 38.3246 58.3691 38.5206C58.7122 38.6677 58.8592 39.0597 58.6631 39.4028C58.5651 39.6478 58.3201 39.7949 58.075 39.7949C57.977 39.7459 57.879 39.7459 57.781 39.6968ZM77.6784 38.3736C77.4824 38.0796 77.5804 37.6385 77.8745 37.4425C78.1685 37.2464 78.6096 37.3444 78.8056 37.6385C79.0016 37.9325 78.9036 38.3736 78.6096 38.5697C78.5116 38.6187 78.3645 38.6677 78.2665 38.6677C78.0215 38.6677 77.7764 38.5697 77.6784 38.3736ZM157.66 37.7855C157.66 37.4425 157.954 37.0994 158.297 37.0994C158.64 37.0994 158.934 37.3934 158.983 37.7365C158.983 38.0796 158.689 38.3736 158.346 38.4226C157.954 38.4226 157.66 38.1286 157.66 37.7855ZM54.5954 38.0306C54.3014 37.8345 54.1544 37.4425 54.3504 37.1484C54.5464 36.8544 54.9385 36.7073 55.2325 36.9034C55.5266 37.0994 55.6736 37.4915 55.4776 37.7855C55.3306 37.9816 55.1345 38.1286 54.8895 38.1286C54.8405 38.1286 54.6935 38.0796 54.5954 38.0306ZM15.7807 36.6093C15.4377 36.4623 15.2907 36.0702 15.4867 35.7272C15.6337 35.3841 16.0258 35.2371 16.3688 35.4331C16.7119 35.5801 16.8589 35.9722 16.6629 36.3153C16.5649 36.5603 16.3198 36.7073 16.0748 36.7073C15.9278 36.6583 15.8298 36.6583 15.7807 36.6093ZM80.5699 36.3643C80.3249 36.0702 80.3739 35.6782 80.6679 35.4331C80.962 35.1881 81.354 35.2371 81.5991 35.5311C81.8441 35.8252 81.7951 36.2172 81.5011 36.4623C81.354 36.5603 81.207 36.6093 81.06 36.6093C80.864 36.6093 80.7169 36.5113 80.5699 36.3643ZM51.5569 36.1682C51.2629 35.9722 51.1648 35.5801 51.3609 35.2371C51.5569 34.943 51.949 34.845 52.292 35.041C52.5861 35.2371 52.6841 35.6291 52.4881 35.9722C52.3411 36.1682 52.145 36.2663 51.949 36.2663C51.802 36.2663 51.6549 36.2172 51.5569 36.1682ZM158.493 34.894C158.15 34.845 157.856 34.502 157.905 34.1589C157.954 33.8158 158.297 33.5218 158.64 33.5708C158.983 33.6198 159.277 33.9629 159.228 34.3059C159.179 34.649 158.885 34.894 158.591 34.894C158.542 34.894 158.493 34.894 158.493 34.894ZM48.5674 34.2079C48.2733 34.0119 48.1753 33.5708 48.3714 33.2767C48.5674 32.9827 49.0085 32.8847 49.3025 33.0807C49.5966 33.2767 49.6946 33.7178 49.4986 34.0119C49.3515 34.2079 49.1555 34.3059 48.9595 34.3059C48.8124 34.3059 48.7144 34.3059 48.5674 34.2079ZM83.2164 34.0119C82.9713 33.7668 82.9713 33.3257 83.2164 33.0807C83.4614 32.8357 83.9025 32.8357 84.1475 33.0807C84.3926 33.3257 84.3926 33.7668 84.1475 34.0119C84.0005 34.1589 83.8535 34.2079 83.6574 34.2079C83.5104 34.2079 83.3634 34.1589 83.2164 34.0119ZM17.447 33.5218C17.153 33.3257 17.055 32.8847 17.251 32.5906C17.447 32.2966 17.8881 32.1986 18.1822 32.3946C18.4762 32.5906 18.5742 33.0317 18.3292 33.3257C18.1822 33.5218 17.9861 33.6198 17.7901 33.6198C17.6921 33.6198 17.545 33.5708 17.447 33.5218ZM45.6269 32.2966C45.3328 32.1005 45.2348 31.7085 45.4309 31.3654C45.6269 31.0714 46.019 30.9733 46.362 31.1694C46.6561 31.3654 46.7541 31.7575 46.5581 32.1005C46.411 32.2966 46.215 32.3946 46.019 32.3946C45.8719 32.3946 45.7739 32.3456 45.6269 32.2966ZM85.6668 31.4634C85.3727 31.2184 85.3727 30.8263 85.6178 30.5323C85.8628 30.2382 86.2549 30.2382 86.549 30.4833C86.843 30.7283 86.843 31.1204 86.598 31.4144C86.4509 31.5614 86.3039 31.6595 86.1079 31.6595C85.9118 31.6105 85.7648 31.5614 85.6668 31.4634ZM158.983 31.4144C158.64 31.3654 158.395 31.0224 158.444 30.6303C158.493 30.2872 158.836 30.0422 159.228 30.0912C159.572 30.1402 159.817 30.4833 159.768 30.8753C159.719 31.1694 159.425 31.4144 159.13 31.4144C159.081 31.4144 159.032 31.4144 158.983 31.4144ZM19.6034 30.6793C19.3584 30.4342 19.3584 29.9932 19.6034 29.7481C19.8484 29.5031 20.2895 29.5031 20.5346 29.7481C20.7796 29.9932 20.7796 30.4342 20.5346 30.6793C20.3875 30.8263 20.2405 30.8753 20.0445 30.8753C19.8975 30.8753 19.7504 30.8263 19.6034 30.6793ZM42.6374 30.4833C42.3433 30.2872 42.1963 29.8952 42.3923 29.6011C42.5884 29.258 42.9804 29.16 43.2745 29.3561C43.5685 29.5521 43.7156 29.9442 43.5195 30.2382C43.4215 30.4343 43.1765 30.5813 42.9314 30.5813C42.8334 30.5813 42.7354 30.5323 42.6374 30.4833ZM39.5498 28.915C39.2068 28.768 39.0598 28.3759 39.2068 28.0328C39.3538 27.6898 39.7459 27.5428 40.0889 27.6898C40.432 27.8368 40.579 28.2289 40.432 28.5719C40.334 28.817 40.0889 28.964 39.8439 28.964C39.6969 28.964 39.6479 28.964 39.5498 28.915ZM87.9212 28.719C87.6271 28.4739 87.5781 28.0818 87.8232 27.7878C88.0682 27.4937 88.4603 27.4447 88.7543 27.6898C89.0484 27.9348 89.0974 28.3269 88.8523 28.6209C88.7053 28.768 88.5093 28.866 88.3132 28.866C88.2152 28.866 88.0682 28.817 87.9212 28.719ZM22.2989 28.4249C22.1028 28.1309 22.2009 27.6898 22.4949 27.4937C22.789 27.2977 23.23 27.3957 23.4261 27.6898C23.6221 27.9838 23.5241 28.4249 23.23 28.6209C23.132 28.6699 22.985 28.719 22.887 28.719C22.6419 28.719 22.3969 28.6209 22.2989 28.4249ZM159.621 27.9348C159.277 27.8858 159.032 27.5428 159.081 27.1507C159.13 26.8076 159.474 26.5626 159.866 26.6116C160.209 26.6606 160.454 27.0037 160.405 27.3957C160.356 27.7388 160.062 27.9348 159.768 27.9348C159.719 27.9348 159.67 27.9348 159.621 27.9348ZM36.3153 27.6408C35.9722 27.5428 35.7762 27.1507 35.8742 26.8076C35.9722 26.4646 36.3643 26.2685 36.7074 26.3665C37.0504 26.4646 37.2464 26.8566 37.1484 27.1997C37.0504 27.4937 36.8054 27.6408 36.5113 27.6408C36.4623 27.6898 36.3643 27.6898 36.3153 27.6408ZM25.4354 26.8076C25.3374 26.4646 25.5334 26.0725 25.8765 25.9745C26.2195 25.8765 26.6116 26.0725 26.7096 26.4156C26.8076 26.7586 26.6116 27.1507 26.2686 27.2487C26.2195 27.2487 26.1215 27.2977 26.0725 27.2977C25.7785 27.2977 25.5334 27.1017 25.4354 26.8076ZM32.9827 26.8566C32.6397 26.8076 32.3946 26.4646 32.4436 26.1215C32.4926 25.7784 32.8357 25.5334 33.1787 25.5824C33.5218 25.6314 33.7668 25.9745 33.7178 26.3175C33.6688 26.6606 33.3748 26.8566 33.0807 26.8566C33.0317 26.8566 32.9827 26.8566 32.9827 26.8566ZM28.866 26.0725C28.866 25.7294 29.111 25.3864 29.5031 25.3864C29.8462 25.3864 30.1892 25.6314 30.1892 26.0235C30.1892 26.3665 29.9442 26.7096 29.5521 26.7096C29.5521 26.7096 29.5521 26.7096 29.5031 26.7096C29.2091 26.6606 28.915 26.4156 28.866 26.0725ZM90.1266 25.9745C89.8325 25.7294 89.7835 25.3374 90.0285 25.0433C90.2736 24.7493 90.6657 24.7003 90.9597 24.9453C91.2538 25.1903 91.3028 25.5824 91.0577 25.8765C90.9107 26.0235 90.7147 26.1215 90.5186 26.1215C90.4206 26.1215 90.2736 26.0725 90.1266 25.9745ZM160.209 24.4062C159.866 24.3572 159.572 24.0632 159.621 23.6711C159.67 23.328 160.013 23.034 160.356 23.083C160.699 23.132 160.993 23.475 160.944 23.8181C160.895 24.1612 160.601 24.4062 160.307 24.4062C160.258 24.4062 160.209 24.4062 160.209 24.4062ZM92.3319 23.181C92.0379 22.936 91.9889 22.5439 92.2339 22.2498C92.479 21.9558 92.871 21.9068 93.1651 22.1518C93.4591 22.3969 93.5081 22.7889 93.2631 23.083C93.1161 23.23 92.92 23.328 92.773 23.328C92.626 23.328 92.479 23.279 92.3319 23.181ZM159.817 20.2405C159.817 19.8974 160.111 19.5544 160.454 19.5544C160.797 19.5544 161.14 19.8484 161.14 20.1915C161.14 20.5345 160.846 20.8776 160.503 20.8776C160.111 20.8776 159.817 20.5836 159.817 20.2405ZM94.6353 20.4855C94.3413 20.2405 94.3413 19.8484 94.5863 19.5544C94.8314 19.3093 95.2234 19.2603 95.5175 19.5054C95.8115 19.7504 95.8115 20.1425 95.5665 20.4365C95.4195 20.5836 95.2725 20.6326 95.0764 20.6326C94.8804 20.6816 94.7334 20.5836 94.6353 20.4855ZM97.0368 17.8881C96.7917 17.643 96.7917 17.202 97.0368 16.9569C97.2818 16.7119 97.7229 16.7119 97.9679 16.9569C98.213 17.202 98.213 17.643 97.9679 17.8881C97.8209 18.0351 97.6739 18.0841 97.5268 18.0841C97.3308 18.0841 97.1838 18.0351 97.0368 17.8881ZM159.474 16.8589C159.375 16.5159 159.621 16.1728 159.964 16.0748C160.307 15.9768 160.65 16.2218 160.748 16.5649C160.846 16.9079 160.601 17.251 160.258 17.349C160.209 17.349 160.16 17.349 160.111 17.349C159.817 17.398 159.523 17.153 159.474 16.8589ZM99.5852 15.4867C99.3401 15.1926 99.3892 14.8006 99.6342 14.5555C99.9283 14.3105 100.32 14.3595 100.565 14.6045C100.81 14.8986 100.761 15.2906 100.516 15.5357C100.369 15.6337 100.222 15.6827 100.075 15.6827C99.9283 15.6827 99.7322 15.6337 99.5852 15.4867ZM158.395 13.6244C158.248 13.2813 158.395 12.8892 158.738 12.7422C159.081 12.5952 159.474 12.7422 159.621 13.0853C159.768 13.4283 159.621 13.8204 159.277 13.9674C159.179 14.0164 159.081 14.0164 159.032 14.0164C158.738 14.0164 158.542 13.8694 158.395 13.6244ZM102.33 13.1833C102.134 12.8892 102.183 12.4972 102.477 12.2521C102.771 12.0071 103.163 12.1051 103.408 12.3501C103.653 12.6442 103.555 13.0362 103.31 13.2813C103.212 13.3793 103.065 13.4283 102.918 13.4283C102.624 13.4773 102.428 13.3793 102.33 13.1833ZM105.172 11.0759C104.976 10.7819 105.025 10.3408 105.368 10.1448C105.662 9.94872 106.103 9.99772 106.299 10.3408C106.495 10.6348 106.446 11.0759 106.103 11.2719C106.005 11.37 105.858 11.37 105.711 11.37C105.515 11.37 105.27 11.2719 105.172 11.0759ZM156.729 10.6838C156.533 10.3898 156.582 9.99773 156.876 9.75268C157.17 9.55665 157.562 9.60566 157.807 9.89971C158.003 10.1938 157.954 10.5858 157.66 10.8309C157.562 10.9289 157.415 10.9289 157.268 10.9289C157.072 10.9289 156.827 10.8309 156.729 10.6838ZM108.113 9.16458C107.917 8.87053 108.015 8.42946 108.358 8.23342C108.652 8.03739 109.093 8.1354 109.289 8.47846C109.485 8.77251 109.387 9.21359 109.044 9.40963C108.946 9.45863 108.799 9.50764 108.701 9.50764C108.456 9.45863 108.26 9.36062 108.113 9.16458ZM154.524 8.08639C154.279 7.84135 154.279 7.40028 154.524 7.15524C154.769 6.91019 155.21 6.91019 155.455 7.15524C155.7 7.40028 155.7 7.84135 155.455 8.08639C155.308 8.23342 155.161 8.28243 154.965 8.28243C154.818 8.23342 154.622 8.18441 154.524 8.08639ZM111.2 7.40028C111.053 7.05722 111.151 6.66515 111.494 6.51813C111.837 6.32209 112.229 6.46912 112.376 6.81218C112.523 7.15523 112.425 7.5473 112.082 7.69433C111.984 7.74334 111.886 7.79234 111.788 7.79234C111.543 7.74334 111.298 7.64532 111.2 7.40028ZM114.386 5.83201C114.239 5.48895 114.386 5.09688 114.729 4.94985C115.072 4.80283 115.464 4.94986 115.611 5.29291C115.758 5.63597 115.611 6.02804 115.268 6.17507C115.17 6.22407 115.072 6.22407 115.023 6.22407C114.729 6.22407 114.484 6.07705 114.386 5.83201ZM151.877 5.88101C151.583 5.68498 151.534 5.24391 151.73 4.94985C151.926 4.6558 152.367 4.6068 152.661 4.80283C152.955 4.99886 153.004 5.43994 152.808 5.73399C152.661 5.93002 152.465 6.02804 152.269 6.02804C152.122 5.97903 151.975 5.93002 151.877 5.88101ZM117.62 4.45977C117.473 4.11671 117.669 3.72464 118.012 3.62663C118.355 3.4796 118.747 3.67563 118.846 4.01869C118.993 4.36175 118.797 4.75382 118.453 4.85184C118.355 4.90085 118.306 4.90085 118.208 4.90085C117.963 4.85184 117.718 4.70481 117.62 4.45977ZM148.937 4.0677C148.594 3.92068 148.496 3.4796 148.643 3.18555C148.79 2.84249 149.231 2.74447 149.525 2.8915C149.868 3.03852 149.966 3.43059 149.819 3.77365C149.721 4.01869 149.476 4.11671 149.231 4.11671C149.133 4.16572 149.035 4.11671 148.937 4.0677ZM120.953 3.28357C120.855 2.94051 121.051 2.54844 121.394 2.45042C121.737 2.35241 122.129 2.54844 122.227 2.8915C122.325 3.23456 122.129 3.62663 121.786 3.72464C121.737 3.72464 121.639 3.77365 121.59 3.77365C121.296 3.72464 121.051 3.52861 120.953 3.28357ZM145.751 2.79348C145.408 2.69547 145.212 2.3034 145.31 1.96034C145.408 1.61728 145.8 1.42125 146.143 1.51926C146.486 1.61728 146.682 2.00935 146.584 2.35241C146.486 2.64646 146.241 2.79348 145.947 2.79348C145.898 2.79348 145.849 2.79348 145.751 2.79348ZM124.383 2.3034C124.285 1.96034 124.53 1.56827 124.874 1.51926C125.217 1.42125 125.56 1.66629 125.658 2.00935C125.756 2.35241 125.511 2.69547 125.168 2.79348C125.119 2.79348 125.07 2.79348 125.021 2.79348C124.727 2.79348 124.432 2.59745 124.383 2.3034ZM127.814 1.51926C127.765 1.1762 128.01 0.833144 128.353 0.735127C128.696 0.686118 129.039 0.931162 129.137 1.27422C129.186 1.61728 128.941 1.96034 128.598 2.05836C128.549 2.05836 128.5 2.05836 128.5 2.05836C128.157 2.05836 127.863 1.81331 127.814 1.51926ZM142.419 1.91133C142.076 1.86232 141.83 1.51926 141.88 1.1272C141.928 0.784137 142.321 0.539093 142.664 0.588102C143.007 0.63711 143.252 1.02918 143.203 1.37224C143.154 1.66629 142.86 1.91133 142.566 1.91133C142.517 1.91133 142.468 1.91133 142.419 1.91133ZM131.294 0.980169C131.245 0.63711 131.539 0.294051 131.882 0.245042C132.225 0.196034 132.568 0.490085 132.617 0.833144C132.666 1.1762 132.372 1.51926 132.029 1.56827H131.98C131.637 1.56827 131.343 1.32323 131.294 0.980169ZM138.988 1.47025C138.645 1.42125 138.351 1.12719 138.4 0.735127C138.449 0.392068 138.743 0.0980184 139.086 0.147027C139.429 0.196035 139.723 0.490085 139.674 0.833144C139.674 1.1762 139.38 1.47025 138.988 1.47025C139.037 1.47025 138.988 1.47025 138.988 1.47025ZM134.822 0.686119C134.822 0.34306 135.116 0 135.459 0C135.802 0 136.145 0.294052 136.145 0.637111C136.145 0.980171 135.851 1.32323 135.508 1.32323C135.165 1.32323 134.871 1.07819 134.822 0.686119Z" fill="#7048A3"/>
<path d="M159.326 173.98C159.228 173.98 159.13 173.98 159.081 173.931C158.983 173.882 158.934 173.833 158.885 173.784C158.738 173.637 158.689 173.49 158.689 173.294C158.689 173.098 158.738 172.951 158.885 172.804C159.13 172.559 159.571 172.559 159.816 172.804C159.963 172.951 160.013 173.098 160.013 173.294C160.013 173.49 159.963 173.637 159.816 173.784C159.669 173.931 159.473 173.98 159.326 173.98Z" fill="#7048A3"/>
<path d="M166.09 98.1149C158.837 91.1067 160.454 78.8546 155.014 70.3761C154.034 68.8569 152.76 67.4356 151.142 66.6515C149.525 65.8673 147.418 65.8673 145.996 66.9455C144.232 68.2197 143.84 70.7682 144.33 72.8756C144.82 74.9829 146.094 76.8452 147.173 78.7076C151.093 85.4217 153.152 93.3611 151.926 101.006C150.603 109.191 145.751 116.542 145.016 124.776C144.477 130.46 146.045 136.194 148.594 141.291C151.142 146.388 154.72 150.946 158.494 155.259C156.729 150.701 157.268 145.31 158.347 140.507C159.425 135.753 161.581 131.245 164.032 127.03C166.727 122.374 169.863 117.865 171.187 112.67C172.461 107.476 169.913 101.84 166.09 98.1149Z" fill="url(#paint0_linear)"/>
<path opacity="0.2" d="M166.09 98.1149C158.837 91.1067 160.454 78.8546 155.014 70.3761C154.034 68.8569 152.76 67.4356 151.142 66.6515C149.525 65.8673 147.418 65.8673 145.996 66.9455C144.232 68.2197 143.84 70.7682 144.33 72.8756C144.82 74.9829 146.094 76.8452 147.173 78.7076C151.093 85.4217 153.152 93.3611 151.926 101.006C150.603 109.191 145.751 116.542 145.016 124.776C144.477 130.46 146.045 136.194 148.594 141.291C151.142 146.388 154.72 150.946 158.494 155.259C156.729 150.701 157.268 145.31 158.347 140.507C159.425 135.753 161.581 131.245 164.032 127.03C166.727 122.374 169.863 117.865 171.187 112.67C172.461 107.476 169.913 101.84 166.09 98.1149Z" fill="black"/>
<path opacity="0.2" d="M161.14 89.5384C160.797 95.6644 157.807 101.643 154.524 106.985C151.142 112.425 147.271 117.767 145.114 123.746C145.065 124.089 145.016 124.432 144.967 124.775C144.428 130.46 145.996 136.194 148.545 141.291C151.093 146.388 154.671 150.946 158.445 155.259C156.68 150.701 157.219 145.31 158.298 140.507C159.376 135.753 161.532 131.245 163.983 127.03C166.678 122.374 169.815 117.865 171.138 112.67C172.461 107.475 169.913 101.839 166.041 98.1148C163.59 95.7624 162.169 92.7729 161.14 89.5384Z" fill="black"/>
<path d="M164.62 148.839C162.757 137.077 162.267 125.119 163.296 113.259C163.835 106.642 164.963 99.8302 168.785 94.3903C171.628 90.4206 175.793 87.3821 177.999 83.0693C181.92 75.375 178.832 65.4263 183.096 57.977C184.615 55.2815 187.605 52.9781 190.643 53.7133C193.731 54.4974 195.201 58.124 195.25 61.2606C195.348 70.3761 187.605 77.7274 186.036 86.6959C184.468 95.6645 189.32 104.388 190.251 113.455C191.084 121.198 189.026 129.039 185.595 136.047C182.165 143.056 177.411 149.329 172.559 155.406C168.834 154.818 165.257 152.661 164.62 148.839Z" fill="url(#paint1_linear)"/>
<path opacity="0.2" d="M164.62 148.839C162.757 137.077 162.267 125.119 163.296 113.259C163.835 106.642 164.963 99.8302 168.785 94.3903C171.628 90.4206 175.793 87.3821 177.999 83.0693C181.92 75.375 178.832 65.4263 183.096 57.977C184.615 55.2815 187.605 52.9781 190.643 53.7133C193.731 54.4974 195.201 58.124 195.25 61.2606C195.348 70.3761 187.605 77.7274 186.036 86.6959C184.468 95.6645 189.32 104.388 190.251 113.455C191.084 121.198 189.026 129.039 185.595 136.047C182.165 143.056 177.411 149.329 172.559 155.406C168.834 154.818 165.257 152.661 164.62 148.839Z" fill="black"/>
<path opacity="0.2" d="M177.656 83.7555C175.352 87.7742 171.481 90.6657 168.785 94.4393C164.963 99.8303 163.835 106.691 163.296 113.308C162.463 123.011 162.61 132.764 163.737 142.419C165.355 146.584 167.266 150.652 169.422 154.524C170.403 154.965 171.53 155.259 172.608 155.455C174.029 153.691 175.401 151.926 176.774 150.113C181.331 141.929 184.909 133.254 185.889 123.991C187.36 110.171 182.949 96.6447 177.656 83.7555Z" fill="black"/>
<path d="M159.082 154.867C151.387 151.779 147.614 142.664 148.055 134.381C148.545 126.099 152.368 118.453 155.994 111.053C159.621 103.604 163.247 95.8116 163.247 87.5291C163.247 78.2175 158.69 69.494 157.759 60.2314C157.023 53.0762 158.543 45.7249 162.071 39.4518C163.444 36.9524 165.404 34.453 168.197 33.8159C172.265 32.8847 176.186 36.5113 177.215 40.579C178.195 44.5977 177.068 48.8615 176.039 52.8801C174.176 60.0354 172.51 67.3867 173.196 74.7379C173.98 83.2164 177.852 91.0577 180.204 99.2421C185.84 118.993 182.116 141.193 170.354 158.003C166.433 157.023 162.806 156.337 159.082 154.867Z" fill="url(#paint2_linear)"/>
<path opacity="0.1" d="M180.792 109.24C180.351 109.044 179.812 109.24 179.616 109.681C177.754 113.749 175.058 117.473 171.775 120.512C171.971 119.728 172.167 118.943 172.314 118.11C174.127 108.75 172.804 99.3401 171.236 91.3027C171.089 90.6166 170.991 89.9795 170.844 89.2933C172.118 87.284 173.245 85.1766 174.225 83.0203C174.421 82.5792 174.225 82.0401 173.784 81.8441C173.343 81.648 172.804 81.8441 172.608 82.2851C171.922 83.8044 171.138 85.2746 170.305 86.7449C170.109 85.8137 169.913 84.8826 169.716 83.9514C168.393 77.8254 167.07 71.5033 166.531 65.1812C166.237 61.5546 166.237 58.173 166.531 54.9874C169.226 52.586 171.824 50.0376 174.274 47.4401C174.617 47.0971 174.568 46.509 174.225 46.2149C173.882 45.8718 173.294 45.9209 173 46.2639C171.04 48.3713 168.981 50.3806 166.874 52.341C167.56 47.6852 168.932 43.5194 170.991 39.8928C171.236 39.4517 171.089 38.9126 170.648 38.6676C170.207 38.4226 169.667 38.5696 169.422 39.0107C165.796 45.3818 164.179 53.2721 164.571 62.5347C163.198 60.7704 161.63 59.1531 159.964 57.6829C159.621 57.3398 159.033 57.3888 158.739 57.7319C158.396 58.0749 158.445 58.663 158.788 58.9571C161.042 60.9664 163.051 63.2208 164.767 65.7203C165.306 72.0424 166.678 78.2664 167.952 84.3435C168.442 86.7449 168.981 89.1953 169.471 91.6457C170.452 96.7426 171.383 102.428 171.383 108.26C169.569 104.584 167.217 101.153 164.473 98.1149C164.13 97.7718 163.59 97.7228 163.247 98.0658C162.904 98.4089 162.855 98.948 163.198 99.2911C166.629 103.065 169.324 107.377 171.236 112.131C171.236 112.18 171.285 112.18 171.285 112.229C171.138 114.092 170.942 115.905 170.599 117.767C170.256 119.434 169.864 121.051 169.373 122.668C169.324 122.766 169.324 122.864 169.275 122.962C168.393 125.805 167.315 128.647 166.286 131.392C165.698 132.911 165.11 134.479 164.571 136.047C161.532 130.362 159.033 124.334 157.17 118.159C157.023 117.669 156.533 117.424 156.092 117.571C155.602 117.718 155.357 118.208 155.504 118.649C157.562 125.462 160.356 132.078 163.786 138.302C162.071 143.497 160.552 149.868 161.532 156.19C161.581 156.631 161.973 156.925 162.414 156.925C162.463 156.925 162.512 156.925 162.561 156.925C163.051 156.827 163.394 156.386 163.296 155.896C162.267 149.133 164.277 142.222 166.139 136.979C166.727 135.312 167.364 133.646 168.001 131.98C169.03 129.235 170.109 126.393 170.991 123.501C175.401 120.022 178.93 115.464 181.282 110.367C181.43 109.975 181.233 109.436 180.792 109.24Z" fill="black"/>
<path d="M176.088 154.377C172.265 154.573 168.393 154.965 164.522 155.161C160.65 154.965 156.778 154.622 152.956 154.377C152.221 163.884 154.573 173.588 159.572 181.723H161.63H167.413H169.471C174.47 173.637 176.823 163.884 176.088 154.377Z" fill="#FFB227"/>
<path opacity="0.1" d="M176.088 154.377C172.265 154.573 168.393 154.965 164.522 155.161C160.65 154.965 156.778 154.622 152.956 154.377C152.711 157.317 152.809 160.209 153.152 163.149L176.235 156.925C176.186 156.092 176.137 155.259 176.088 154.377Z" fill="black"/>
<path d="M178.097 151.73H150.897V156.435H178.097V151.73Z" fill="#FFB227"/>
<path opacity="0.3" d="M178.097 151.73H150.897V156.435H178.097V151.73Z" fill="black"/>
<path d="M146.486 181.821H51.0178C46.1169 181.821 42.1963 177.852 42.1963 173V44.3036C42.1963 39.4027 46.1659 35.4821 51.0178 35.4821H146.486C151.387 35.4821 155.308 39.4517 155.308 44.3036V173C155.308 177.852 151.387 181.821 146.486 181.821Z" fill="#7048A3"/>
<g opacity="0.1">
<path opacity="0.1" d="M155.308 70.18L45.5288 179.959C47.0481 181.135 48.9104 181.87 50.9687 181.87H65.8183L155.308 92.3808V70.18Z" fill="white"/>
<path opacity="0.1" d="M42.1473 172.461L155.308 59.3002V44.3036C155.308 39.4028 151.338 35.4821 146.486 35.4821H134.822L42.1963 128.108V172.461H42.1473Z" fill="white"/>
</g>
<path d="M146.486 37.6874H123.158V40.2359C123.158 41.8532 121.835 43.2254 120.169 43.2254H77.2863C75.6691 43.2254 74.2968 41.9022 74.2968 40.2359V37.6874H50.9688C47.2932 37.6874 44.3527 40.677 44.3527 44.3036V173C44.3527 176.675 47.3422 179.616 50.9688 179.616H146.437C150.113 179.616 153.053 176.626 153.053 173V44.3036C153.102 40.6279 150.162 37.6874 146.486 37.6874Z" fill="white"/>
<path opacity="0.2" d="M99.8303 39.4518C99.8303 40.0399 99.3402 40.579 98.7031 40.579C98.115 40.579 97.5759 40.0889 97.5759 39.4518C97.5759 38.8637 98.066 38.3246 98.7031 38.3246C99.3402 38.3736 99.8303 38.8637 99.8303 39.4518Z" fill="black"/>
<path opacity="0.2" d="M88.7542 39.4518C88.7542 40.0399 88.2642 40.579 87.627 40.579C87.0389 40.579 86.4998 40.0889 86.4998 39.4518C86.4998 38.8637 86.9899 38.3246 87.627 38.3246C88.2642 38.3736 88.7542 38.8637 88.7542 39.4518Z" fill="black"/>
<path opacity="0.2" d="M110.955 39.4518C110.955 40.0399 110.465 40.579 109.828 40.579C109.24 40.579 108.701 40.0889 108.701 39.4518C108.701 38.8637 109.191 38.3246 109.828 38.3246C110.465 38.3736 110.955 38.8637 110.955 39.4518Z" fill="black"/>
<g opacity="0.1">
<path opacity="0.1" d="M63.417 74.7868H55.7227C52.5861 74.7868 50.0377 72.2384 50.0377 69.1018V61.4075C50.0377 58.271 52.5861 55.7225 55.7227 55.7225H63.417C66.5535 55.7225 69.102 58.271 69.102 61.4075V69.1018C69.102 72.2384 66.5535 74.7868 63.417 74.7868ZM55.7227 59.6922C54.7915 59.6922 54.0074 60.4763 54.0074 61.4075V69.1018C54.0074 70.033 54.7915 70.8171 55.7227 70.8171H63.417C64.3482 70.8171 65.1323 70.033 65.1323 69.1018V61.4075C65.1323 60.4763 64.3482 59.6922 63.417 59.6922H55.7227Z" fill="black"/>
</g>
<path opacity="0.1" d="M142.566 60.1824H75.2282C74.248 60.1824 73.4639 59.3983 73.4639 58.4181C73.4639 57.4379 74.248 56.6538 75.2282 56.6538H142.566C143.546 56.6538 144.33 57.4379 144.33 58.4181C144.33 59.3983 143.546 60.1824 142.566 60.1824Z" fill="black"/>
<path opacity="0.1" d="M142.419 67.1416H75.0811C74.1009 67.1416 73.3168 66.3575 73.3168 65.3773C73.3168 64.3971 74.1009 63.613 75.0811 63.613H142.419C143.399 63.613 144.183 64.3971 144.183 65.3773C144.183 66.3575 143.399 67.1416 142.419 67.1416Z" fill="black"/>
<path opacity="0.1" d="M107.868 74.1008H75.2282C74.248 74.1008 73.4639 73.3166 73.4639 72.3365C73.4639 71.3563 74.248 70.5722 75.2282 70.5722H107.868C108.848 70.5722 109.632 71.3563 109.632 72.3365C109.632 73.3166 108.848 74.1008 107.868 74.1008Z" fill="black"/>
<g opacity="0.1">
<path opacity="0.1" d="M63.417 103.016H55.7227C52.5861 103.016 50.0377 100.467 50.0377 97.3306V89.6363C50.0377 86.4998 52.5861 83.9513 55.7227 83.9513H63.417C66.5535 83.9513 69.102 86.4998 69.102 89.6363V97.3306C69.102 100.467 66.5535 103.016 63.417 103.016ZM55.7227 87.921C54.7915 87.921 54.0074 88.7051 54.0074 89.6363V97.3306C54.0074 98.2618 54.7915 99.0459 55.7227 99.0459H63.417C64.3482 99.0459 65.1323 98.2618 65.1323 97.3306V89.6363C65.1323 88.7051 64.3482 87.921 63.417 87.921H55.7227Z" fill="black"/>
</g>
<path opacity="0.1" d="M142.566 88.3622H75.2282C74.248 88.3622 73.4639 87.5781 73.4639 86.5979C73.4639 85.6178 74.248 84.8336 75.2282 84.8336H142.566C143.546 84.8336 144.33 85.6178 144.33 86.5979C144.33 87.5781 143.546 88.3622 142.566 88.3622Z" fill="black"/>
<path opacity="0.1" d="M142.419 95.3214H75.0811C74.101 95.3214 73.3168 94.5373 73.3168 93.5571C73.3168 92.577 74.101 91.7928 75.0811 91.7928H142.419C143.399 91.7928 144.183 92.577 144.183 93.5571C144.183 94.5373 143.399 95.3214 142.419 95.3214Z" fill="black"/>
<path opacity="0.1" d="M107.868 102.281H75.2282C74.248 102.281 73.4639 101.496 73.4639 100.516C73.4639 99.5361 74.248 98.752 75.2282 98.752H107.868C108.848 98.752 109.632 99.5361 109.632 100.516C109.632 101.496 108.848 102.281 107.868 102.281Z" fill="black"/>
<g opacity="0.1">
<path opacity="0.1" d="M63.417 131.196H55.7227C52.5861 131.196 50.0377 128.647 50.0377 125.511V117.816C50.0377 114.68 52.5861 112.131 55.7227 112.131H63.417C66.5535 112.131 69.102 114.68 69.102 117.816V125.511C69.102 128.647 66.5535 131.196 63.417 131.196ZM55.7227 116.101C54.7915 116.101 54.0074 116.885 54.0074 117.816V125.511C54.0074 126.442 54.7915 127.226 55.7227 127.226H63.417C64.3482 127.226 65.1323 126.442 65.1323 125.511V117.816C65.1323 116.885 64.3482 116.101 63.417 116.101H55.7227Z" fill="black"/>
</g>
<path opacity="0.1" d="M142.566 116.591H75.2282C74.248 116.591 73.4639 115.807 73.4639 114.827C73.4639 113.847 74.248 113.062 75.2282 113.062H142.566C143.546 113.062 144.33 113.847 144.33 114.827C144.33 115.807 143.546 116.591 142.566 116.591Z" fill="black"/>
<path opacity="0.1" d="M142.419 123.55H75.0811C74.101 123.55 73.3168 122.766 73.3168 121.786C73.3168 120.806 74.101 120.022 75.0811 120.022H142.419C143.399 120.022 144.183 120.806 144.183 121.786C144.183 122.766 143.399 123.55 142.419 123.55Z" fill="black"/>
<path opacity="0.1" d="M107.868 130.509H75.2282C74.248 130.509 73.4639 129.725 73.4639 128.745C73.4639 127.765 74.248 126.981 75.2282 126.981H107.868C108.848 126.981 109.632 127.765 109.632 128.745C109.632 129.725 108.848 130.509 107.868 130.509Z" fill="black"/>
<g opacity="0.1">
<path opacity="0.1" d="M63.417 159.424H55.7227C52.5861 159.424 50.0377 156.876 50.0377 153.739V146.045C50.0377 142.908 52.5861 140.36 55.7227 140.36H63.417C66.5535 140.36 69.102 142.908 69.102 146.045V153.739C69.102 156.827 66.5535 159.424 63.417 159.424ZM55.7227 144.281C54.7915 144.281 54.0074 145.065 54.0074 145.996V153.69C54.0074 154.622 54.7915 155.406 55.7227 155.406H63.417C64.3482 155.406 65.1323 154.622 65.1323 153.69V145.996C65.1323 145.065 64.3482 144.281 63.417 144.281H55.7227Z" fill="black"/>
</g>
<path opacity="0.1" d="M142.566 144.771H75.2282C74.248 144.771 73.4639 143.987 73.4639 143.006C73.4639 142.026 74.248 141.242 75.2282 141.242H142.566C143.546 141.242 144.33 142.026 144.33 143.006C144.33 143.987 143.546 144.771 142.566 144.771Z" fill="black"/>
<path opacity="0.1" d="M142.419 151.73H75.0811C74.1009 151.73 73.3168 150.946 73.3168 149.966C73.3168 148.986 74.1009 148.201 75.0811 148.201H142.419C143.399 148.201 144.183 148.986 144.183 149.966C144.183 150.946 143.399 151.73 142.419 151.73Z" fill="black"/>
<path opacity="0.1" d="M107.868 158.689H75.2282C74.248 158.689 73.4639 157.905 73.4639 156.925C73.4639 155.945 74.248 155.161 75.2282 155.161H107.868C108.848 155.161 109.632 155.945 109.632 156.925C109.632 157.905 108.848 158.689 107.868 158.689Z" fill="black"/>
<path d="M51.851 42.7352C52.4465 42.7352 52.9292 42.2525 52.9292 41.657C52.9292 41.0615 52.4465 40.5788 51.851 40.5788C51.2555 40.5788 50.7728 41.0615 50.7728 41.657C50.7728 42.2525 51.2555 42.7352 51.851 42.7352Z" fill="#FF58D5"/>
<path d="M55.7226 42.7352C56.3181 42.7352 56.8008 42.2525 56.8008 41.657C56.8008 41.0615 56.3181 40.5788 55.7226 40.5788C55.1271 40.5788 54.6444 41.0615 54.6444 41.657C54.6444 42.2525 55.1271 42.7352 55.7226 42.7352Z" fill="#FF58D5"/>
<path d="M59.5942 42.7352C60.1896 42.7352 60.6724 42.2525 60.6724 41.657C60.6724 41.0615 60.1896 40.5788 59.5942 40.5788C58.9987 40.5788 58.516 41.0615 58.516 41.657C58.516 42.2525 58.9987 42.7352 59.5942 42.7352Z" fill="#FF58D5"/>
<path d="M63.4169 42.7352C64.0124 42.7352 64.4951 42.2525 64.4951 41.657C64.4951 41.0615 64.0124 40.5788 63.4169 40.5788C62.8215 40.5788 62.3387 41.0615 62.3387 41.657C62.3387 42.2525 62.8215 42.7352 63.4169 42.7352Z" fill="#FF58D5"/>
<path d="M67.2887 42.7352C67.8842 42.7352 68.3669 42.2525 68.3669 41.657C68.3669 41.0615 67.8842 40.5788 67.2887 40.5788C66.6933 40.5788 66.2105 41.0615 66.2105 41.657C66.2105 42.2525 66.6933 42.7352 67.2887 42.7352Z" fill="#FF58D5"/>
<path d="M133.107 39.8436H126.834V43.3232H133.107V39.8436Z" fill="#FF58D5"/>
<path d="M133.108 42.4948H133.99V40.6325H133.108V42.4948Z" fill="#FF58D5"/>
<path d="M137.288 40.9288V41.5721H138.456V46.1054H139.188V40.9288H137.288ZM142.436 46.1646C143.641 46.1646 144.543 45.2032 144.543 43.5171C144.543 41.831 143.641 40.8696 142.436 40.8696C141.223 40.8696 140.321 41.831 140.321 43.5171C140.321 45.2032 141.223 46.1646 142.436 46.1646ZM142.436 45.5064C141.622 45.5064 141.06 44.8408 141.06 43.5171C141.06 42.1933 141.622 41.5278 142.436 41.5278C143.242 41.5278 143.804 42.1933 143.804 43.5171C143.804 44.8408 143.242 45.5064 142.436 45.5064ZM139.699 55.1646C140.904 55.1646 141.806 54.2032 141.806 52.5171C141.806 50.831 140.904 49.8696 139.699 49.8696C138.486 49.8696 137.584 50.831 137.584 52.5171C137.584 54.2032 138.486 55.1646 139.699 55.1646ZM139.699 54.5064C138.885 54.5064 138.323 53.8408 138.323 52.5171C138.323 51.1933 138.885 50.5278 139.699 50.5278C140.505 50.5278 141.067 51.1933 141.067 52.5171C141.067 53.8408 140.505 54.5064 139.699 54.5064ZM138.708 61.7094C139.425 61.7094 139.906 61.1473 139.906 60.2969C139.906 59.4464 139.425 58.8844 138.708 58.8844C137.99 58.8844 137.502 59.4538 137.502 60.2969C137.502 61.1399 137.99 61.7094 138.708 61.7094ZM138.294 64.1054H138.863L142.398 58.9288H141.829L138.294 64.1054ZM138.708 61.2878C138.264 61.2878 137.983 60.9107 137.983 60.2969C137.983 59.6831 138.264 59.3059 138.708 59.3059C139.159 59.3059 139.433 59.6757 139.433 60.2969C139.433 60.9181 139.159 61.2878 138.708 61.2878ZM141.984 64.1498C142.701 64.1498 143.189 63.5803 143.189 62.7373C143.189 61.8942 142.701 61.3248 141.984 61.3248C141.267 61.3248 140.786 61.8942 140.786 62.7373C140.786 63.5803 141.267 64.1498 141.984 64.1498ZM141.984 63.7283C141.533 63.7283 141.259 63.3585 141.259 62.7373C141.259 62.1161 141.533 61.7463 141.984 61.7463C142.428 61.7463 142.709 62.1235 142.709 62.7373C142.709 63.3511 142.428 63.7283 141.984 63.7283Z" fill="#FF58D5"/>
<path d="M73.2185 79.3936C68.8077 83.4123 64.2499 87.9211 60.2312 92.2829C58.908 90.6656 57.8298 88.8523 56.8007 86.99C55.0364 87.431 53.2721 87.8721 51.5078 88.3132C54.1542 91.5967 57.0947 94.7333 60.4273 97.3307C64.74 91.5967 68.9548 85.1766 73.2185 79.3936Z" fill="#002B66"/>
<path d="M73.2185 107.622C68.8077 111.641 64.2499 116.15 60.2312 120.512C58.908 118.894 57.8298 117.081 56.8007 115.219C55.0364 115.66 53.2721 116.101 51.5078 116.542C54.1542 119.826 57.0947 122.962 60.4273 125.559C64.74 119.776 68.9548 113.356 73.2185 107.622Z" fill="#002B66"/>
<path d="M73.2185 135.802C68.8077 139.821 64.2499 144.33 60.2312 148.692C58.908 147.074 57.8298 145.261 56.8007 143.399C55.0364 143.84 53.2721 144.281 51.5078 144.722C54.1542 148.005 57.0947 151.142 60.4273 153.739C64.74 147.956 68.9548 141.585 73.2185 135.802Z" fill="#002B66"/>
<path d="M68.5629 41.6572C65.5734 46.8031 62.5348 52.488 60.0354 57.83C58.2711 56.6538 56.7028 55.2815 55.1836 53.8113C53.6153 54.7424 52.096 55.7226 50.5278 56.6537C54.0564 59.0062 57.781 61.1135 61.7507 62.5348C64.1521 55.8206 66.2595 48.4203 68.5629 41.6572Z" fill="#002B66"/>
<path d="M14.4084 175.156L16.4178 170.353L20.2405 172.608L17.0549 176.725L14.4084 175.156Z" fill="#FF58D5"/>
<path d="M37.4915 178.391L36.5113 172.314H42.7354L41.8042 178.391H37.4915Z" fill="#FF58D5"/>
<path d="M15.2417 119.091C15.8298 120.757 16.4179 122.619 15.7807 124.236C16.2708 125.119 15.6337 126.491 14.8496 127.079C14.0655 127.667 12.8402 127.569 12.1051 126.883C11.566 126.344 11.37 125.56 11.272 124.776C11.0759 122.717 11.664 120.561 12.8893 118.943C12.8893 118.404 13.1343 117.816 13.6734 117.816C14.2125 117.767 15.0946 118.6 15.2417 119.091Z" fill="#FF58D5"/>
<path d="M32.1005 76.9924C31.3164 75.8652 31.4144 74.3459 32.0025 73.1207C32.5906 71.8955 33.6198 70.9643 34.649 70.1312C35.6781 69.2981 36.8053 68.5139 37.7365 67.5337C39.4028 65.7204 40.1869 63.172 39.9419 60.7216C39.7948 59.4964 39.3538 58.2712 38.4226 57.536C36.9033 56.4088 34.5999 56.9479 33.2277 58.2221C31.8065 59.4964 31.0713 61.3097 30.2872 63.025C29.5031 64.7403 28.5719 66.5536 26.9546 67.5828C25.9745 68.2199 24.7983 68.5139 23.8181 69.151C21.7107 70.4743 20.7796 73.3658 21.6617 75.6692C20.7796 76.5513 20.5835 78.0216 21.0736 79.1488C21.5637 80.276 22.5439 81.1581 23.6711 81.6972C25.7784 82.7754 28.3759 82.8244 30.5322 81.9422C30.0912 80.8641 30.3362 79.1978 31.2184 78.4626C31.6594 78.0706 32.1495 77.5805 32.1005 76.9924Z" fill="#002B66"/>
<path d="M53.8112 62.6328C53.1741 61.6526 53.4682 60.1824 54.3993 59.4963C54.1543 58.3691 54.9874 56.8498 56.1636 56.7028C56.8988 56.6048 57.7319 56.9968 57.9769 57.6829C58.124 58.075 58.0259 58.5651 57.8789 58.9572C57.3888 60.7215 56.4577 62.3387 55.1835 63.613C54.7424 63.3679 54.0563 63.0739 53.8112 62.6328Z" fill="#FF58D5"/>
<path d="M15.7806 120.757C16.8588 112.671 20.7305 104.927 26.6115 99.2422C28.1308 97.7719 29.7971 96.3997 31.1693 94.8314C32.5415 93.2632 33.6687 91.3028 33.8648 89.1955C33.9628 88.1173 33.8158 87.0391 33.2277 86.1569C32.6396 85.2748 31.5614 84.6377 30.5322 84.7847C27.2486 85.2258 24.5532 87.6762 22.3968 90.1756C15.7316 98.066 12.105 108.407 12.301 118.748C13.4772 119.777 14.3104 120.365 15.7806 120.757Z" fill="#FFB227"/>
<path opacity="0.2" d="M15.7806 120.757C16.8588 112.671 20.7305 104.927 26.6115 99.2422C28.1308 97.7719 29.7971 96.3997 31.1693 94.8314C32.5415 93.2632 33.6687 91.3028 33.8648 89.1955C33.9628 88.1173 33.8158 87.0391 33.2277 86.1569C32.6396 85.2748 31.5614 84.6377 30.5322 84.7847C27.2486 85.2258 24.5532 87.6762 22.3968 90.1756C15.7316 98.066 12.105 108.407 12.301 118.748C13.4772 119.777 14.3104 120.365 15.7806 120.757Z" fill="black"/>
<path d="M36.5113 134.332C35.4331 148.202 29.7482 161.679 20.4856 172.069C19.0643 171.628 17.7411 170.647 16.7119 169.569C18.2802 160.993 24.5043 153.543 25.1904 144.869C25.5334 140.262 24.3572 135.655 23.7691 131.049C23.181 126.442 21.8578 119.532 24.5533 115.758C28.621 117.865 33.5218 122.913 35.8742 126.834C36.6584 128.108 37.3445 129.529 37.5895 131C37.8346 132.47 36.6093 132.813 36.5113 134.332Z" fill="#005898"/>
<path opacity="0.3" d="M36.5113 134.332C35.4331 148.202 29.7482 161.679 20.4856 172.069C19.0643 171.628 17.7411 170.647 16.7119 169.569C18.2802 160.993 24.5043 153.543 25.1904 144.869C25.5334 140.262 24.3572 135.655 23.7691 131.049C23.181 126.442 21.8578 119.532 24.5533 115.758C28.621 117.865 33.5218 122.913 35.8742 126.834C36.6584 128.108 37.3445 129.529 37.5895 131C37.8346 132.47 36.6093 132.813 36.5113 134.332Z" fill="black"/>
<path opacity="0.2" d="M37.5405 130.951C37.2954 129.48 36.6093 128.059 35.8252 126.785C33.5218 122.962 28.768 118.061 24.7983 115.856C24.6023 115.954 24.4062 116.052 24.2592 116.101C22.1028 119.679 23.034 125.609 23.6221 129.97C23.7691 130.215 23.8671 130.412 24.0142 130.657C26.2195 134.479 29.111 137.91 31.0714 141.83C32.2966 144.281 33.2277 147.074 33.3258 149.819C35.0411 144.771 36.1192 139.527 36.5113 134.234C36.6093 132.813 37.8345 132.47 37.5405 130.951Z" fill="black"/>
<path d="M38.8146 115.66C43.4704 134.626 44.8917 154.327 43.0294 173.784H36.6583C34.894 166.678 33.2767 158.836 33.3747 151.485C33.4237 146.927 34.1588 142.32 33.0316 137.959C32.0025 134.038 29.552 130.705 27.5427 127.226C25.5334 123.746 23.8181 119.728 24.5532 115.758C29.258 114.582 34.1098 114.533 38.8146 115.66Z" fill="#005898"/>
<path opacity="0.2" d="M32.6886 114.876C34.7959 115.856 37.1484 116.787 39.3537 117.963C39.1577 117.179 39.0107 116.444 38.8146 115.66C34.1098 114.533 29.258 114.582 24.5532 115.709C23.8181 119.679 25.5334 123.697 27.5427 127.177C29.552 130.656 32.0025 134.038 33.0316 137.91C34.1588 142.271 33.4237 146.927 33.3747 151.436C33.3257 158.738 34.894 166.629 36.6583 173.735H39.5988C41.9512 153.935 39.5498 133.597 32.6886 114.876Z" fill="black"/>
<path opacity="0.2" d="M39.5988 119.09C39.5008 118.698 39.4518 118.355 39.3538 117.963C39.2558 117.62 39.2067 117.326 39.1087 116.983C37.6385 116.542 36.4623 115.856 34.649 115.415C33.5708 115.17 32.4926 114.974 31.4144 114.876C29.9932 114.876 28.6209 115.023 27.1997 115.219C25.9255 115.611 24.7493 116.297 23.7201 117.179C23.6711 117.326 23.6221 117.473 23.524 117.62C23.524 117.62 23.524 117.62 23.524 117.669C23.426 117.914 23.377 118.159 23.279 118.404V118.453C23.23 118.698 23.132 118.992 23.083 119.238V119.287C22.9359 120.12 22.8379 121.002 22.8379 121.884V121.933C22.8379 122.227 22.8379 122.521 22.8379 122.815C22.8379 122.864 22.8379 122.864 22.8379 122.913C22.8379 123.207 22.8379 123.501 22.8869 123.795V123.844C22.9359 124.432 22.9849 125.07 23.034 125.658V125.707C23.083 126.001 23.083 126.295 23.132 126.54C23.132 126.589 23.132 126.589 23.132 126.638C23.181 126.932 23.181 127.177 23.23 127.471C23.23 127.52 23.23 127.569 23.23 127.618C23.279 127.863 23.279 128.157 23.328 128.402C23.328 128.451 23.328 128.5 23.328 128.549C23.328 128.696 23.377 128.843 23.377 129.039C29.8461 127.863 35.7271 124.236 39.5988 119.09Z" fill="black"/>
<path d="M21.8577 123.011C27.2976 124.58 35.188 120.12 40.4809 118.159C40.0398 112.523 38.8146 106.691 38.3736 101.056C37.9325 94.9785 37.2954 88.5093 33.4727 83.7555C31.9044 81.8442 28.3758 82.9224 26.5135 84.5397C24.6512 86.1569 23.622 88.5093 22.8379 90.8617C19.8484 100.173 19.2603 113.7 21.8577 123.011Z" fill="#FFB227"/>
<path opacity="0.2" d="M38.3736 101.104C37.9815 95.7624 37.4424 90.0774 34.6979 85.5687C33.5707 85.8627 32.4435 86.3528 31.4144 86.9409C29.307 88.1661 27.5427 90.0774 25.4353 91.2046C29.111 95.3213 33.5217 98.8009 38.4226 101.349C38.3736 101.3 38.3736 101.202 38.3736 101.104Z" fill="black"/>
<path d="M28.964 76.7473C28.523 79.2468 28.2779 81.7462 28.2289 84.2946C29.4541 84.6377 30.8264 85.0788 32.0516 84.8337C32.4436 82.2853 32.5417 79.5898 32.3946 76.9924C31.2184 76.6003 30.2383 76.6003 28.964 76.7473Z" fill="#FF58D5"/>
<path opacity="0.2" d="M28.4249 80.9619C29.6011 81.795 30.9243 82.4811 32.2966 82.9222C32.4926 81.1089 32.4926 79.2466 32.4436 77.4333C32.2966 77.2372 32.1495 77.0412 31.9535 76.8452C31.9535 76.8452 31.9045 76.8452 31.9045 76.7962C30.9243 76.5511 30.0422 76.5511 28.964 76.6491C28.7189 78.1194 28.5719 79.5406 28.4249 80.9619Z" fill="black"/>
<path d="M29.111 71.8463C31.9045 73.3655 34.1589 75.963 35.2371 78.9525C34.6 80.1287 33.4728 81.0109 32.1986 81.4029C30.3362 81.991 28.1799 81.697 26.6116 80.4718C25.0433 79.2956 24.2592 77.1392 24.7493 75.2769C25.1904 73.4145 27.3467 70.9151 29.111 71.8463Z" fill="#FF58D5"/>
<path d="M56.0167 62.8287C54.4974 68.6608 52.6351 74.3947 49.7926 79.6877C46.9011 84.9806 42.9314 89.7344 37.8345 92.8709C36.2173 93.8511 34.502 94.6842 32.6396 94.9293C30.7773 95.1743 28.768 94.8313 27.3467 93.6551C25.9255 92.4789 24.1612 89.7834 25.2394 88.2641C26.6116 86.3528 29.013 85.5687 31.1694 84.7355C41.3141 80.7168 49.5966 72.1894 53.3212 61.8976L56.0167 62.8287Z" fill="#FFB227"/>
<path d="M32.0025 72.7776C32.0516 73.0226 31.9535 73.3167 31.7575 73.5127C31.5615 73.7088 31.3654 73.8558 31.1204 74.0028C29.8952 74.7379 28.4249 75.179 26.9547 75.228C27.4448 75.9141 27.5428 76.9433 27.3467 77.7274C27.7878 78.1195 28.1799 78.5606 28.621 78.9527C28.2289 78.7076 27.5918 78.5606 27.1507 78.3646C26.9057 78.2665 26.5626 78.1685 26.3176 78.3646C26.1705 78.5116 26.1215 78.7566 26.1705 78.9527C26.2195 79.1487 26.3666 79.2957 26.5626 79.4427C27.0037 79.8838 27.5918 80.1779 28.2289 80.3249C28.4249 80.913 28.3759 81.5501 28.2779 82.1872C26.6116 81.7951 24.5042 80.962 23.6221 79.4917C23.034 78.4626 23.034 77.2374 23.083 76.0612C23.23 74.3949 23.5731 72.6306 24.6023 71.3073C25.6314 69.9841 27.4448 69.151 29.062 69.6901C30.3363 70.2291 31.7575 71.4544 32.0025 72.7776Z" fill="#002B66"/>
<path d="M42.7353 175.205H36.5112C35.9231 175.205 35.433 174.715 35.433 174.127V173.441C35.433 172.853 35.9231 172.363 36.5112 172.363H42.7353C43.3234 172.363 43.8135 172.853 43.8135 173.441V174.176C43.8135 174.715 43.3234 175.205 42.7353 175.205Z" fill="#005898"/>
<path d="M42.7353 175.205H36.5112C35.9231 175.205 35.433 174.715 35.433 174.127V173.441C35.433 172.853 35.9231 172.363 36.5112 172.363H42.7353C43.3234 172.363 43.8135 172.853 43.8135 173.441V174.176C43.8135 174.715 43.3234 175.205 42.7353 175.205Z" fill="#005898"/>
<path d="M20.6325 173.735L15.2906 170.549C14.7515 170.255 14.6045 169.569 14.8985 169.079L15.2416 168.442C15.5356 167.903 16.2218 167.756 16.7118 168.05L22.0538 171.236C22.5929 171.53 22.7399 172.216 22.4458 172.706L22.1028 173.343C21.8087 173.833 21.1716 174.029 20.6325 173.735Z" fill="#005898"/>
<path d="M20.6325 173.735L15.2906 170.549C14.7515 170.255 14.6045 169.569 14.8985 169.079L15.2416 168.442C15.5356 167.903 16.2218 167.756 16.7118 168.05L22.0538 171.236C22.5929 171.53 22.7399 172.216 22.4458 172.706L22.1028 173.343C21.8087 173.833 21.1716 174.029 20.6325 173.735Z" fill="#005898"/>
<path d="M37.4914 178.391L35.433 181.821H48.2732L41.8041 178.391H37.4914Z" fill="#005898"/>
<path d="M18.6233 179.126L17.055 176.725L14.4085 175.156L11.174 176.676L17.349 180.253L17.9371 180.694L21.7108 181.086L18.6233 179.126Z" fill="#005898"/>
<path opacity="0.2" d="M119.287 176.724H78.1685C77.4333 176.724 76.7962 176.136 76.7962 175.352C76.7962 174.617 77.3843 173.98 78.1685 173.98H119.287C120.022 173.98 120.659 174.568 120.659 175.352C120.659 176.087 120.022 176.724 119.287 176.724Z" fill="black"/>
<g opacity="0.2">
<path opacity="0.2" d="M78.2176 15.5847C78.2176 16.4178 77.5314 17.153 76.6493 17.153C75.7671 17.153 75.081 16.4668 75.081 15.5847C75.081 14.7515 75.7671 14.0164 76.6493 14.0164C77.5314 14.0164 78.2176 14.7025 78.2176 15.5847Z" fill="black"/>
<path opacity="0.2" d="M30.8263 9.26261C30.8263 9.8017 30.3852 10.2428 29.8461 10.2428C29.307 10.2428 28.866 9.8017 28.866 9.26261C28.866 8.72352 29.307 8.28244 29.8461 8.28244C30.3852 8.23343 30.8263 8.72352 30.8263 9.26261Z" fill="black"/>
<path opacity="0.2" d="M29.7482 44.4016C29.7482 44.9897 29.2581 45.4798 28.67 45.4798C28.0819 45.4798 27.5918 44.9897 27.5918 44.4016C27.5918 43.8135 28.0819 43.3234 28.67 43.3234C29.2581 43.2744 29.7482 43.7645 29.7482 44.4016Z" fill="black"/>
<path opacity="0.2" d="M4.31274 67.4355C4.31274 68.6117 3.33258 69.5919 2.15637 69.5919C0.98017 69.5919 0 68.6117 0 67.4355C0 66.2593 0.98017 65.2792 2.15637 65.2792C3.33258 65.2792 4.31274 66.2103 4.31274 67.4355Z" fill="black"/>
<path opacity="0.2" d="M133.548 15.4868C133.548 16.1239 133.058 16.614 132.421 16.614C131.784 16.614 131.294 16.1239 131.294 15.4868C131.294 14.8497 131.784 14.3596 132.421 14.3596C133.058 14.3596 133.548 14.8987 133.548 15.4868Z" fill="black"/>
<path opacity="0.2" d="M169.422 16.2709C169.716 17.153 170.402 17.8391 171.236 18.0842C170.353 18.3782 169.667 19.0644 169.422 19.8975C169.128 19.0153 168.442 18.3292 167.609 18.0842C168.491 17.8391 169.177 17.153 169.422 16.2709Z" fill="black"/>
<path opacity="0.2" d="M148.054 26.0726C148.349 26.9547 149.035 27.6408 149.868 27.8859C148.986 28.1799 148.3 28.866 148.054 29.6992C147.76 28.817 147.074 28.1309 146.241 27.8859C147.074 27.6408 147.76 26.9547 148.054 26.0726Z" fill="black"/>
<path opacity="0.2" d="M99.8303 0.245117C100.124 1.12727 100.81 1.81339 101.644 2.05843C100.761 2.35248 100.075 3.0386 99.8303 3.87174C99.5362 2.98959 98.8501 2.30347 98.017 2.05843C98.8991 1.76438 99.5852 1.07826 99.8303 0.245117Z" fill="black"/>
<path opacity="0.2" d="M4.31276 18.8193C4.60681 19.7014 5.29293 20.3875 6.12608 20.6326C5.24392 20.9266 4.55781 21.6128 4.31276 22.4459C4.01871 21.5637 3.33259 20.8776 2.49945 20.6326C3.3816 20.3875 4.06772 19.7014 4.31276 18.8193Z" fill="black"/>
<path opacity="0.2" d="M55.5755 13.8694C55.8696 14.7515 56.5557 15.4377 57.3888 15.6827C56.5067 15.9767 55.8206 16.6629 55.5755 17.496C55.2815 16.6139 54.5954 15.9277 53.7622 15.6827C54.6444 15.4377 55.3305 14.7515 55.5755 13.8694Z" fill="black"/>
<path opacity="0.2" d="M1.86232 105.123C2.15638 106.005 2.84249 106.691 3.67564 106.936C2.79349 107.23 2.10737 107.917 1.86232 108.75C1.56827 107.868 0.882155 107.181 0.0490112 106.936C0.931163 106.691 1.61728 106.005 1.86232 105.123Z" fill="black"/>
</g>
<defs>
<linearGradient id="paint0_linear" x1="144.085" y1="110.663" x2="171.508" y2="110.663" gradientUnits="userSpaceOnUse">
<stop stop-color="#484BA3"/>
<stop offset="1" stop-color="#6468CC"/>
</linearGradient>
<linearGradient id="paint1_linear" x1="162.793" y1="104.497" x2="195.283" y2="104.497" gradientUnits="userSpaceOnUse">
<stop stop-color="#484BA3"/>
<stop offset="1" stop-color="#6468CC"/>
</linearGradient>
<linearGradient id="paint2_linear" x1="165.395" y1="157.952" x2="165.395" y2="33.6374" gradientUnits="userSpaceOnUse">
<stop stop-color="#484BA3"/>
<stop offset="1" stop-color="#6468CC"/>
</linearGradient>
</defs>
</svg>
