<svg width="100" height="104" viewBox="0 0 100 104" fill="none" xmlns="http://www.w3.org/2000/svg">
<g opacity="0.11" filter="url(#filter0_f)">
<path d="M10.6149 101.185C15.2669 101.185 19.0382 100.421 19.0382 99.4782C19.0382 98.5355 15.2669 97.7713 10.6149 97.7713C5.96287 97.7713 2.19165 98.5355 2.19165 99.4782C2.19165 100.421 5.96287 101.185 10.6149 101.185Z" fill="black"/>
</g>
<path d="M8.57495 96.0923V97.9934L9.6851 98.0073V95.8842L8.57495 96.0923Z" fill="#EDD3B8"/>
<path d="M13.6262 95.8149L13.8344 97.8687L15.0417 97.7438L14.7919 95.468L13.6262 95.8149Z" fill="#EDD3B8"/>
<path d="M15.0276 97.6743L13.9452 97.9102L13.5983 98.2155L13.5706 99.0203L16.3737 99.5338C16.6512 99.2007 16.5402 98.715 16.1516 98.5346L16.0268 98.4791L15.0276 97.6743Z" fill="#3B455A"/>
<path d="M8.60274 97.8685H9.7129L10.1014 98.382L10.0598 99.284L7.21505 99.4644L7.10403 99.1868C6.93751 98.826 7.17342 98.4097 7.57585 98.3542L7.64523 98.3403L8.60274 97.8685Z" fill="#3B455A"/>
<path d="M5.30029 78.6491L6.35493 88.0576L6.77124 97.2579L10.3376 97.2718L11.7669 72.0992L6.02189 72.1824L5.30029 78.6491Z" fill="#3B455A"/>
<path d="M15.9439 77.4001L16.721 86.5727L15.7357 97.244L12.2804 97.1469L11.7808 86.8087L11.1841 78.4409L10.5874 72.2102L14.7366 72.0992L15.9439 77.4001Z" fill="#3B455A"/>
<path d="M12.9463 57.8754L8.93593 58.0142L6.79889 59.9292L5.48059 66.9648L4.74512 72.9873L14.1536 73.029L16.4988 72.4323L15.7634 66.1183L15.4026 59.1521L12.9463 57.8754Z" fill="#F7F7F7"/>
<path d="M12.3914 51.6167C11.9473 51.1449 11.2951 50.8673 10.6429 50.8535C8.38092 50.8257 8.15889 53.0183 8.54745 54.739C8.71397 55.4883 9.07477 56.2377 9.69923 56.7095C9.86576 56.8344 10.06 56.9315 10.2543 57.0009C10.2127 57.1119 10.1988 58.5274 10.0878 58.5135C10.6151 58.5967 11.1563 58.5412 11.6559 58.347C11.6559 57.9307 11.7114 57.4033 11.6836 56.9454C11.753 56.9177 11.8085 56.876 11.864 56.8344C12.4746 56.4042 12.6966 55.6132 12.8215 54.8778C12.9881 53.948 13.113 52.3799 12.3914 51.6167Z" fill="#EAC5B0"/>
<path d="M12.0306 52.6437C12.4608 53.1571 12.4885 53.8787 12.4746 54.5448C12.4469 55.4329 12.3498 56.3349 11.9473 57.112C12.5024 56.6957 13.0436 56.2794 13.5987 55.8631C13.8068 55.7105 14.015 55.5439 14.1399 55.3219C14.2648 55.086 14.2925 54.8223 14.3064 54.5587C14.4035 53.171 14.3341 51.6584 13.4599 50.5621C12.9048 49.8683 12.0583 49.4242 11.1841 49.3687C10.4625 49.3132 7.4651 50.2291 8.64464 51.3531C8.99156 51.6723 9.82417 51.7278 10.2682 51.8388C10.8927 51.9915 11.5865 52.1163 12.0306 52.6437Z" fill="#1A3151"/>
<path d="M9.40784 52.3255C9.32458 52.3255 9.22744 52.3394 9.15806 52.381C9.06092 52.4365 9.00541 52.5198 8.96378 52.6169C8.24218 53.9213 8.20055 55.5866 8.88052 56.9187C7.72874 56.5579 6.88225 55.4756 6.64634 54.296C6.42431 53.1165 6.77123 51.8676 7.49283 50.8962C8.15892 49.9942 9.24132 49.2865 10.3515 49.4114C11.0176 49.4946 11.642 49.8693 12.0167 50.4244C13.4044 52.5475 10.7539 52.2561 9.40784 52.3255Z" fill="#1A3151"/>
<path d="M4.71731 48.6195C4.73119 48.5779 4.74506 48.5501 4.77282 48.5224C4.99485 48.2448 5.39727 48.0228 5.70257 47.8285C5.93847 47.6897 6.20213 47.9118 6.38253 48.0367C6.43804 48.0783 6.49355 48.1199 6.49355 48.1754C6.49355 48.2171 6.49355 48.2448 6.47967 48.2865C6.39641 48.4807 6.17438 48.5362 6.04949 48.675C5.99398 48.7444 5.92459 48.8276 5.93847 48.9248C5.9801 49.1468 6.17438 48.9525 6.28539 48.897C6.50742 49.1052 6.28539 49.244 6.105 49.3827C5.88297 49.5492 5.66094 49.688 5.42503 49.8268C5.24463 49.9239 5.16137 49.9933 4.98097 49.8684C4.93934 49.8407 4.50916 49.577 4.52303 49.5492C4.57854 49.3411 4.62017 49.1329 4.67568 48.9109C4.67568 48.8138 4.67568 48.7028 4.71731 48.6195Z" fill="#EAC5B0"/>
<path d="M11.0313 60.3455C11.0452 60.29 11.0452 60.2206 11.0452 60.1512C11.0174 58.3195 8.35305 57.9587 7.0625 57.6534C6.03561 57.4036 5.16137 57.0289 4.38426 56.3351C4.56466 54.1148 4.93934 51.8945 5.53604 49.7574C5.13361 49.4938 4.71731 49.2301 4.31488 48.9803C4.301 48.9664 2.83005 52.5328 2.71904 52.8659C2.23335 54.198 1.65052 55.5302 1.22034 56.8901C1.03994 57.4868 1.69215 57.9725 2.0807 58.4166C2.53864 58.9578 3.01045 59.499 3.49614 60.0263C4.45365 61.081 5.45278 62.1078 6.49355 63.107C6.50742 63.1209 6.53518 63.1486 6.54905 63.1625C6.7017 63.3151 6.86822 63.4539 7.0625 63.5233C7.43717 63.6482 7.8396 63.44 8.17265 63.2319C8.78323 62.8572 9.36606 62.427 9.92113 61.9691C10.4346 61.5389 10.948 60.9977 11.0313 60.3455Z" fill="#F7F7F7"/>
<path d="M15.8742 49.6188C15.8325 49.5772 15.7631 49.5217 15.7076 49.48C15.5827 49.3968 15.4162 49.369 15.2775 49.2858C15.1387 49.2025 14.986 49.1054 15.0138 48.925C15.0415 48.7446 15.3052 48.8417 15.4301 48.8695C15.5689 48.8972 15.6938 48.8972 15.8048 48.7862C15.9158 48.6752 15.9019 48.467 15.8048 48.3283C15.7076 48.2034 15.5689 48.1201 15.4579 48.0091C15.8048 48.0091 16.1239 48.023 16.4015 48.245C16.5403 48.356 16.6096 48.5087 16.6929 48.6613C16.9566 49.1609 17.248 49.6466 17.5394 50.1184C17.3035 50.16 17.0815 50.2155 16.8594 50.2988C16.6513 50.382 16.5819 50.3959 16.4154 50.2294C16.235 50.0629 16.0962 49.8547 15.9158 49.6743C15.9158 49.6604 15.9019 49.6466 15.8742 49.6188Z" fill="#EAC5B0"/>
<path d="M14.9029 63.2736C14.3062 61.761 13.7789 60.179 13.196 58.7081C14.3478 57.7644 16.1657 58.1807 16.6653 56.349C17.1787 54.5172 16.915 52.1304 16.0824 50.2154C16.5959 49.9934 17.1093 49.8407 17.6644 49.6603C18.9966 52.0194 19.8986 54.4062 19.5933 57.1955C19.288 59.9709 16.5404 61.2753 14.9029 63.2736Z" fill="#F7F7F7"/>
<path d="M7.39551 55.1555V56.7236C7.39551 57.2371 7.79794 57.6395 8.29751 57.6395H12.3218C12.8214 57.6395 13.2238 57.2232 13.2238 56.7236V55.1555H7.39551Z" fill="#3B455A"/>
<path d="M20.0789 34.1043C20.0789 28.5951 15.7077 24.1129 10.3096 24.1129C4.9115 24.1129 0.540283 28.5813 0.540283 34.1043C0.540283 36.0609 1.09536 37.8926 2.05286 39.433C4.77273 44.0956 5.39719 47.995 5.39719 47.995H10.3096H15.222C15.222 47.995 15.8465 44.0956 18.5663 39.433C19.5238 37.8926 20.0789 36.0748 20.0789 34.1043Z" fill="#8CABEF"/>
<path d="M5.28638 47.9951V54.656C5.28638 54.9335 5.50841 55.1556 5.77207 55.1556H14.8753C15.1389 55.1556 15.361 54.9335 15.361 54.656V47.9951H5.28638Z" fill="#9EA6AD"/>
<path d="M19.9124 32.2447C17.4285 37.1987 12.6132 44.8588 5.39722 47.9672C5.39722 47.9811 5.39722 47.9949 5.39722 47.9949H10.3096H15.222C15.222 47.9949 15.8465 44.0955 18.5664 39.4329C19.5239 37.8926 20.0789 36.0608 20.0789 34.1042C20.0789 33.4659 20.0234 32.8414 19.9124 32.2447Z" fill="#799FE2"/>
<path d="M2.13614 34.9368C2.13614 30.1215 5.95228 26.2221 10.6704 26.2221C13.418 26.2221 15.8742 27.5543 17.4285 29.6219C15.9575 27.0131 13.196 25.2507 10.0321 25.2507C5.32782 25.2507 1.4978 29.1501 1.4978 33.9654C1.4978 35.9637 2.16389 37.8093 3.26017 39.2802C2.55245 38.0036 2.13614 36.5187 2.13614 34.9368Z" fill="#D6E1F2"/>
<path d="M8.40852 47.9952L7.22899 35.2146L8.88034 36.6161L10.3097 34.2848L11.7806 36.5467L13.3903 35.2007L12.2108 47.9952H12.7104L14.0148 34.035L11.8916 35.7835L10.3097 33.3412L8.75545 35.8529L6.61841 34.0212L7.90896 47.9952H8.40852Z" fill="#F6F7F7"/>
<path d="M7.78418 46.7182L7.90907 47.9949H8.40863L8.25599 46.4268C8.10334 46.524 7.9507 46.6211 7.78418 46.7182Z" fill="#EDECED"/>
<path d="M12.6966 42.7217L12.2109 47.995H12.7105L13.2517 42.1389C13.0713 42.3332 12.8909 42.5275 12.6966 42.7217Z" fill="#EDECED"/>
<path d="M15.3471 49.6464H5.28638V50.8814H15.3471V49.6464Z" fill="#3B455A"/>
<path d="M15.3471 52.269H5.28638V53.5041H15.3471V52.269Z" fill="#3B455A"/>
<path opacity="0.11" d="M15.1804 47.9951C14.7224 48.5918 14.2506 49.1469 13.7788 49.6465C13.3625 50.0905 12.9462 50.5068 12.5299 50.8815C11.9471 51.4088 11.3642 51.8806 10.7953 52.2831C10.1014 52.7688 9.42148 53.1851 8.76927 53.5181C7.43709 54.1981 6.24368 54.5866 5.30005 54.7948C5.35556 55.0168 5.53596 55.1695 5.75799 55.1695H14.8612C15.1249 55.1695 15.3469 54.9474 15.3469 54.6699V53.5181V52.2831V50.8815V49.6465V47.9951H15.1804Z" fill="black"/>
<g opacity="0.11" filter="url(#filter1_f)">
<path d="M36.7589 101.185C41.411 101.185 45.1822 100.421 45.1822 99.4782C45.1822 98.5355 41.411 97.7713 36.7589 97.7713C32.1069 97.7713 28.3357 98.5355 28.3357 99.4782C28.3357 100.421 32.1069 101.185 36.7589 101.185Z" fill="black"/>
</g>
<path d="M33.817 99.0898L33.6505 99.9224L31.8881 100.491L31.2637 99.5199L32.2212 98.8122L33.9697 98.2571L33.817 99.0898Z" fill="#3B455A"/>
<path d="M38.7156 98.1462L38.785 99.0204L40.4918 99.742L41.2412 98.7984L40.3531 98.0074L38.7156 98.1462Z" fill="#3B455A"/>
<path d="M31.2635 73.5424L30.5142 76.2345L30.9027 77.4695H30.8611L31.319 84.5745L32.3043 98.8954L33.9556 98.8399L36.9114 82.1044L37.1196 82.8815L38.7154 98.3403L40.228 98.2016L42.5732 78.0246V73.9309L31.2635 73.5424Z" fill="#3B455A"/>
<path d="M37.9661 54.8641L36.0372 54.6976C31.7215 54.3368 31.4162 60.3316 30.8611 63.3151C30.0563 67.6308 29.6955 72.0576 30.1118 76.4426C31.4717 75.7072 33.3451 75.8598 34.8854 75.8043C37.7302 75.7072 40.6582 75.6239 43.4058 76.068C43.9193 76.1512 43.6972 72.4739 43.5862 71.7939C43.3781 70.4062 43.1699 69.0185 42.9479 67.6308C42.5732 65.1191 42.1847 62.6074 41.81 60.0957C41.7961 60.0263 41.7822 59.943 41.7822 59.8737C41.7406 59.61 41.6573 59.3463 41.5186 59.1104L39.7285 55.9881C39.3538 55.3498 38.7016 54.9335 37.9661 54.8641Z" fill="#F7F7F7"/>
<path d="M39.7422 49.369C38.4517 49.7714 36.9946 48.9804 35.7596 49.5633C35.0935 49.8686 34.4829 50.6179 34.5384 51.3673C34.5939 52.1582 34.8298 53.0602 35.3155 53.6986C35.7457 54.2675 35.8845 54.4896 35.6763 55.1695C35.9539 55.3777 36.2175 55.5858 36.4951 55.794C36.5506 55.8356 36.62 55.8911 36.7032 55.905C36.8142 55.9328 36.9252 55.8911 37.0224 55.8495C37.2167 55.7801 37.4248 55.6969 37.6191 55.6275C37.8272 55.5442 37.7995 54.8226 37.8272 54.6283C37.8411 54.5451 37.855 54.4479 37.8966 54.3786C37.9521 54.2953 38.0493 54.2398 38.1325 54.1843C39.1872 53.5321 40.0337 52.2554 40.0198 50.9926C40.0337 50.4236 39.8949 49.8824 39.7422 49.369Z" fill="#EAC5B0"/>
<path d="M36.5922 49.5354C36.6478 49.5354 36.6894 49.5216 36.7449 49.5216C37.4665 49.4799 38.202 49.5909 38.8819 49.8546C39.3399 50.035 39.8394 50.3542 39.8672 50.8954C39.8811 51.1452 39.8256 51.3811 39.7562 51.6308C39.6729 51.9361 39.5896 52.2276 39.5203 52.5328C39.5064 52.5884 39.4925 52.6439 39.5064 52.6994C39.548 52.8659 39.7978 52.8659 39.9366 52.7549C40.4223 52.3663 41.0606 51.728 41.3243 51.1729C41.5463 50.7288 41.5047 50.1183 41.8238 49.7297C42.032 49.4661 42.1985 49.0497 42.5038 48.911C42.9062 48.7167 43.3364 48.4947 43.6139 48.1478C43.9053 47.8008 44.0164 47.2735 43.7805 46.885C43.5446 46.5242 43.0727 46.3993 42.6426 46.3854C42.2124 46.3715 41.7544 46.4131 41.352 46.2466C41.1716 46.1772 41.019 46.0801 40.8247 46.0385C40.228 45.9136 39.2844 46.1078 38.7432 46.3854C38.2297 46.649 37.744 46.9821 37.1751 47.0792C36.7171 47.1486 36.2453 47.0515 35.7874 47.0931C35.0242 47.1625 34.3026 47.6065 33.8863 48.2449C33.4144 48.9665 33.2202 49.9656 33.6504 50.7427C33.8585 51.1313 34.0112 51.5337 34.1777 51.95C34.2332 52.0888 34.6079 52.6577 34.6911 52.1859C34.7605 51.8112 34.705 51.4366 34.7605 51.0619C34.8993 50.1321 35.7458 49.6326 36.5922 49.5354Z" fill="#3B455A"/>
<path d="M32.013 48.0227L31.0693 47.6203L31.5689 45.9689L32.6374 45.7885L33.248 46.4824L32.6097 46.9958L32.7762 47.0652L33.0398 46.968L33.137 47.2317L32.013 48.0227Z" fill="#EAC5B0"/>
<path d="M32.9705 60.928C33.8308 59.2073 34.1084 57.209 33.7476 55.3357C32.679 55.2108 31.6522 54.7806 30.8057 54.1145C30.7502 54.0729 30.7085 54.0312 30.6669 53.9757C30.5975 53.8647 30.6391 53.7121 30.6808 53.5872C31.2914 51.6999 31.9852 49.8265 32.4848 47.9254L31.0693 47.2316C30.6253 48.0225 30.1812 48.8274 29.7371 49.6184C29.2098 50.562 28.6964 51.5056 28.1691 52.4493C27.9748 52.7962 27.7805 53.1431 27.5862 53.49C27.5168 53.6149 27.4336 53.7398 27.3642 53.8647C27.0034 54.503 27.4613 55.5854 27.6834 56.2238C28.0025 57.1258 28.4327 58 28.8629 58.8604C29.3347 59.8179 29.8204 60.7893 30.2922 61.7468C30.4865 62.1492 30.7502 62.5933 31.1942 62.6626C31.9852 62.7875 32.5403 61.719 32.8456 61.1501C32.9011 61.0668 32.9427 60.9974 32.9705 60.928Z" fill="#F7F7F7"/>
<path d="M42.2125 48.7999L43.2116 48.5085L42.9341 46.8155L41.9072 46.4963L41.1995 47.1069L41.7684 47.6897L41.588 47.7453L41.3521 47.6065L41.2133 47.8563L42.2125 48.7999Z" fill="#EAC5B0"/>
<path d="M39.5343 61.4557C38.9099 59.6378 38.1189 57.2371 38.7295 55.4192C39.798 55.4331 41.6575 55.5441 42.5872 54.989C42.6427 54.9613 42.6982 54.9197 42.7399 54.8642C42.8231 54.7531 42.7954 54.6005 42.7815 54.4756C42.4346 52.5328 41.9905 50.5762 41.7546 48.6196L43.2533 48.12C43.5864 48.9665 43.9194 49.813 44.2524 50.6595C44.641 51.6586 45.0434 52.6716 45.432 53.6707C45.5707 54.0454 45.7234 54.4062 45.8622 54.7809C45.9177 54.9197 45.9732 55.0446 46.0287 55.1833C46.3062 55.8633 45.7095 56.8763 45.3904 57.473C44.9463 58.3334 44.4051 59.1244 43.8639 59.9292C43.2672 60.8173 42.6566 61.7055 42.0599 62.5936C41.8101 62.9544 41.491 63.3707 41.0469 63.3707C40.242 63.3846 39.8396 62.2467 39.6176 61.6499C39.5759 61.5944 39.5482 61.5251 39.5343 61.4557Z" fill="#F7F7F7"/>
<path d="M34.178 55.1555V56.7236C34.178 57.2371 34.5804 57.6395 35.08 57.6395H39.1043C39.6038 57.6395 40.0063 57.2232 40.0063 56.7236V55.1555H34.178Z" fill="#3B455A"/>
<path d="M46.8614 34.1043C46.8614 28.5951 42.4902 24.1129 37.0921 24.1129C31.694 24.1129 27.3228 28.5813 27.3228 34.1043C27.3228 36.0609 27.8778 37.8926 28.8353 39.433C31.5552 44.0956 32.1797 47.995 32.1797 47.995H37.0921H42.0045C42.0045 47.995 42.629 44.0956 45.3488 39.433C46.3063 37.8926 46.8614 36.0748 46.8614 34.1043Z" fill="#8CABEF"/>
<path d="M32.0686 47.9951V54.656C32.0686 54.9335 32.2906 55.1556 32.5543 55.1556H41.6575C41.9212 55.1556 42.1432 54.9335 42.1432 54.656V47.9951H32.0686Z" fill="#9EA6AD"/>
<path d="M46.6949 32.2447C44.2109 37.1987 39.3957 44.8588 32.1797 47.9672C32.1797 47.9811 32.1797 47.9949 32.1797 47.9949H37.0921H42.0045C42.0045 47.9949 42.629 44.0955 45.3489 39.4329C46.3064 37.8926 46.8614 36.0608 46.8614 34.1042C46.8614 33.4659 46.8059 32.8414 46.6949 32.2447Z" fill="#799FE2"/>
<path d="M28.9186 34.9368C28.9186 30.1215 32.7347 26.2221 37.4529 26.2221C40.2005 26.2221 42.6567 27.5543 44.2109 29.6219C42.74 27.0131 39.9785 25.2507 36.8145 25.2507C32.1103 25.2507 28.2803 29.1501 28.2803 33.9654C28.2803 35.9637 28.9464 37.8093 30.0426 39.2802C29.3349 38.0036 28.9186 36.5187 28.9186 34.9368Z" fill="#D6E1F2"/>
<path d="M35.1908 47.9952L34.0112 35.2146L35.6626 36.6161L37.0919 34.2848L38.5628 36.5467L40.1726 35.2007L38.993 47.9952H39.4926L40.797 34.035L38.6738 35.7835L37.0919 33.3412L35.5377 35.8529L33.4006 34.0212L34.6912 47.9952H35.1908Z" fill="#F6F7F7"/>
<path d="M34.5664 46.7182L34.6913 47.9949H35.1909L35.0382 46.4268C34.8856 46.524 34.7329 46.6211 34.5664 46.7182Z" fill="#EDECED"/>
<path d="M39.4789 42.7217L38.9932 47.995H39.4927L40.0339 42.1389C39.8535 42.3332 39.6731 42.5275 39.4789 42.7217Z" fill="#EDECED"/>
<path d="M42.1293 49.6464H32.0686V50.8814H42.1293V49.6464Z" fill="#3B455A"/>
<path d="M42.1293 52.269H32.0686V53.5041H42.1293V52.269Z" fill="#3B455A"/>
<path opacity="0.11" d="M41.9629 47.9951C41.5049 48.5918 41.0331 49.1469 40.5613 49.6465C40.145 50.0905 39.7287 50.5068 39.3124 50.8815C38.7295 51.4088 38.1467 51.8806 37.5778 52.2831C36.8839 52.7688 36.204 53.1851 35.5517 53.5181C34.2196 54.1981 33.0261 54.5866 32.0825 54.7948C32.138 55.0168 32.3184 55.1695 32.5405 55.1695H41.6437C41.9073 55.1695 42.1294 54.9474 42.1294 54.6699V53.5181V52.2831V50.8815V49.6465V47.9951H41.9629Z" fill="black"/>
<g opacity="0.11" filter="url(#filter2_f)">
<path d="M89.0468 101.185C93.6988 101.185 97.4701 100.421 97.4701 99.4782C97.4701 98.5355 93.6988 97.7713 89.0468 97.7713C84.3948 97.7713 80.6235 98.5355 80.6235 99.4782C80.6235 100.421 84.3948 101.185 89.0468 101.185Z" fill="black"/>
</g>
<path d="M91.3367 98.271V99.0481L93.3211 100.033L94.3202 99.0481L93.3211 98.0628H93.1962L93.1684 98.271H91.3367Z" fill="#3B455A"/>
<path d="M86.4521 98.0628H86.3134L85.3281 99.0481L86.3134 100.033L88.2978 99.0481V98.271H86.4799L86.4521 98.0628Z" fill="#3B455A"/>
<path d="M88.6168 52.3386C87.5622 52.297 86.2022 52.8937 85.5361 53.7263C85.0366 54.3369 84.7452 55.0862 84.4676 55.8217C83.6628 57.8893 83.302 59.8044 82.8995 61.983C82.6498 63.3707 82.4139 64.7584 82.2196 66.1322C82.0114 67.6587 81.8727 69.1851 81.831 70.6977C81.831 70.8642 81.7894 71.336 81.7755 71.8911C81.7339 73.0568 81.7616 74.6249 82.2473 74.6804C82.3445 74.6942 82.4277 74.6526 82.511 74.611C83.1355 74.3057 83.635 73.9033 84.1762 73.5563C84.3705 73.4314 84.5648 73.3204 84.7868 73.2094C85.217 73.0013 85.6888 72.8347 86.1606 72.7098C85.3558 72.7515 85.2586 72.5988 85.2586 72.5988C85.2586 72.5988 85.9802 69.6569 86.4937 67.1036C86.7573 65.7853 86.9655 64.5641 86.9793 63.9119C87.0349 61.9275 87.2846 55.3776 87.2846 55.3776L88.5058 52.8659H88.7278C88.714 52.8659 88.7001 52.8659 88.6862 52.8659C88.714 52.8798 88.6307 52.3802 88.6168 52.3386Z" fill="#F7F7F7"/>
<path d="M97.6508 73.3759C97.5259 72.0714 97.401 70.7809 97.2345 69.4903C96.9153 66.9092 96.499 64.3281 95.7635 61.8303C95.486 60.8728 95.1668 59.9292 94.8477 58.9855C94.4591 57.8338 94.0706 56.6959 93.682 55.5441C93.1963 54.1148 92.3915 53.1156 90.9621 52.6161C90.7124 52.5328 90.4348 52.4634 90.1573 52.4079C90.1573 52.4357 90.1434 52.4634 90.1434 52.505C90.1295 52.6438 90.0879 52.7965 90.0046 52.8936L90.9344 52.9075C90.9344 52.9075 93.571 62.2605 93.6681 63.8841C93.7098 64.4947 93.8346 65.8407 93.9595 67.2423C94.1816 69.4765 94.4313 71.891 94.4313 71.891C94.4313 71.891 93.2657 71.9188 91.6005 72.0437C91.7254 72.0437 91.8503 72.0437 91.9752 72.0298C93.1408 72.0159 94.3481 72.5155 95.4721 72.8485C95.5554 72.8763 95.6386 72.8902 95.708 72.9179C96.166 73.0428 96.5268 73.3759 96.9153 73.6395C97.4843 74.0142 97.7202 74.1668 97.6508 73.3759Z" fill="#F7F7F7"/>
<path d="M95.4719 72.8346C94.3479 72.5155 93.1406 72.002 91.975 72.0159C91.8501 72.0159 91.7252 72.0159 91.6003 72.0298C91.5032 72.0437 91.3922 72.0437 91.2811 72.0575C90.504 72.1269 89.6159 72.2102 88.7 72.3212C88.6584 72.3212 88.6168 72.3351 88.5613 72.3351C87.3817 72.5849 86.6324 72.6959 86.1328 72.7097C85.661 72.8346 85.1892 73.0012 84.759 73.2093C84.537 73.3203 84.3427 73.4313 84.1484 73.5562V74.8329L86.3826 98.3265H88.2144V98.5485H88.2282L90.2404 82.1599L90.2543 82.0766L91.3644 98.5485H91.3783V98.3265H93.2239L95.5552 80.1894L95.4719 72.8346Z" fill="#3B455A"/>
<path d="M93.9871 67.2284C93.8483 65.813 93.7234 64.4808 93.6957 63.8702C93.5708 61.8997 92.8353 59.8737 92.3357 57.9725C92.0443 56.8485 91.739 55.7245 91.4199 54.6005C91.3088 54.2258 91.2811 53.5458 91.0729 53.2405C90.7399 52.7409 90.0183 52.963 89.5326 52.9769C88.8804 53.0046 88.1449 52.6022 87.576 53.1295C87.2013 53.4764 87.2846 54.1148 87.2568 54.5727C87.2152 55.6135 87.1735 56.6403 87.1458 57.6811C87.0903 59.7626 87.0348 61.8303 86.9515 63.9118C86.9376 64.5779 86.7295 65.7852 86.4658 67.1035C86.2022 68.4079 85.9246 69.6985 85.6193 70.989C85.5222 71.4053 85.4251 71.8355 85.314 72.2518C85.2724 72.4461 84.6341 73.1261 84.8006 73.251C84.8977 73.3204 85.4667 73.14 85.5916 73.1122C85.883 73.0567 86.1605 72.9873 86.4519 72.9179C87.576 72.6543 88.7 72.3767 89.8518 72.2796C90.5179 72.2241 91.184 72.2518 91.85 72.2796C92.3912 72.3073 92.9324 72.3212 93.4598 72.4322C94.0842 72.5571 94.7226 72.793 95.347 72.6681C95.3331 72.3767 95.0972 72.1686 94.9168 71.9465C94.3618 71.3221 94.334 70.6838 94.2507 69.9066C94.1536 69.0185 94.0703 68.1165 93.9871 67.2284Z" fill="#D7E8F4"/>
<path d="M91.7115 46.8988C91.9474 47.3707 92.0445 47.9119 92.0445 48.4392C92.0445 48.5779 92.0445 48.7445 92.1555 48.8277C92.2666 48.9249 92.1555 49.1053 92.2527 48.9942C92.3498 48.8832 92.6829 48.4808 92.6967 48.342C92.7522 47.9951 92.7661 47.6343 92.7522 47.2874C92.7384 46.9821 92.6967 46.6629 92.5025 46.4132C92.3914 46.2744 92.2388 46.1634 92.1 46.0662C91.878 45.9136 91.656 45.7748 91.4062 45.7054C90.976 45.5944 90.6985 45.7471 91.0593 46.0801C91.3229 46.316 91.545 46.5797 91.7115 46.8988Z" fill="#1A3151"/>
<path d="M88.617 52.7547C88.6309 52.9212 88.6586 53.0877 88.7419 53.2265C88.839 53.3653 88.9778 53.4624 89.1305 53.5457C89.3109 53.6428 89.519 53.7261 89.7272 53.74C89.9353 53.7538 90.1573 53.6844 90.2961 53.5179C90.6708 53.0322 90.6708 51.9915 90.7263 51.4086C91.2536 51.3393 91.8919 51.2005 92.1001 50.6593C92.1695 50.4789 92.1834 50.2985 92.1834 50.1042C92.225 49.3271 92.2666 48.55 92.3221 47.7729C92.336 47.5092 92.3499 47.2317 92.2805 46.9681C92.1417 46.524 91.7532 46.2465 91.3646 46.0522C90.3794 45.5804 89.1998 45.5387 88.2285 46.0799C87.9787 46.2187 87.7289 46.413 87.5762 46.6905C87.3403 47.1068 87.3403 47.6341 87.3403 48.1337C87.3542 48.5916 87.3542 49.0496 87.3681 49.5075C87.382 50.0348 87.4236 50.6315 87.8121 50.9368C88.0203 51.0895 88.284 51.1311 88.4644 51.3393C88.7696 51.7139 88.6031 52.269 88.617 52.7547Z" fill="#EAC5B0"/>
<path d="M92.3775 49.8128C92.3775 49.674 92.3359 49.2438 92.1138 49.4936C92.0583 49.563 92.0306 49.6601 92.0306 49.7434C92.0167 49.8405 92.0167 49.9377 91.989 50.0209C91.9196 50.2152 91.6837 50.2985 91.5033 50.2846C91.42 50.2846 91.3506 50.2568 91.2812 50.2152C91.2118 50.1736 91.1702 50.1042 91.1147 50.0487C91.0037 49.896 90.8788 49.7434 90.7678 49.5908C90.5596 49.3271 90.1433 49.4104 89.8519 49.4381C89.5189 49.4659 89.1858 49.5491 88.8944 49.7573C88.8666 49.785 88.8389 49.7989 88.8111 49.8267C88.7417 49.8822 88.6724 49.9377 88.603 49.9654C88.3393 50.0764 88.034 49.9238 87.8675 49.6879C87.7842 49.5769 87.7149 49.4242 87.59 49.4104C87.4928 49.3965 87.3957 49.452 87.3263 49.5491C87.2708 49.6463 87.2569 49.7573 87.243 49.8683C87.2014 50.2707 87.2292 50.687 87.3818 51.0478C87.7149 51.8388 88.4226 51.9776 89.1581 51.9915C89.4495 52.0053 89.727 52.0053 90.0184 52.0192C90.5457 52.0331 91.1008 52.047 91.5449 51.7555C91.9473 51.5058 92.1971 51.0617 92.322 50.576C92.3498 50.3262 92.3775 50.0626 92.3775 49.8128ZM90.4209 50.798C90.1433 50.9646 89.838 50.9646 89.5327 50.8535C89.4078 50.8119 89.4772 50.5899 89.6021 50.6315C89.8519 50.7287 90.0878 50.7287 90.3237 50.5899C90.4347 50.5205 90.5319 50.7287 90.4209 50.798Z" fill="#1A3151"/>
<path d="M92.6967 45.6082C92.7523 45.4278 92.8078 45.2336 92.8355 45.0393C92.6551 45.0948 92.4608 45.0948 92.2804 45.0532C92.2804 44.9421 92.2943 44.8311 92.2943 44.7201C92.2943 44.623 91.0593 44.4981 90.9621 44.4842C90.0185 44.3593 89.172 44.2344 88.2839 44.7062C87.5346 45.1087 87.035 45.7331 86.8824 46.5796C86.7297 47.3845 86.9379 48.4669 87.368 49.1607C87.3819 48.9387 87.2848 48.4252 87.3403 48.2171C87.3819 48.0089 87.4652 47.8147 87.5623 47.6343C87.7705 47.2735 88.0896 46.982 88.4504 46.7878C89.0194 46.4686 89.6716 46.316 90.3238 46.2605C90.9205 46.2049 91.6421 46.1633 92.2111 46.3576C92.4886 46.4547 92.5302 46.5241 92.7106 46.2466C92.7384 46.1911 93.0159 45.6221 92.9882 45.6221C92.9049 45.6221 92.7939 45.6082 92.6967 45.6082Z" fill="#1A3151"/>
<path d="M96.3876 48.1473C96.4292 48.1196 96.4708 48.1057 96.5125 48.078C96.568 47.8004 96.4986 47.509 96.4292 47.2454C96.2765 46.607 96.0545 45.9826 95.5133 45.5801C95.2497 45.3859 94.5419 45.2748 94.4309 45.7605C94.3893 45.9548 94.653 46.0381 94.7778 46.1768C94.8195 46.2185 95.1109 46.6903 95.1109 46.6903C94.986 46.7042 94.8611 46.6348 94.7501 46.5515C94.6668 46.6487 94.5975 46.7458 94.5142 46.8429C94.5003 46.8707 94.4726 46.8846 94.4864 46.9123C94.5003 46.9262 94.5142 46.9401 94.5281 46.9539C95.2219 47.287 95.3468 47.8698 95.7076 48.4943C95.9296 48.3694 96.1517 48.2584 96.3876 48.1473Z" fill="#EAC5B0"/>
<path d="M94.2229 58.9574L92.0442 53.8091L95.3469 53.9617C95.8187 53.9062 96.1379 53.476 96.0685 53.0181L95.2081 47.9808L96.6652 47.6339L98.5386 51.5055C99.3295 53.143 99.2463 55.058 98.3165 56.6261L94.2229 58.9574Z" fill="#F7F7F7"/>
<path d="M83.1494 48.2446C83.1077 48.2169 83.0661 48.1891 83.0245 48.1752C82.9967 47.8977 83.08 47.6201 83.1633 47.3426C83.3714 46.7182 83.6351 46.1076 84.204 45.7468C84.4816 45.5664 85.2031 45.5109 85.2725 45.9966C85.3003 46.1908 85.0366 46.2602 84.8979 46.3851C84.8562 46.4267 84.5232 46.8708 84.5232 46.8708C84.6481 46.8986 84.7868 46.8292 84.8979 46.7598C84.9672 46.8708 85.0366 46.9679 85.1199 47.079C85.1338 47.1067 85.1476 47.1345 85.1338 47.1483C85.1199 47.1622 85.106 47.1761 85.0921 47.19C84.3705 47.4675 84.204 48.0503 83.8016 48.6332C83.5934 48.5083 83.3714 48.3834 83.1494 48.2446Z" fill="#EAC5B0"/>
<path d="M83.524 60.5118L87.007 52.8518C86.3687 53.2542 85.7304 53.6567 85.092 54.0591C84.6619 54.3228 84.2455 54.6003 83.8154 54.864C83.3713 55.1415 83.0244 55.308 82.7052 54.7113C82.622 54.5448 82.5526 54.3505 82.5248 54.1701C82.4416 53.4763 84.3982 48.2169 84.3288 48.1892C84.3149 48.1892 82.8995 47.7451 82.8995 47.7451L80.7486 51.4641C80.1657 52.4633 79.9298 53.6844 79.8882 54.8362C79.8743 55.4329 79.9021 56.0574 80.0409 56.6402C80.1658 57.1398 80.249 57.681 80.6931 58.014C81.1094 58.3054 81.4841 58.6107 81.8587 58.9715C82.0253 59.0825 83.5656 60.4008 83.524 60.5118Z" fill="#F7F7F7"/>
<path d="M87.0488 55.1555V56.7236C87.0488 57.2371 87.4513 57.6395 87.9508 57.6395H91.9751C92.4747 57.6395 92.8771 57.2232 92.8771 56.7236V55.1555H87.0488Z" fill="#3B455A"/>
<path d="M99.7322 34.1043C99.7322 28.5951 95.361 24.1129 89.9629 24.1129C84.5648 24.1129 80.1936 28.5813 80.1936 34.1043C80.1936 36.0609 80.7487 37.8926 81.7062 39.433C84.4261 44.0956 85.0505 47.995 85.0505 47.995H89.9629H94.8753C94.8753 47.995 95.4998 44.0956 98.2197 39.433C99.1772 37.8926 99.7322 36.0748 99.7322 34.1043Z" fill="#8CABEF"/>
<path d="M84.9395 47.9951V54.656C84.9395 54.9335 85.1615 55.1556 85.4251 55.1556H94.5284C94.792 55.1556 95.0141 54.9335 95.0141 54.656V47.9951H84.9395Z" fill="#9EA6AD"/>
<path d="M99.5657 32.2447C97.0818 37.1987 92.2665 44.8588 85.0505 47.9672C85.0505 47.9811 85.0505 47.9949 85.0505 47.9949H89.963H94.8754C94.8754 47.9949 95.4998 44.0955 98.2197 39.4329C99.1772 37.8926 99.7323 36.0608 99.7323 34.1042C99.7323 33.4659 99.6768 32.8414 99.5657 32.2447Z" fill="#799FE2"/>
<path d="M81.7897 34.9368C81.7897 30.1215 85.6058 26.2221 90.324 26.2221C93.0716 26.2221 95.5278 27.5543 97.082 29.6219C95.6111 27.0131 92.8496 25.2507 89.6856 25.2507C84.9814 25.2507 81.1514 29.1501 81.1514 33.9654C81.1514 35.9637 81.8175 37.8093 82.9137 39.2802C82.206 38.0036 81.7897 36.5187 81.7897 34.9368Z" fill="#D6E1F2"/>
<path d="M88.0619 47.9952L86.8823 35.2146L88.5337 36.6161L89.963 34.2848L91.4339 36.5467L93.0436 35.2007L91.8641 47.9952H92.3637L93.6681 34.035L91.5449 35.7835L89.963 33.3412L88.4088 35.8529L86.2717 34.0212L87.5623 47.9952H88.0619Z" fill="#F6F7F7"/>
<path d="M87.4375 46.7182L87.5624 47.9949H88.062L87.9093 46.4268C87.7567 46.524 87.604 46.6211 87.4375 46.7182Z" fill="#EDECED"/>
<path d="M92.35 42.7217L91.8643 47.995H92.3638L92.905 42.1389C92.7246 42.3332 92.5442 42.5275 92.35 42.7217Z" fill="#EDECED"/>
<path d="M95.0002 49.6464H84.9395V50.8814H95.0002V49.6464Z" fill="#3B455A"/>
<path d="M95.0002 52.269H84.9395V53.5041H95.0002V52.269Z" fill="#3B455A"/>
<path opacity="0.11" d="M94.8337 47.9951C94.3758 48.5918 93.904 49.1469 93.4322 49.6465C93.0159 50.0905 92.5995 50.5068 92.1832 50.8815C91.6004 51.4088 91.0176 51.8806 90.4486 52.2831C89.7548 52.7688 89.0748 53.1851 88.4226 53.5181C87.0904 54.1981 85.897 54.5866 84.9534 54.7948C85.0089 55.0168 85.1893 55.1695 85.4113 55.1695H94.5146C94.7782 55.1695 95.0002 54.9474 95.0002 54.6699V53.5181V52.2831V50.8815V49.6465V47.9951H94.8337Z" fill="black"/>
<g opacity="0.11" filter="url(#filter3_f)">
<path d="M62.903 101.185C67.555 101.185 71.3262 100.421 71.3262 99.4783C71.3262 98.5356 67.555 97.7714 62.903 97.7714C58.251 97.7714 54.4797 98.5356 54.4797 99.4783C54.4797 100.421 58.251 101.185 62.903 101.185Z" fill="black"/>
</g>
<path d="M64.4847 78.0941L63.3052 79.5928L64.1794 80.2728L65.4838 78.6076L64.4847 78.0941Z" fill="#EAC5B0"/>
<path d="M64.235 80.1617L63.6244 79.3569L63.2358 79.1904L62.542 79.4818L63.1803 82.0213C63.555 82.1184 63.9297 81.8408 63.9436 81.4523V81.3274L64.235 80.1617Z" fill="#3B455A"/>
<path d="M60.7381 78.0942L61.9176 79.5929L61.0434 80.2868L59.7251 78.6077L60.7381 78.0942Z" fill="#EAC5B0"/>
<path d="M60.9741 80.2728L61.4876 79.3985L61.8622 79.1904L62.5838 79.3985L62.2369 81.9935C61.8761 82.1323 61.4737 81.8964 61.4182 81.5078L61.4043 81.3829L60.9741 80.2728Z" fill="#3B455A"/>
<path d="M70.8404 63.2043C70.0633 61.3864 69.1058 60.1375 68.2732 58.4306C67.3018 58.278 66.3305 57.9588 65.3591 57.7368C65.4285 57.6119 65.4979 57.487 65.5811 57.376C64.2767 57.5009 62.9445 57.3482 61.6401 57.5009C61.0989 57.5286 60.5577 57.5425 60.0165 57.5147C60.0859 57.6119 60.1414 57.7229 60.2108 57.82C59.2671 58.1114 58.3374 58.5278 57.3938 58.7498C56.686 60.5538 55.9089 61.9553 55.3122 63.8842C54.7155 65.827 54.3409 68.2971 53.6609 70.3092C55.6036 73.4038 58.1154 76.9701 60.0026 80.0924C60.6687 79.8287 60.8491 79.01 61.5291 78.788C60.6548 75.9293 59.8916 73.043 58.9202 70.2121C60.0165 68.2832 60.9879 66.2988 61.9593 64.3005C62.4172 63.3708 63.7216 63.2875 64.2767 64.1618C65.3868 65.9102 66.4831 67.6587 67.5239 69.4488C66.4554 72.6683 65.026 75.6934 63.68 78.788C64.3183 79.121 64.3044 79.8843 64.9428 80.2173C67.4822 76.7897 70.6184 73.0152 72.8387 69.3378C72.1726 67.3812 71.6037 65.0221 70.8404 63.2043Z" fill="#D67086"/>
<path d="M65.3174 39.5026C65.1092 39.35 64.8733 39.2251 64.6097 39.1279C64.1517 38.9614 63.6522 38.9475 63.1526 38.9614C62.0286 39.003 60.8213 39.1696 59.9887 39.9328C58.4344 41.376 58.601 44.6232 58.3095 46.6353C58.0875 48.2034 57.8516 49.7576 57.6296 51.3257L57.0051 58.847L65.7753 58.9857L68.6617 58.5278L67.9124 50.6319C67.7458 48.9111 67.4961 47.1765 67.274 45.4558C67.0659 43.5824 67.0242 40.7376 65.3174 39.5026Z" fill="#474EBB"/>
<path d="M64.2213 33.0359C63.7911 32.5918 63.1666 32.342 62.556 32.3559C60.4051 32.3836 60.2386 34.4652 60.641 36.0749C60.8214 36.7826 61.1683 37.4903 61.765 37.9205C61.9316 38.0315 62.112 38.1287 62.3062 38.1981C62.223 38.4895 62.2785 38.878 62.2646 39.1833C62.2507 39.3637 62.1952 39.5302 62.3201 39.669C62.4728 39.8494 62.7919 39.8772 63.014 39.8772C63.1805 39.8772 63.3609 39.8494 63.5135 39.7523C63.7494 39.5996 63.6939 39.3776 63.6801 39.1417C63.6662 38.8086 63.7078 38.4617 63.6801 38.1287C63.7356 38.1009 63.8049 38.0593 63.8605 38.0177C64.4294 37.6014 64.6237 36.8381 64.7347 36.1443C64.8457 35.2284 64.929 33.7436 64.2213 33.0359Z" fill="#EAC5B0"/>
<path d="M64.3739 35.0341C64.4433 35.1174 64.5543 35.1313 64.6376 35.2007C64.9151 35.4227 64.6514 35.9084 64.818 36.2137C65.04 36.6161 64.9983 37.3099 64.582 37.643C64.4433 37.754 64.249 37.8373 64.1935 38.0038C64.1241 38.1981 64.2629 38.4617 64.1241 38.6144C64.3461 38.8503 64.7347 38.7948 65.04 38.6699C65.3453 38.545 65.6367 38.3646 65.9559 38.3785C66.053 38.3785 66.1779 38.3923 66.2473 38.323C66.2889 38.2813 66.2889 38.2119 66.2889 38.1426C66.3583 37.3932 67.2464 37.5875 67.3574 36.9908C67.3852 36.8243 67.1909 36.4357 67.1909 36.2137C67.1909 35.8806 67.3852 35.5753 67.2742 35.2284C67.2325 35.0896 67.1354 34.9648 67.0799 34.826C66.9827 34.5346 67.0799 34.2154 67.1493 33.924C67.2048 33.6187 67.2048 33.2579 66.955 33.0775C66.7607 32.9387 66.4832 32.9526 66.2889 32.8C65.8726 32.4808 66.1779 31.6204 65.7061 31.3845C65.4563 31.2596 65.1649 31.3984 64.9012 31.3568C64.6098 31.3151 64.4016 31.0931 64.1657 30.9266C63.9298 30.7601 63.569 30.6768 63.3748 30.885C63.2082 31.0654 63.2499 31.3568 63.1111 31.551C62.9862 31.7176 62.7503 31.7453 62.5699 31.8425C61.6818 32.2588 63.347 32.5363 63.5829 32.8277C63.7911 33.0775 63.9992 33.5354 64.138 33.813C64.3045 34.1321 64.1935 34.8121 64.3739 35.0341Z" fill="#3B455A"/>
<path d="M61.7927 32.9389C60.7103 33.1748 61.3625 33.9658 61.0156 34.6319C60.8768 34.8955 60.5021 34.9926 60.4327 35.2702C60.3772 35.4922 60.5438 35.7142 60.6687 35.9085C60.8074 36.1028 60.9046 36.3803 60.738 36.5607C60.6964 36.6162 60.627 36.644 60.5854 36.7134C60.5021 36.8799 60.6964 37.0464 60.8629 37.1158C61.0295 37.1852 61.2376 37.3378 61.1682 37.5044C60.9739 38.0039 60.8491 37.7958 61.1682 38.226C61.2515 38.3231 61.3764 38.3092 61.4596 38.4202C61.3209 38.5729 61.1127 38.6284 60.9046 38.5451C60.405 38.3509 60.5438 38.6006 60.1413 38.6561C59.725 38.7255 59.7111 38.6006 59.3503 38.3647C59.0173 38.1566 58.3096 38.0039 58.1847 37.5599C58.1153 37.3101 58.3096 37.0603 58.2541 36.8244C58.1986 36.5885 57.9488 36.422 57.8239 36.1999C57.588 35.7559 57.9488 35.2841 58.0182 34.8123C58.1153 34.16 57.7406 33.3552 58.4206 32.9389C58.5732 32.8556 58.7536 32.8001 58.9063 32.7168C59.3503 32.4671 59.4336 32.0091 59.614 31.6206C59.7944 31.232 60.2385 30.8018 60.7797 30.899C61.2792 30.9822 61.5429 31.454 62.0425 31.4957C62.2229 31.5096 62.4171 31.4818 62.5698 31.5373C62.6947 31.5928 62.7641 31.69 62.8057 31.7871C62.9306 32.0091 63.2775 32.7585 63.0138 32.9528C62.7224 33.2025 62.2506 32.8417 61.7927 32.9389Z" fill="#3B455A"/>
<path d="M65.9003 35.4783C65.9559 35.395 66.0114 35.3117 66.0114 35.2146C66.0252 35.062 65.9559 34.9509 65.831 34.8816C65.7616 34.8399 65.6783 34.8122 65.595 34.7844C65.4285 34.715 65.2898 34.6318 65.373 34.3959C65.3869 34.3542 65.4146 34.3126 65.4285 34.2849C65.484 34.1461 65.4979 33.9796 65.4563 33.8269C65.4146 33.7159 65.3453 33.6188 65.2204 33.5771C65.1232 33.5494 65.04 33.5771 64.9428 33.5771C64.582 33.5494 64.7208 33.2302 64.7486 33.0221C64.7902 32.6613 64.5404 32.3699 64.1935 32.3143C64.138 32.3005 64.138 32.3976 64.1935 32.3976C64.3739 32.4254 64.5265 32.5225 64.6098 32.6751C64.6931 32.8278 64.6653 32.9943 64.6375 33.1608C64.6098 33.2996 64.6098 33.48 64.7208 33.5771C64.9151 33.7437 65.1787 33.5216 65.3453 33.7575C65.4979 33.9934 65.3314 34.1877 65.262 34.3959C65.0955 34.9371 66.2056 34.7705 65.8587 35.3534C65.7755 35.506 65.6089 35.6587 65.6367 35.8529C65.6506 35.9917 65.7616 36.1027 65.9142 36.0889C65.9697 36.0889 65.9697 35.9917 65.9142 36.0056C65.6783 36.0333 65.7338 35.7419 65.7893 35.6309C65.8171 35.5893 65.8587 35.5338 65.9003 35.4783Z" fill="#C69C6D"/>
<path d="M61.0155 32.7028C60.7102 32.6612 60.2384 32.675 60.1967 33.0636C60.169 33.2718 60.2939 33.4522 60.3355 33.6464C60.4049 34.035 60.0024 34.1182 59.7249 34.2431C59.4335 34.368 59.1698 34.7149 59.489 34.9647C59.5306 34.9925 59.5584 35.0202 59.6 35.048C59.5723 35.1313 59.5584 35.2284 59.5306 35.3117C59.5029 35.3394 59.4196 35.3672 59.3919 35.4088C59.3502 35.4504 59.2947 35.492 59.2947 35.5614C59.2809 35.6724 59.3502 35.7557 59.4612 35.7696C59.5168 35.7696 59.5168 35.6863 59.4612 35.6863C59.4751 35.6169 59.4751 35.5337 59.489 35.4643C59.5168 35.4504 59.5306 35.4365 59.5584 35.4227C59.5861 35.4088 59.6139 35.3949 59.6278 35.3672C59.6694 35.3394 59.6972 35.2978 59.711 35.2561C59.7527 35.159 59.7249 35.0757 59.6555 34.9925C59.5861 34.9231 59.5029 34.8953 59.4612 34.7982C59.378 34.6317 59.5029 34.479 59.6555 34.3819C59.822 34.2848 60.0163 34.257 60.169 34.1599C60.4326 34.0072 60.4604 33.7713 60.3771 33.4938C60.3077 33.2856 60.1967 33.0081 60.4187 32.8554C60.5853 32.7444 60.8212 32.7583 61.0155 32.7861C61.071 32.7999 61.071 32.7167 61.0155 32.7028Z" fill="#C69C6D"/>
<path d="M59.0035 34.2571C59.059 34.2432 59.0313 34.16 58.9758 34.1739C58.7399 34.2432 58.4346 34.3681 58.4485 34.6595C58.4485 34.7428 58.4901 34.8122 58.5456 34.8677C58.6427 34.951 58.7676 34.951 58.8509 35.0481C59.0174 35.2562 58.8093 35.506 58.5595 35.4366C58.504 35.4228 58.4762 35.506 58.5317 35.5199C58.7676 35.5893 59.0313 35.4228 59.0035 35.1591C58.9897 35.0065 58.8925 34.9371 58.7815 34.8816C58.615 34.7844 58.4623 34.6457 58.6289 34.4514C58.7121 34.3404 58.8648 34.2987 59.0035 34.2571Z" fill="#C69C6D"/>
<path d="M69.897 31.2456C69.786 30.9126 69.6195 30.5795 69.3419 30.3436C69.1477 30.1771 68.5232 29.7192 68.2873 30.0661C68.2734 30.08 68.2734 30.1077 68.2734 30.1355C68.2595 30.3436 68.2595 30.7044 68.3844 30.8848C68.4954 31.0514 68.6758 30.9959 68.8285 31.1346C68.9256 31.2318 68.9534 31.426 68.8424 31.4954C68.773 31.5371 68.6897 31.5232 68.6203 31.5509C68.5509 31.5648 68.4677 31.6203 68.4816 31.7036C68.4954 31.7452 68.5232 31.773 68.5509 31.8007C68.7036 31.9256 68.8562 32.0366 68.995 32.1615C69.217 32.328 69.4529 32.5639 69.4113 32.8415C69.6611 32.8554 69.9109 32.8415 70.1468 32.7998C70.0774 32.2725 70.0497 31.7175 69.897 31.2456Z" fill="#EAC5B0"/>
<path d="M65.0261 42.9301C64.9289 42.6387 64.8318 42.3334 64.7485 42.0281C64.693 41.8477 64.1241 39.1001 64.582 39.1972C65.595 39.4054 66.6219 39.447 67.6349 39.3499C67.7876 39.336 69.3279 39.225 69.3279 39.0862C69.314 37.5459 69.2585 36.0194 69.1614 34.4791C69.1059 33.7158 68.981 32.9249 68.981 32.1755C68.981 31.8425 68.981 31.9118 69.2446 31.7731C69.4667 31.6621 69.8275 31.5927 70.0217 31.7731C70.2021 31.9396 70.2576 32.1894 70.3132 32.4392C70.7156 34.3681 71.4094 36.1998 71.9784 38.0871C72.3531 39.3221 73.033 41.0151 72.242 42.2362C71.9784 42.6248 71.5621 42.8885 71.1458 43.1244C69.772 43.9015 68.3565 44.5953 66.8994 45.2059C66.719 45.2753 66.5386 45.3585 66.3582 45.3169C66.0946 45.2614 65.9281 44.9977 65.8032 44.748C65.484 44.1235 65.2342 43.5407 65.0261 42.9301Z" fill="#474EBB"/>
<path d="M55.229 31.7591C55.34 31.4261 55.5066 31.093 55.7841 30.8571C55.9784 30.6906 56.6029 30.2327 56.8388 30.5796C56.8526 30.5935 56.8526 30.6212 56.8526 30.649C56.8665 30.8571 56.8665 31.2179 56.7416 31.3983C56.6306 31.5649 56.4502 31.5093 56.2976 31.6481C56.2004 31.7453 56.1727 31.9395 56.2837 32.0089C56.3531 32.0505 56.4363 32.0367 56.5057 32.0644C56.5751 32.0783 56.6584 32.1338 56.6445 32.2171C56.6306 32.2587 56.6028 32.2864 56.5751 32.3142C56.4224 32.4391 56.2698 32.5501 56.131 32.675C55.909 32.8415 55.6731 33.0774 55.7147 33.355C55.4649 33.3688 55.2152 33.355 54.9792 33.3133C55.0486 32.786 55.0903 32.2309 55.229 31.7591Z" fill="#EAC5B0"/>
<path d="M60.516 43.5129C60.6547 42.6803 60.7658 41.9171 60.7658 41.7783C60.7658 41.3759 60.8213 39.9604 60.4327 39.7384C60.1274 39.5719 58.8646 40.0298 58.4206 39.9882C57.8932 39.9327 57.4214 39.5996 57.1023 39.1833C56.7692 38.767 56.5749 38.2674 56.3945 37.7679C56.117 36.963 55.7701 36.0749 55.8533 35.2145C55.9227 34.368 56.1725 33.5493 56.1725 32.6889C56.1725 32.3559 56.1725 32.4253 55.9088 32.2865C55.6868 32.1755 55.326 32.1061 55.1317 32.2865C54.6183 32.7583 54.5489 33.7991 54.3963 34.4235C54.1465 35.4227 53.8967 36.4218 53.6469 37.4348C53.4943 38.0593 53.3277 38.6976 53.4249 39.336C53.5081 39.9882 53.8412 40.571 54.2159 41.1122C55.6174 43.1798 57.588 44.8728 59.8499 45.9413C60.0025 46.0524 60.3078 44.7063 60.516 43.5129Z" fill="#474EBB"/>
<path d="M59.2891 39.0309V40.9755C59.2891 41.6122 59.7881 42.1112 60.4076 42.1112H65.398C66.0175 42.1112 66.5165 41.595 66.5165 40.9755V39.0309H59.2891Z" fill="#3B455A"/>
<path d="M75.0175 12.9261C75.0175 6.09445 69.5969 0.536194 62.9029 0.536194C56.2089 0.536194 50.7883 6.07725 50.7883 12.9261C50.7883 15.3525 51.4767 17.624 52.664 19.5341C56.0368 25.3161 56.8112 30.1516 56.8112 30.1516H62.9029H68.9946C68.9946 30.1516 69.769 25.3161 73.1418 19.5341C74.3292 17.624 75.0175 15.3697 75.0175 12.9261Z" fill="#F7F8F9"/>
<path d="M56.6736 30.1516V38.4115C56.6736 38.7557 56.9489 39.031 57.2759 39.031H68.5645C68.8914 39.031 69.1668 38.7557 69.1668 38.4115V30.1516H56.6736Z" fill="#9EA6AD"/>
<path opacity="0.2" d="M74.8111 10.6203C71.7308 16.7636 65.7596 26.2626 56.8113 30.1172C56.8113 30.1344 56.8113 30.1516 56.8113 30.1516H62.903H68.9947C68.9947 30.1516 69.7691 25.3161 73.1419 19.5342C74.3292 17.6241 75.0176 15.3526 75.0176 12.9262C75.0176 12.1346 74.9487 11.3603 74.8111 10.6203Z" fill="#799FE2"/>
<path d="M52.7672 13.9586C52.7672 7.9873 57.4994 3.15178 63.3502 3.15178C66.7575 3.15178 69.8033 4.80377 71.7306 7.3678C69.9066 4.13265 66.4821 1.9472 62.5586 1.9472C56.7251 1.9472 51.9756 6.78272 51.9756 12.754C51.9756 15.232 52.8016 17.5207 54.161 19.3447C53.2834 17.7616 52.7672 15.9203 52.7672 13.9586Z" fill="#D6E1F2"/>
<path d="M60.5453 30.1516L59.0826 14.3028L61.1304 16.0408L62.9028 13.1498L64.7269 15.9548L66.7231 14.2856L65.2604 30.1516H65.8799L67.4975 12.8401L64.8646 15.0083L62.9028 11.9797L60.9755 15.0944L58.3254 12.8229L59.9258 30.1516H60.5453Z" fill="#587BC9"/>
<path d="M59.771 28.5683L59.9259 30.1514H60.5454L60.3561 28.2069C60.1668 28.3274 59.9775 28.4478 59.771 28.5683Z" fill="#EDECED"/>
<path d="M65.8628 23.6123L65.2605 30.1515H65.88L66.5511 22.8896C66.3274 23.1305 66.1037 23.3714 65.8628 23.6123Z" fill="#EDECED"/>
<path d="M69.1496 32.1994H56.6736V33.7309H69.1496V32.1994Z" fill="#3B455A"/>
<path d="M69.1496 35.4517H56.6736V36.9833H69.1496V35.4517Z" fill="#3B455A"/>
<path opacity="0.11" d="M68.9429 30.1516C68.3751 30.8915 67.79 31.5798 67.2049 32.1993C66.6887 32.75 66.1724 33.2662 65.6562 33.7309C64.9334 34.3848 64.2107 34.9699 63.5051 35.4689C62.6447 36.0712 61.8015 36.5874 60.9927 37.0004C59.3407 37.8436 57.8608 38.3255 56.6907 38.5836C56.7595 38.8589 56.9832 39.0482 57.2585 39.0482H68.5472C68.8741 39.0482 69.1494 38.7729 69.1494 38.4287V37.0004V35.4689V33.7309V32.1993V30.1516H68.9429Z" fill="black"/>
<defs>
<filter id="filter0_f" x="0.19165" y="95.7713" width="20.8465" height="7.4137" filterUnits="userSpaceOnUse" color-interpolation-filters="sRGB">
<feFlood flood-opacity="0" result="BackgroundImageFix"/>
<feBlend mode="normal" in="SourceGraphic" in2="BackgroundImageFix" result="shape"/>
<feGaussianBlur stdDeviation="1" result="effect1_foregroundBlur"/>
</filter>
<filter id="filter1_f" x="26.3357" y="95.7713" width="20.8465" height="7.4137" filterUnits="userSpaceOnUse" color-interpolation-filters="sRGB">
<feFlood flood-opacity="0" result="BackgroundImageFix"/>
<feBlend mode="normal" in="SourceGraphic" in2="BackgroundImageFix" result="shape"/>
<feGaussianBlur stdDeviation="1" result="effect1_foregroundBlur"/>
</filter>
<filter id="filter2_f" x="78.6235" y="95.7713" width="20.8465" height="7.4137" filterUnits="userSpaceOnUse" color-interpolation-filters="sRGB">
<feFlood flood-opacity="0" result="BackgroundImageFix"/>
<feBlend mode="normal" in="SourceGraphic" in2="BackgroundImageFix" result="shape"/>
<feGaussianBlur stdDeviation="1" result="effect1_foregroundBlur"/>
</filter>
<filter id="filter3_f" x="52.4797" y="95.7714" width="20.8465" height="7.4137" filterUnits="userSpaceOnUse" color-interpolation-filters="sRGB">
<feFlood flood-opacity="0" result="BackgroundImageFix"/>
<feBlend mode="normal" in="SourceGraphic" in2="BackgroundImageFix" result="shape"/>
<feGaussianBlur stdDeviation="1" result="effect1_foregroundBlur"/>
</filter>
</defs>
</svg>
