<svg width="137" height="141" viewBox="0 0 137 141" fill="none" xmlns="http://www.w3.org/2000/svg">
<g opacity="0.11" filter="url(#filter0_f)">
<path d="M14.036 138.449C20.4352 138.449 25.6227 137.398 25.6227 136.101C25.6227 134.805 20.4352 133.753 14.036 133.753C7.63678 133.753 2.44922 134.805 2.44922 136.101C2.44922 137.398 7.63678 138.449 14.036 138.449Z" fill="black"/>
</g>
<path d="M11.23 131.444V134.059L12.7571 134.078V131.157L11.23 131.444Z" fill="#EDD3B8"/>
<path d="M18.1783 131.062L18.4647 133.887L20.1254 133.715L19.7818 130.585L18.1783 131.062Z" fill="#EDD3B8"/>
<path d="M20.1061 133.62L18.6172 133.944L18.14 134.364L18.1018 135.471L21.9577 136.178C22.3395 135.72 22.1868 135.052 21.6523 134.803L21.4805 134.727L20.1061 133.62Z" fill="#3B455A"/>
<path d="M11.2681 133.887H12.7952L13.3297 134.593L13.2724 135.834L9.35929 136.082L9.20659 135.701C8.97752 135.204 9.30203 134.632 9.85559 134.555L9.95104 134.536L11.2681 133.887Z" fill="#3B455A"/>
<path d="M6.72501 107.449L8.17573 120.391L8.74839 133.047L13.6541 133.066L15.6203 98.4396L7.71761 98.5541L6.72501 107.449Z" fill="#3B455A"/>
<path d="M21.3659 105.731L22.4349 118.349L21.0796 133.028L16.3265 132.894L15.6394 118.673L14.8186 107.163L13.9977 98.5923L19.7052 98.4396L21.3659 105.731Z" fill="#3B455A"/>
<path d="M17.2428 78.8738L11.7262 79.0647L8.78653 81.6989L6.97312 91.3768L5.96143 99.6613L18.9035 99.7185L22.1294 98.8977L21.1177 90.2124L20.6214 80.63L17.2428 78.8738Z" fill="#F7F7F7"/>
<path d="M16.4793 70.2646C15.8685 69.6156 14.9713 69.2338 14.0741 69.2147C10.9627 69.1766 10.6573 72.1926 11.1918 74.5595C11.4208 75.5903 11.9171 76.6211 12.7761 77.2701C13.0052 77.4419 13.2724 77.5755 13.5397 77.671C13.4824 77.8237 13.4633 79.7707 13.3106 79.7516C14.036 79.8661 14.7804 79.7898 15.4676 79.5226C15.4676 78.9499 15.5439 78.2245 15.5058 77.5946C15.6012 77.5564 15.6776 77.4992 15.7539 77.4419C16.5938 76.8502 16.8992 75.7621 17.071 74.7504C17.3001 73.4715 17.4719 71.3145 16.4793 70.2646Z" fill="#EAC5B0"/>
<path d="M15.9831 71.6773C16.5748 72.3835 16.613 73.3761 16.5939 74.2924C16.5558 75.5141 16.4221 76.7548 15.8686 77.8238C16.6321 77.2511 17.3766 76.6785 18.1401 76.1058C18.4264 75.8958 18.7128 75.6668 18.8846 75.3613C19.0564 75.0368 19.0945 74.6742 19.1136 74.3115C19.2472 72.4026 19.1518 70.322 17.9492 68.814C17.1857 67.8596 16.0213 67.2487 14.8187 67.1724C13.8261 67.096 9.70297 68.3559 11.3255 69.902C11.8027 70.3411 12.948 70.4174 13.5589 70.5701C14.4178 70.7801 15.3723 70.9519 15.9831 71.6773Z" fill="#1A3151"/>
<path d="M12.3754 71.2383C12.2608 71.2383 12.1272 71.2574 12.0318 71.3147C11.8981 71.391 11.8218 71.5055 11.7645 71.6392C10.7719 73.4335 10.7147 75.7241 11.65 77.5566C10.0656 77.0603 8.90125 75.5714 8.57674 73.9489C8.27133 72.3263 8.74854 70.6084 9.74114 69.2722C10.6574 68.0314 12.1463 67.0579 13.6734 67.2297C14.5896 67.3442 15.4486 67.8596 15.964 68.6232C17.8729 71.5437 14.227 71.1429 12.3754 71.2383Z" fill="#1A3151"/>
<path d="M5.92324 66.1418C5.94233 66.0846 5.96142 66.0464 5.99959 66.0082C6.30501 65.6264 6.85858 65.321 7.27853 65.0538C7.60303 64.8629 7.96572 65.1683 8.21387 65.3401C8.29022 65.3974 8.36657 65.4546 8.36657 65.531C8.36657 65.5883 8.36657 65.6264 8.34749 65.6837C8.23295 65.9509 7.92754 66.0273 7.75574 66.2182C7.67939 66.3136 7.58394 66.4282 7.60303 66.5618C7.6603 66.8672 7.92754 66.6 8.08024 66.5236C8.38566 66.8099 8.08025 67.0008 7.8321 67.1917C7.52668 67.4208 7.22126 67.6117 6.89676 67.8025C6.6486 67.9362 6.53407 68.0316 6.28592 67.8598C6.22866 67.8216 5.63691 67.4589 5.656 67.4208C5.73235 67.1344 5.78962 66.8481 5.86598 66.5427C5.86598 66.4091 5.86598 66.2564 5.92324 66.1418Z" fill="#EAC5B0"/>
<path d="M14.6085 82.2717C14.6276 82.1953 14.6276 82.0999 14.6276 82.0045C14.5894 79.4848 10.9244 78.9885 9.14917 78.5685C7.73661 78.2249 6.53403 77.7095 5.46508 76.7551C5.71323 73.7009 6.22862 70.6468 7.04943 67.7071C6.49586 67.3445 5.9232 66.9818 5.36963 66.6382C5.35054 66.6191 3.32716 71.5248 3.17445 71.983C2.50635 73.8155 1.70463 75.648 1.11289 77.5186C0.864735 78.3395 1.7619 79.0076 2.29638 79.6184C2.9263 80.3628 3.57531 81.1073 4.24341 81.8327C5.56052 83.2834 6.93489 84.6959 8.36653 86.0703C8.38562 86.0894 8.4238 86.1276 8.44289 86.1467C8.65286 86.3566 8.88193 86.5475 9.14917 86.643C9.66456 86.8148 10.2181 86.5284 10.6762 86.2421C11.5161 85.7267 12.3179 85.135 13.0814 84.5051C13.7877 83.9133 14.494 83.1689 14.6085 82.2717Z" fill="#F7F7F7"/>
<path d="M21.2705 67.5164C21.2133 67.4591 21.1178 67.3828 21.0415 67.3255C20.8697 67.211 20.6406 67.1728 20.4497 67.0583C20.2588 66.9437 20.0488 66.8101 20.087 66.562C20.1252 66.3138 20.4879 66.4474 20.6597 66.4856C20.8506 66.5238 21.0224 66.5238 21.1751 66.3711C21.3278 66.2184 21.3087 65.932 21.1751 65.7412C21.0415 65.5694 20.8506 65.4548 20.6979 65.3021C21.1751 65.3021 21.6141 65.3212 21.9959 65.6266C22.1868 65.7793 22.2822 65.9893 22.3967 66.1993C22.7594 66.8865 23.1603 67.5546 23.5611 68.2036C23.2366 68.2608 22.9312 68.3372 22.6258 68.4517C22.3395 68.5663 22.244 68.5854 22.015 68.3563C21.7668 68.1272 21.5759 67.8409 21.3278 67.5927C21.3278 67.5737 21.3087 67.5546 21.2705 67.5164Z" fill="#EAC5B0"/>
<path d="M19.9343 86.2994C19.1135 84.2188 18.3881 82.0427 17.5864 80.0193C19.1708 78.7213 21.6714 79.2939 22.3586 76.7743C23.0648 74.2546 22.7022 70.9713 21.5568 68.3371C22.2631 68.0317 22.9694 67.8217 23.7329 67.5736C25.5654 70.8186 26.8062 74.1019 26.3862 77.9387C25.9663 81.7564 22.1868 83.5507 19.9343 86.2994Z" fill="#F7F7F7"/>
<path d="M9.60745 75.1325V77.2895C9.60745 77.9958 10.161 78.5494 10.8482 78.5494H16.3839C17.0711 78.5494 17.6246 77.9767 17.6246 77.2895V75.1325H9.60745Z" fill="#3B455A"/>
<path d="M27.0542 46.1751C27.0542 38.597 21.0413 32.4314 13.6159 32.4314C6.19044 32.4314 0.177551 38.5779 0.177551 46.1751C0.177551 48.8666 0.941092 51.3863 2.2582 53.5051C5.99956 59.9189 6.85854 65.2828 6.85854 65.2828H13.6159H20.3732C20.3732 65.2828 21.2322 59.9189 24.9736 53.5051C26.2907 51.3863 27.0542 48.8857 27.0542 46.1751Z" fill="#8CABEF"/>
<path d="M6.70602 65.2829V74.4454C6.70602 74.8272 7.01144 75.1326 7.37412 75.1326H19.8962C20.2589 75.1326 20.5643 74.8272 20.5643 74.4454V65.2829H6.70602Z" fill="#9EA6AD"/>
<path d="M26.8253 43.6172C23.4084 50.4318 16.7847 60.9687 6.85867 65.2445C6.85867 65.2636 6.85867 65.2827 6.85867 65.2827H13.616H20.3734C20.3734 65.2827 21.2323 59.9188 24.9737 53.5051C26.2908 51.3863 27.0544 48.8666 27.0544 46.1751C27.0544 45.297 26.978 44.438 26.8253 43.6172Z" fill="#799FE2"/>
<path d="M2.37292 47.3204C2.37292 40.6967 7.62227 35.3328 14.1124 35.3328C17.8919 35.3328 21.2706 37.1653 23.4085 40.0095C21.3851 36.4208 17.5865 33.9966 13.2343 33.9966C6.76328 33.9966 1.49484 39.3605 1.49484 45.9842C1.49484 48.7329 2.41109 51.2717 3.91909 53.2951C2.94557 51.539 2.37292 49.4965 2.37292 47.3204Z" fill="#D6E1F2"/>
<path d="M11.0009 65.283L9.37838 47.7025L11.6499 49.6304L13.616 46.4235L15.6394 49.535L17.8537 47.6834L16.2312 65.283H16.9184L18.7127 46.0799L15.7921 48.4851L13.616 45.1255L11.4781 48.5805L8.53848 46.0609L10.3137 65.283H11.0009Z" fill="#F6F7F7"/>
<path d="M10.142 63.5265L10.3138 65.2827H11.001L10.791 63.1257C10.5811 63.2593 10.3711 63.3929 10.142 63.5265Z" fill="#EDECED"/>
<path d="M16.8994 58.0291L16.2313 65.2827H16.9185L17.6629 57.2274C17.4148 57.4946 17.1666 57.7618 16.8994 58.0291Z" fill="#EDECED"/>
<path d="M20.5452 67.5544H6.70602V69.2533H20.5452V67.5544Z" fill="#3B455A"/>
<path d="M20.5453 71.162H6.70605V72.8609H20.5453V71.162Z" fill="#3B455A"/>
<path opacity="0.11" d="M20.3161 65.2829C19.6862 66.1037 19.0371 66.8672 18.3881 67.5544C17.8155 68.1653 17.2428 68.7379 16.6702 69.2533C15.8684 69.9787 15.0667 70.6277 14.2841 71.1813C13.3297 71.8494 12.3943 72.422 11.4972 72.8801C9.66467 73.8155 8.02306 74.35 6.72504 74.6363C6.80139 74.9417 7.04954 75.1517 7.35496 75.1517H19.877C20.2397 75.1517 20.5451 74.8463 20.5451 74.4645V72.8801V71.1813V69.2533V67.5544V65.2829H20.3161Z" fill="black"/>
<g opacity="0.11" filter="url(#filter1_f)">
<path d="M49.9987 138.449C56.3979 138.449 61.5855 137.398 61.5855 136.101C61.5855 134.805 56.3979 133.753 49.9987 133.753C43.5996 133.753 38.412 134.805 38.412 136.101C38.412 137.398 43.5996 138.449 49.9987 138.449Z" fill="black"/>
</g>
<path d="M45.952 135.567L45.7229 136.712L43.2987 137.495L42.4397 136.159L43.7568 135.185L46.162 134.422L45.952 135.567Z" fill="#3B455A"/>
<path d="M52.6903 134.269L52.7858 135.472L55.1337 136.464L56.1644 135.166L54.9428 134.078L52.6903 134.269Z" fill="#3B455A"/>
<path d="M42.4397 100.425L41.4089 104.128L41.9434 105.827H41.8861L42.516 115.6L43.8713 135.3L46.1428 135.223L50.2087 112.203L50.495 113.271L52.6902 134.536L54.7709 134.345L57.9968 106.59V100.959L42.4397 100.425Z" fill="#3B455A"/>
<path d="M51.6594 74.7317L49.0061 74.5026C43.0696 74.0063 42.6496 82.2526 41.8861 86.3566C40.7789 92.2931 40.2826 98.3824 40.8553 104.414C42.726 103.403 45.3029 103.613 47.4217 103.536C51.3349 103.403 55.3626 103.288 59.1421 103.899C59.8484 104.013 59.543 98.955 59.3903 98.0197C59.1039 96.1108 58.8176 94.202 58.5122 92.2931C57.9968 88.8381 57.4623 85.3831 56.9469 81.9281C56.9278 81.8326 56.9088 81.7181 56.9088 81.6226C56.8515 81.26 56.737 80.8973 56.5461 80.5728L54.0836 76.2778C53.5683 75.3998 52.6711 74.8271 51.6594 74.7317Z" fill="#F7F7F7"/>
<path d="M54.1029 67.1728C52.3277 67.7264 50.3234 66.6384 48.6245 67.4401C47.7082 67.86 46.8683 68.8908 46.9447 69.9216C47.021 71.0096 47.3455 72.2504 48.0136 73.1285C48.6054 73.9111 48.7963 74.2165 48.5099 75.1519C48.8917 75.4382 49.2544 75.7245 49.6362 76.0108C49.7125 76.0681 49.808 76.1445 49.9225 76.1635C50.0752 76.2017 50.2279 76.1445 50.3615 76.0872C50.6288 75.9918 50.9151 75.8772 51.1823 75.7818C51.4687 75.6672 51.4305 74.6746 51.4687 74.4074C51.4878 74.2929 51.5068 74.1593 51.5641 74.0638C51.6405 73.9493 51.7741 73.8729 51.8886 73.7966C53.3393 72.8994 54.5037 71.1433 54.4847 69.4062C54.5037 68.6236 54.3129 67.8791 54.1029 67.1728Z" fill="#EAC5B0"/>
<path d="M49.7697 67.4017C49.8461 67.4017 49.9033 67.3827 49.9797 67.3827C50.9723 67.3254 51.984 67.4781 52.9193 67.8408C53.5493 68.0889 54.2364 68.528 54.2746 69.2724C54.2937 69.616 54.2174 69.9405 54.1219 70.2841C54.0074 70.7041 53.8929 71.1049 53.7974 71.5249C53.7783 71.6012 53.7592 71.6776 53.7783 71.7539C53.8356 71.983 54.1792 71.983 54.3701 71.8303C55.0382 71.2958 55.9162 70.4177 56.2789 69.6542C56.5843 69.0434 56.5271 68.2035 56.9661 67.669C57.2524 67.3063 57.4815 66.7336 57.9014 66.5428C58.455 66.2755 59.0468 65.9701 59.4285 65.4929C59.8294 65.0157 59.9821 64.2903 59.6576 63.7558C59.3331 63.2595 58.6841 63.0877 58.0923 63.0686C57.5006 63.0496 56.8707 63.1068 56.3171 62.8778C56.0689 62.7823 55.859 62.6487 55.5917 62.5914C54.7709 62.4196 53.4729 62.6869 52.7285 63.0686C52.0222 63.4313 51.3541 63.8894 50.5714 64.0231C49.9415 64.1185 49.2925 63.9849 48.6626 64.0422C47.6127 64.1376 46.6201 64.7484 46.0475 65.6265C45.3984 66.6191 45.1312 67.9935 45.723 69.0624C46.0093 69.5969 46.2193 70.1505 46.4483 70.7231C46.5247 70.914 47.0401 71.6967 47.1546 71.0477C47.25 70.5323 47.1737 70.0169 47.25 69.5015C47.4409 68.2226 48.6053 67.5354 49.7697 67.4017Z" fill="#3B455A"/>
<path d="M43.4705 65.3209L42.1725 64.7673L42.8597 62.4958L44.3295 62.2476L45.1694 63.202L44.2913 63.9083L44.5204 64.0038L44.8831 63.8701L45.0167 64.2328L43.4705 65.3209Z" fill="#EAC5B0"/>
<path d="M44.7876 83.0731C45.9711 80.7061 46.3529 77.9574 45.8566 75.3804C44.3867 75.2086 42.9742 74.6169 41.8098 73.7006C41.7334 73.6433 41.6762 73.5861 41.6189 73.5097C41.5235 73.357 41.5807 73.147 41.638 72.9752C42.4779 70.3792 43.4323 67.8023 44.1195 65.1871L42.1725 64.2327C41.5616 65.3207 40.9508 66.4279 40.34 67.5159C39.6146 68.8139 38.9083 70.112 38.183 71.41C37.9157 71.8872 37.6485 72.3644 37.3812 72.8416C37.2858 73.0134 37.1713 73.1852 37.0758 73.357C36.5795 74.2351 37.2095 75.724 37.5149 76.6021C37.9539 77.8428 38.5457 79.0454 39.1374 80.2289C39.7864 81.546 40.4545 82.8822 41.1035 84.1993C41.3708 84.7529 41.7334 85.3637 42.3443 85.4592C43.4323 85.631 44.1959 84.1611 44.6158 83.3785C44.6922 83.264 44.7494 83.1685 44.7876 83.0731Z" fill="#F7F7F7"/>
<path d="M57.5005 66.3899L58.8749 65.9891L58.4931 63.6603L57.0805 63.2213L56.107 64.0611L56.8897 64.8629L56.6415 64.9392L56.317 64.7483L56.1261 65.0919L57.5005 66.3899Z" fill="#EAC5B0"/>
<path d="M53.8164 83.7988C52.9574 81.2982 51.8693 77.9959 52.7092 75.4953C54.1791 75.5144 56.7369 75.6671 58.0159 74.9035C58.0922 74.8654 58.1686 74.8081 58.2258 74.7317C58.3404 74.579 58.3022 74.3691 58.2831 74.1973C57.8059 71.5249 57.195 68.8334 56.8705 66.1419L58.9321 65.4547C59.3902 66.6191 59.8484 67.7835 60.3065 68.9479C60.841 70.3223 61.3945 71.7158 61.929 73.0901C62.1199 73.6055 62.3299 74.1018 62.5207 74.6172C62.5971 74.8081 62.6735 74.9799 62.7498 75.1708C63.1316 76.1061 62.3108 77.4996 61.8717 78.3204C61.2609 79.5039 60.5165 80.5919 59.772 81.6991C58.9512 82.9207 58.1113 84.1424 57.2905 85.3641C56.9469 85.8604 56.5079 86.433 55.897 86.433C54.7899 86.4521 54.2363 84.8869 53.9309 84.066C53.8736 83.9897 53.8355 83.8942 53.8164 83.7988Z" fill="#F7F7F7"/>
<path d="M46.4482 75.1325V77.2895C46.4482 77.9958 47.0018 78.5494 47.689 78.5494H53.2247C53.9119 78.5494 54.4654 77.9767 54.4654 77.2895V75.1325H46.4482Z" fill="#3B455A"/>
<path d="M63.8952 46.1751C63.8952 38.597 57.8823 32.4314 50.4569 32.4314C43.0314 32.4314 37.0186 38.5779 37.0186 46.1751C37.0186 48.8666 37.7821 51.3863 39.0992 53.5051C42.8406 59.9189 43.6995 65.2828 43.6995 65.2828H50.4569H57.2142C57.2142 65.2828 58.0732 59.9189 61.8146 53.5051C63.1317 51.3863 63.8952 48.8857 63.8952 46.1751Z" fill="#8CABEF"/>
<path d="M43.5468 65.2829V74.4454C43.5468 74.8272 43.8522 75.1326 44.2149 75.1326H56.737C57.0996 75.1326 57.4051 74.8272 57.4051 74.4454V65.2829H43.5468Z" fill="#9EA6AD"/>
<path d="M63.6662 43.6172C60.2494 50.4318 53.6256 60.9687 43.6996 65.2445C43.6996 65.2636 43.6996 65.2827 43.6996 65.2827H50.4569H57.2143C57.2143 65.2827 58.0733 59.9188 61.8146 53.5051C63.1317 51.3863 63.8953 48.8666 63.8953 46.1751C63.8953 45.297 63.8189 44.438 63.6662 43.6172Z" fill="#799FE2"/>
<path d="M39.2137 47.3204C39.2137 40.6967 44.463 35.3328 50.9531 35.3328C54.7327 35.3328 58.1113 37.1653 60.2493 40.0095C58.2259 36.4208 54.4272 33.9966 50.0751 33.9966C43.604 33.9966 38.3356 39.3605 38.3356 45.9842C38.3356 48.7329 39.2519 51.2717 40.7598 53.2951C39.7863 51.539 39.2137 49.4965 39.2137 47.3204Z" fill="#D6E1F2"/>
<path d="M47.8417 65.283L46.2191 47.7025L48.4907 49.6304L50.4568 46.4235L52.4802 49.535L54.6945 47.6834L53.0719 65.283H53.7591L55.5534 46.0799L52.6329 48.4851L50.4568 45.1255L48.3189 48.5805L45.3792 46.0609L47.1545 65.283H47.8417Z" fill="#F6F7F7"/>
<path d="M46.9828 63.5265L47.1546 65.2827H47.8418L47.6318 63.1257C47.4218 63.2593 47.2119 63.3929 46.9828 63.5265Z" fill="#EDECED"/>
<path d="M53.7402 58.0291L53.0721 65.2827H53.7592L54.5037 57.2274C54.2555 57.4946 54.0074 57.7618 53.7402 58.0291Z" fill="#EDECED"/>
<path d="M57.386 67.5544H43.5468V69.2533H57.386V67.5544Z" fill="#3B455A"/>
<path d="M57.386 71.162H43.5468V72.8609H57.386V71.162Z" fill="#3B455A"/>
<path opacity="0.11" d="M57.1568 65.2829C56.5269 66.1037 55.8779 66.8672 55.2289 67.5544C54.6562 68.1653 54.0836 68.7379 53.5109 69.2533C52.7092 69.9787 51.9075 70.6277 51.1249 71.1813C50.1704 71.8494 49.2351 72.422 48.3379 72.8801C46.5054 73.8155 44.8638 74.35 43.5658 74.6363C43.6422 74.9417 43.8903 75.1517 44.1957 75.1517H56.7178C57.0805 75.1517 57.3859 74.8463 57.3859 74.4645V72.8801V71.1813V69.2533V67.5544V65.2829H57.1568Z" fill="black"/>
<g opacity="0.11" filter="url(#filter2_f)">
<path d="M121.924 138.449C128.323 138.449 133.511 137.398 133.511 136.101C133.511 134.805 128.323 133.753 121.924 133.753C115.525 133.753 110.337 134.805 110.337 136.101C110.337 137.398 115.525 138.449 121.924 138.449Z" fill="black"/>
</g>
<path d="M125.074 134.441V135.51L127.804 136.865L129.178 135.51L127.804 134.154H127.632L127.594 134.441H125.074Z" fill="#3B455A"/>
<path d="M118.355 134.154H118.164L116.809 135.51L118.164 136.865L120.894 135.51V134.441H118.393L118.355 134.154Z" fill="#3B455A"/>
<path d="M121.332 71.2577C119.882 71.2004 118.011 72.0212 117.095 73.1665C116.408 74.0064 116.007 75.0372 115.625 76.0489C114.518 78.8931 114.022 81.5273 113.468 84.5242C113.124 86.4331 112.8 88.3419 112.533 90.2317C112.246 92.3314 112.055 94.4312 111.998 96.5118C111.998 96.7409 111.941 97.3899 111.922 98.1534C111.865 99.7569 111.903 101.914 112.571 101.99C112.704 102.009 112.819 101.952 112.934 101.895C113.793 101.475 114.48 100.921 115.224 100.444C115.491 100.272 115.759 100.12 116.064 99.9668C116.656 99.6805 117.305 99.4515 117.954 99.2797C116.847 99.3369 116.713 99.1269 116.713 99.1269C116.713 99.1269 117.706 95.0802 118.412 91.5679C118.775 89.7545 119.061 88.0747 119.08 87.1775C119.156 84.4479 119.5 75.4381 119.5 75.4381L121.18 71.983H121.485C121.466 71.983 121.447 71.983 121.428 71.983C121.466 72.0021 121.352 71.3149 121.332 71.2577Z" fill="#F7F7F7"/>
<path d="M133.759 100.196C133.588 98.4015 133.416 96.6262 133.187 94.851C132.748 91.3005 132.175 87.7501 131.163 84.3141C130.782 82.997 130.342 81.699 129.903 80.401C129.369 78.8166 128.834 77.2514 128.3 75.667C127.632 73.7009 126.525 72.3265 124.559 71.6393C124.215 71.5248 123.833 71.4294 123.452 71.353C123.452 71.3912 123.432 71.4294 123.432 71.4866C123.413 71.6775 123.356 71.8875 123.242 72.0211L124.52 72.0402C124.52 72.0402 128.147 84.9059 128.281 87.1392C128.338 87.9791 128.51 89.8307 128.682 91.7587C128.987 94.8319 129.331 98.1533 129.331 98.1533C129.331 98.1533 127.727 98.1915 125.437 98.3633C125.609 98.3633 125.78 98.3633 125.952 98.3442C127.556 98.3251 129.216 99.0123 130.762 99.4704C130.877 99.5086 130.991 99.5277 131.087 99.5659C131.717 99.7377 132.213 100.196 132.748 100.558C133.53 101.074 133.855 101.284 133.759 100.196Z" fill="#F7F7F7"/>
<path d="M130.762 99.4514C129.216 99.0123 127.555 98.3061 125.952 98.3251C125.78 98.3251 125.608 98.3252 125.437 98.3442C125.303 98.3633 125.15 98.3633 124.998 98.3824C123.929 98.4779 122.707 98.5924 121.447 98.7451C121.39 98.7451 121.333 98.7642 121.256 98.7642C119.634 99.1078 118.603 99.2605 117.916 99.2796C117.267 99.4514 116.618 99.6804 116.026 99.9668C115.721 100.119 115.453 100.272 115.186 100.444V102.2L118.259 134.517H120.779V134.822H120.798L123.566 112.279L123.585 112.164L125.112 134.822H125.131V134.517H127.67L130.877 109.568L130.762 99.4514Z" fill="#3B455A"/>
<path d="M128.72 91.7395C128.529 89.7925 128.357 87.96 128.319 87.1201C128.147 84.4095 127.135 81.6226 126.448 79.0075C126.047 77.4613 125.627 75.9151 125.188 74.369C125.036 73.8536 124.998 72.9182 124.711 72.4983C124.253 71.8111 123.26 72.1165 122.592 72.1356C121.695 72.1738 120.684 71.6202 119.901 72.3456C119.385 72.8228 119.5 73.7009 119.462 74.3308C119.405 75.7624 119.347 77.175 119.309 78.6066C119.233 81.4699 119.156 84.3141 119.042 87.1774C119.023 88.0936 118.736 89.7543 118.374 91.5677C118.011 93.3621 117.629 95.1373 117.209 96.9125C117.076 97.4852 116.942 98.0769 116.789 98.6496C116.732 98.9168 115.854 99.8522 116.083 100.024C116.217 100.119 116.999 99.8713 117.171 99.8331C117.572 99.7567 117.954 99.6613 118.355 99.5658C119.901 99.2032 121.447 98.8214 123.031 98.6878C123.948 98.6114 124.864 98.6496 125.78 98.6878C126.525 98.7259 127.269 98.745 127.994 98.8977C128.853 99.0695 129.731 99.394 130.59 99.2222C130.571 98.8214 130.247 98.5351 129.999 98.2296C129.235 97.3707 129.197 96.4926 129.082 95.4236C128.949 94.202 128.834 92.9612 128.72 91.7395Z" fill="#D7E8F4"/>
<path d="M125.589 63.7748C125.914 64.4238 126.047 65.1683 126.047 65.8937C126.047 66.0845 126.047 66.3136 126.2 66.4281C126.353 66.5618 126.2 66.8099 126.334 66.6572C126.467 66.5045 126.926 65.9509 126.945 65.76C127.021 65.2828 127.04 64.7865 127.021 64.3093C127.002 63.8894 126.945 63.4503 126.677 63.1067C126.525 62.9158 126.315 62.7631 126.124 62.6295C125.818 62.4195 125.513 62.2287 125.169 62.1332C124.578 61.9805 124.196 62.1905 124.692 62.6486C125.055 62.9731 125.36 63.3358 125.589 63.7748Z" fill="#1A3151"/>
<path d="M121.333 71.83C121.352 72.0591 121.39 72.2882 121.504 72.479C121.638 72.6699 121.829 72.8035 122.039 72.9181C122.287 73.0517 122.573 73.1662 122.86 73.1853C123.146 73.2044 123.451 73.109 123.642 72.8799C124.158 72.2118 124.158 70.7802 124.234 69.9784C124.959 69.883 125.837 69.6921 126.124 68.9477C126.219 68.6995 126.238 68.4514 126.238 68.1841C126.296 67.1152 126.353 66.0462 126.429 64.9772C126.448 64.6146 126.467 64.2328 126.372 63.8701C126.181 63.2593 125.647 62.8775 125.112 62.6103C123.757 61.9613 122.134 61.904 120.798 62.6484C120.454 62.8393 120.111 63.1066 119.901 63.4883C119.576 64.061 119.576 64.7864 119.576 65.4735C119.595 66.1035 119.595 66.7334 119.615 67.3633C119.634 68.0887 119.691 68.9095 120.225 69.3294C120.512 69.5394 120.874 69.5967 121.123 69.883C121.543 70.3984 121.313 71.1619 121.333 71.83Z" fill="#EAC5B0"/>
<path d="M126.506 67.7832C126.506 67.5923 126.448 67.0006 126.143 67.3442C126.067 67.4396 126.028 67.5732 126.028 67.6878C126.009 67.8214 126.009 67.955 125.971 68.0695C125.876 68.3368 125.551 68.4513 125.303 68.4322C125.188 68.4322 125.093 68.394 124.998 68.3368C124.902 68.2795 124.845 68.1841 124.769 68.1077C124.616 67.8977 124.444 67.6878 124.291 67.4778C124.005 67.1151 123.432 67.2296 123.031 67.2678C122.573 67.306 122.115 67.4205 121.714 67.7069C121.676 67.745 121.638 67.7641 121.6 67.8023C121.504 67.8787 121.409 67.955 121.314 67.9932C120.951 68.1459 120.531 67.9359 120.302 67.6114C120.187 67.4587 120.092 67.2487 119.92 67.2296C119.786 67.2106 119.653 67.2869 119.557 67.4205C119.481 67.5541 119.462 67.7069 119.443 67.8596C119.386 68.4131 119.424 68.9858 119.634 69.4821C120.092 70.5701 121.065 70.761 122.077 70.7801C122.478 70.7992 122.86 70.7992 123.261 70.8183C123.986 70.8374 124.749 70.8565 125.36 70.4556C125.914 70.112 126.257 69.5012 126.429 68.8331C126.467 68.4895 126.506 68.1268 126.506 67.7832ZM123.814 69.1385C123.432 69.3676 123.012 69.3676 122.592 69.2148C122.421 69.1576 122.516 68.8522 122.688 68.9094C123.031 69.0431 123.356 69.0431 123.68 68.8522C123.833 68.7567 123.967 69.0431 123.814 69.1385Z" fill="#1A3151"/>
<path d="M126.945 61.9996C127.021 61.7514 127.097 61.4842 127.135 61.2169C126.887 61.2933 126.62 61.2933 126.372 61.236C126.372 61.0833 126.391 60.9306 126.391 60.7779C126.391 60.6443 124.692 60.4725 124.559 60.4534C123.26 60.2816 122.096 60.1098 120.874 60.7588C119.844 61.3124 119.156 62.1714 118.946 63.3358C118.737 64.4429 119.023 65.9318 119.615 66.8862C119.634 66.5808 119.5 65.8745 119.576 65.5882C119.634 65.3019 119.748 65.0346 119.882 64.7865C120.168 64.2902 120.607 63.8893 121.103 63.6221C121.886 63.1831 122.783 62.9731 123.68 62.8967C124.501 62.8204 125.494 62.7631 126.276 63.0304C126.658 63.164 126.716 63.2594 126.964 62.8776C127.002 62.8013 127.384 62.0187 127.345 62.0187C127.231 62.0187 127.078 61.9996 126.945 61.9996Z" fill="#1A3151"/>
<path d="M132.022 65.4924C132.079 65.4542 132.136 65.4351 132.194 65.3969C132.27 65.0152 132.175 64.6143 132.079 64.2516C131.869 63.3736 131.564 62.5146 130.819 61.961C130.457 61.6938 129.483 61.5411 129.33 62.2091C129.273 62.4764 129.636 62.5909 129.808 62.7818C129.865 62.8391 130.266 63.4881 130.266 63.4881C130.094 63.5072 129.922 63.4117 129.77 63.2972C129.655 63.4308 129.56 63.5644 129.445 63.6981C129.426 63.7362 129.388 63.7553 129.407 63.7935C129.426 63.8126 129.445 63.8317 129.464 63.8508C130.419 64.3089 130.59 65.1106 131.087 65.9696C131.392 65.7978 131.697 65.6451 132.022 65.4924Z" fill="#EAC5B0"/>
<path d="M129.044 80.3623L126.047 73.2804L130.59 73.4904C131.239 73.414 131.678 72.8223 131.583 72.1924L130.4 65.2632L132.404 64.786L134.981 70.1117C136.069 72.3642 135.954 74.9984 134.675 77.1554L129.044 80.3623Z" fill="#F7F7F7"/>
<path d="M113.812 65.6261C113.754 65.588 113.697 65.5498 113.64 65.5307C113.602 65.1489 113.716 64.7672 113.831 64.3854C114.117 63.5264 114.48 62.6865 115.262 62.1902C115.644 61.9421 116.637 61.8657 116.732 62.5338C116.77 62.801 116.408 62.8965 116.217 63.0683C116.16 63.1255 115.701 63.7364 115.701 63.7364C115.873 63.7746 116.064 63.6791 116.217 63.5837C116.312 63.7364 116.408 63.87 116.522 64.0227C116.541 64.0609 116.56 64.0991 116.541 64.1181C116.522 64.1372 116.503 64.1563 116.484 64.1754C115.491 64.5572 115.262 65.3589 114.709 66.1606C114.422 65.9888 114.117 65.817 113.812 65.6261Z" fill="#EAC5B0"/>
<path d="M114.327 82.5005L119.118 71.9636C118.24 72.5171 117.362 73.0707 116.484 73.6243C115.892 73.987 115.32 74.3687 114.728 74.7314C114.117 75.1132 113.64 75.3422 113.201 74.5214C113.086 74.2924 112.991 74.0251 112.953 73.777C112.838 72.8226 115.53 65.588 115.434 65.5498C115.415 65.5498 113.468 64.939 113.468 64.939L110.509 70.0547C109.708 71.4291 109.383 73.1089 109.326 74.6932C109.307 75.514 109.345 76.373 109.536 77.1747C109.708 77.8619 109.822 78.6064 110.433 79.0645C111.006 79.4654 111.521 79.8853 112.036 80.3816C112.265 80.5343 114.384 82.3477 114.327 82.5005Z" fill="#F7F7F7"/>
<path d="M119.176 75.1325V77.2895C119.176 77.9958 119.729 78.5494 120.416 78.5494H125.952C126.639 78.5494 127.193 77.9767 127.193 77.2895V75.1325H119.176Z" fill="#3B455A"/>
<path d="M136.622 46.1751C136.622 38.597 130.61 32.4314 123.184 32.4314C115.759 32.4314 109.746 38.5779 109.746 46.1751C109.746 48.8666 110.509 51.3863 111.826 53.5051C115.568 59.9189 116.427 65.2828 116.427 65.2828H123.184H129.941C129.941 65.2828 130.8 59.9189 134.542 53.5051C135.859 51.3863 136.622 48.8857 136.622 46.1751Z" fill="#8CABEF"/>
<path d="M116.274 65.2829V74.4454C116.274 74.8272 116.58 75.1326 116.942 75.1326H129.464C129.827 75.1326 130.132 74.8272 130.132 74.4454V65.2829H116.274Z" fill="#9EA6AD"/>
<path d="M136.394 43.6172C132.977 50.4318 126.353 60.9687 116.427 65.2445C116.427 65.2636 116.427 65.2827 116.427 65.2827H123.184H129.942C129.942 65.2827 130.801 59.9188 134.542 53.5051C135.859 51.3863 136.623 48.8666 136.623 46.1751C136.623 45.297 136.546 44.438 136.394 43.6172Z" fill="#799FE2"/>
<path d="M111.941 47.3204C111.941 40.6967 117.19 35.3328 123.681 35.3328C127.46 35.3328 130.839 37.1653 132.977 40.0095C130.953 36.4208 127.155 33.9966 122.803 33.9966C116.332 33.9966 111.063 39.3605 111.063 45.9842C111.063 48.7329 111.979 51.2717 113.487 53.2951C112.514 51.539 111.941 49.4965 111.941 47.3204Z" fill="#D6E1F2"/>
<path d="M120.569 65.283L118.947 47.7025L121.218 49.6304L123.184 46.4235L125.208 49.535L127.422 47.6834L125.799 65.283H126.487L128.281 46.0799L125.36 48.4851L123.184 45.1255L121.046 48.5805L118.107 46.0609L119.882 65.283H120.569Z" fill="#F6F7F7"/>
<path d="M119.71 63.5265L119.882 65.2827H120.569L120.359 63.1257C120.149 63.2593 119.939 63.3929 119.71 63.5265Z" fill="#EDECED"/>
<path d="M126.468 58.0291L125.8 65.2827H126.487L127.231 57.2274C126.983 57.4946 126.735 57.7618 126.468 58.0291Z" fill="#EDECED"/>
<path d="M130.113 67.5544H116.274V69.2533H130.113V67.5544Z" fill="#3B455A"/>
<path d="M130.113 71.162H116.274V72.8609H130.113V71.162Z" fill="#3B455A"/>
<path opacity="0.11" d="M129.884 65.2829C129.254 66.1037 128.605 66.8672 127.956 67.5544C127.384 68.1653 126.811 68.7379 126.238 69.2533C125.437 69.9787 124.635 70.6277 123.852 71.1813C122.898 71.8494 121.963 72.422 121.065 72.8801C119.233 73.8155 117.591 74.35 116.293 74.6363C116.37 74.9417 116.618 75.1517 116.923 75.1517H129.445C129.808 75.1517 130.113 74.8463 130.113 74.4645V72.8801V71.1813V69.2533V67.5544V65.2829H129.884Z" fill="black"/>
<g opacity="0.11" filter="url(#filter3_f)">
<path d="M85.9614 138.449C92.3605 138.449 97.5481 137.398 97.5481 136.101C97.5481 134.805 92.3605 133.753 85.9614 133.753C79.5622 133.753 74.3746 134.805 74.3746 136.101C74.3746 137.398 79.5622 138.449 85.9614 138.449Z" fill="black"/>
</g>
<path d="M88.1375 106.686L86.515 108.748L87.7175 109.683L89.5119 107.392L88.1375 106.686Z" fill="#EAC5B0"/>
<path d="M87.7938 109.53L86.9539 108.423L86.4194 108.194L85.465 108.595L86.343 112.088C86.8584 112.222 87.3738 111.84 87.3929 111.305V111.134L87.7938 109.53Z" fill="#3B455A"/>
<path d="M82.9835 106.686L84.606 108.748L83.4034 109.702L81.59 107.392L82.9835 106.686Z" fill="#EAC5B0"/>
<path d="M83.308 109.683L84.0143 108.48L84.5297 108.194L85.5223 108.48L85.045 112.05C84.5487 112.241 83.9952 111.916 83.9188 111.382L83.8997 111.21L83.308 109.683Z" fill="#3B455A"/>
<path d="M96.88 86.204C95.811 83.7034 94.4939 81.9855 93.3486 79.6376C92.0124 79.4276 90.6762 78.9886 89.34 78.6832C89.4354 78.5114 89.5309 78.3396 89.6454 78.1869C87.8511 78.3587 86.0186 78.1487 84.2243 78.3587C83.4798 78.3968 82.7354 78.4159 81.9909 78.3777C82.0863 78.5114 82.1627 78.6641 82.2581 78.7977C80.9601 79.1985 79.6812 79.7712 78.3832 80.0766C77.4097 82.5581 76.3407 84.4861 75.5199 87.1394C74.6991 89.8118 74.1837 93.2095 73.2484 95.9774C75.9207 100.234 79.3758 105.14 81.9718 109.435C82.8881 109.072 83.1362 107.946 84.0716 107.64C82.869 103.708 81.8191 99.7378 80.4829 95.8438C81.9909 93.1905 83.3271 90.4608 84.6633 87.712C85.2932 86.4331 87.0875 86.3186 87.8511 87.5212C89.3782 89.9263 90.8862 92.3315 92.3178 94.7939C90.848 99.2224 88.8819 103.384 87.0303 107.64C87.9084 108.099 87.8893 109.148 88.7673 109.607C92.2605 104.892 96.5746 99.6996 99.6287 94.6412C98.7125 91.9497 97.9298 88.7046 96.88 86.204Z" fill="#D67086"/>
<path d="M89.2828 53.6009C88.9964 53.3909 88.6719 53.2191 88.3092 53.0855C87.6793 52.8564 86.9921 52.8373 86.3049 52.8564C84.7588 52.9137 83.0981 53.1428 81.9528 54.1926C79.8148 56.1778 80.0439 60.6446 79.643 63.4124C79.3376 65.5694 79.0131 67.7073 78.7077 69.8643L77.8487 80.2103L89.9127 80.4012L93.8831 79.7713L92.8523 68.9099C92.6233 66.5429 92.2797 64.1568 91.9742 61.7899C91.6879 59.2129 91.6306 55.2998 89.2828 53.6009Z" fill="#474EBB"/>
<path d="M87.7748 44.7055C87.183 44.0946 86.324 43.751 85.4841 43.7701C82.5254 43.8083 82.2963 46.6716 82.8499 48.8859C83.0981 49.8594 83.5753 50.8329 84.3961 51.4246C84.6251 51.5773 84.8733 51.711 85.1405 51.8064C85.026 52.2073 85.1024 52.7417 85.0833 53.1617C85.0642 53.4098 84.9878 53.6389 85.1596 53.8298C85.3696 54.0779 85.8086 54.1161 86.1141 54.1161C86.3431 54.1161 86.5913 54.0779 86.8012 53.9443C87.1257 53.7344 87.0494 53.4289 87.0303 53.1044C87.0112 52.6463 87.0685 52.1691 87.0303 51.711C87.1067 51.6728 87.2021 51.6155 87.2784 51.5583C88.0611 50.9856 88.3283 49.9357 88.481 48.9813C88.6337 47.7215 88.7483 45.679 87.7748 44.7055Z" fill="#EAC5B0"/>
<path d="M87.9847 47.4542C88.0802 47.5687 88.2329 47.5878 88.3474 47.6832C88.7292 47.9886 88.3665 48.6568 88.5956 49.0767C88.901 49.6303 88.8437 50.5847 88.2711 51.0428C88.0802 51.1955 87.8129 51.3101 87.7366 51.5391C87.6411 51.8064 87.832 52.169 87.6411 52.379C87.9466 52.7035 88.481 52.6272 88.901 52.4554C89.3209 52.2836 89.7218 52.0354 90.1608 52.0545C90.2944 52.0545 90.4662 52.0736 90.5617 51.9782C90.6189 51.9209 90.6189 51.8254 90.6189 51.73C90.7144 50.6992 91.9361 50.9665 92.0888 50.1457C92.1269 49.9166 91.8597 49.3821 91.8597 49.0767C91.8597 48.6186 92.1269 48.1986 91.9742 47.7214C91.917 47.5305 91.7833 47.3587 91.707 47.1678C91.5734 46.767 91.707 46.3279 91.8024 45.9271C91.8788 45.5071 91.8788 45.0108 91.5352 44.7627C91.268 44.5718 90.8862 44.5909 90.6189 44.3809C90.0463 43.9419 90.4662 42.7584 89.8172 42.4339C89.4736 42.2621 89.0728 42.453 88.7101 42.3957C88.3092 42.3384 88.0229 42.033 87.6984 41.804C87.3739 41.5749 86.8776 41.4604 86.6103 41.7467C86.3813 41.9948 86.4386 42.3957 86.2477 42.6629C86.0759 42.892 85.7514 42.9302 85.5032 43.0638C84.2815 43.6365 86.5722 44.0182 86.8967 44.4191C87.183 44.7627 87.4693 45.3926 87.6602 45.7744C87.8893 46.2134 87.7366 47.1488 87.9847 47.4542Z" fill="#3B455A"/>
<path d="M84.4343 44.572C82.9454 44.8965 83.8425 45.9846 83.3653 46.9008C83.1744 47.2635 82.659 47.3971 82.5636 47.7789C82.4872 48.0843 82.7163 48.3897 82.8881 48.657C83.079 48.9242 83.2126 49.306 82.9835 49.5541C82.9263 49.6305 82.8308 49.6687 82.7736 49.7641C82.659 49.9932 82.9263 50.2222 83.1553 50.3177C83.3844 50.4131 83.6707 50.6231 83.5753 50.8522C83.308 51.5393 83.1362 51.253 83.5753 51.8448C83.6898 51.9784 83.8616 51.9593 83.9761 52.112C83.7853 52.322 83.4989 52.3983 83.2126 52.2838C82.5254 52.0166 82.7163 52.3602 82.1627 52.4365C81.5901 52.532 81.571 52.3602 81.0747 52.0356C80.6166 51.7493 79.643 51.5393 79.4712 50.9285C79.3758 50.5849 79.643 50.2413 79.5667 49.9168C79.4903 49.5923 79.1467 49.3633 78.9749 49.0578C78.6504 48.447 79.1467 47.798 79.2422 47.149C79.3758 46.2518 78.8604 45.1447 79.7957 44.572C80.0057 44.4575 80.2539 44.3811 80.4638 44.2666C81.0747 43.923 81.1892 43.2931 81.4374 42.7586C81.6855 42.2241 82.2963 41.6324 83.0408 41.766C83.728 41.8805 84.0907 42.5296 84.7779 42.5868C85.026 42.6059 85.2932 42.5677 85.5032 42.6441C85.675 42.7204 85.7705 42.8541 85.8277 42.9877C85.9995 43.2931 86.4767 44.3239 86.1141 44.5911C85.7132 44.9347 85.0642 44.4384 84.4343 44.572Z" fill="#3B455A"/>
<path d="M90.0845 48.0651C90.1609 47.9506 90.2372 47.8361 90.2372 47.7024C90.2563 47.4925 90.1609 47.3397 89.9891 47.2443C89.8936 47.187 89.7791 47.1489 89.6646 47.1107C89.4355 47.0152 89.2446 46.9007 89.3591 46.5762C89.3782 46.5189 89.4164 46.4617 89.4355 46.4235C89.5118 46.2326 89.5309 46.0036 89.4737 45.7936C89.4164 45.6409 89.321 45.5073 89.1492 45.45C89.0155 45.4118 88.901 45.45 88.7674 45.45C88.2711 45.4118 88.462 44.9728 88.5002 44.6864C88.5574 44.1901 88.2138 43.7893 87.7366 43.7129C87.6603 43.6938 87.6603 43.8275 87.7366 43.8275C87.9848 43.8656 88.1947 43.9993 88.3093 44.2092C88.4238 44.4192 88.3856 44.6483 88.3475 44.8773C88.3093 45.0682 88.3093 45.3164 88.462 45.45C88.7292 45.679 89.0919 45.3736 89.321 45.6981C89.5309 46.0226 89.3019 46.2899 89.2064 46.5762C88.9774 47.3207 90.5045 47.0916 90.0272 47.8933C89.9127 48.1033 89.6836 48.3133 89.7218 48.5805C89.7409 48.7714 89.8936 48.9241 90.1036 48.905C90.1799 48.905 90.1799 48.7714 90.1036 48.7905C89.7791 48.8287 89.8554 48.4278 89.9318 48.2751C89.97 48.2178 90.0272 48.1415 90.0845 48.0651Z" fill="#C69C6D"/>
<path d="M83.3652 44.2473C82.9453 44.19 82.2963 44.2091 82.239 44.7436C82.2008 45.0299 82.3726 45.2781 82.4299 45.5453C82.5253 46.0798 81.9718 46.1943 81.59 46.3661C81.1891 46.5379 80.8264 47.0151 81.2655 47.3587C81.3227 47.3969 81.3609 47.4351 81.4182 47.4733C81.38 47.5878 81.3609 47.7214 81.3227 47.836C81.2846 47.8741 81.17 47.9123 81.1319 47.9696C81.0746 48.0268 80.9982 48.0841 80.9982 48.1795C80.9792 48.3323 81.0746 48.4468 81.2273 48.4659C81.3036 48.4659 81.3036 48.3513 81.2273 48.3513C81.2464 48.2559 81.2464 48.1414 81.2655 48.0459C81.3036 48.0268 81.3227 48.0078 81.3609 47.9887C81.3991 47.9696 81.4373 47.9505 81.4564 47.9123C81.5136 47.8741 81.5518 47.8169 81.5709 47.7596C81.6282 47.626 81.59 47.5114 81.4945 47.3969C81.3991 47.3015 81.2846 47.2633 81.2273 47.1297C81.1128 46.9006 81.2846 46.6906 81.4945 46.557C81.7236 46.4234 81.9908 46.3852 82.2008 46.2516C82.5635 46.0416 82.6017 45.7171 82.4871 45.3354C82.3917 45.049 82.239 44.6673 82.5444 44.4573C82.7735 44.3046 83.098 44.3237 83.3652 44.3618C83.4416 44.3809 83.4416 44.2664 83.3652 44.2473Z" fill="#C69C6D"/>
<path d="M80.5974 46.3853C80.6738 46.3662 80.6356 46.2517 80.5592 46.2708C80.2347 46.3662 79.8148 46.538 79.8339 46.9389C79.8339 47.0534 79.8911 47.1489 79.9675 47.2252C80.1011 47.3397 80.2729 47.3397 80.3875 47.4734C80.6165 47.7597 80.3302 48.1033 79.9866 48.0078C79.9102 47.9888 79.8721 48.1033 79.9484 48.1224C80.2729 48.2178 80.6356 47.9888 80.5974 47.6261C80.5783 47.4161 80.4447 47.3207 80.292 47.2443C80.0629 47.1107 79.853 46.9198 80.082 46.6526C80.1966 46.4998 80.4065 46.4426 80.5974 46.3853Z" fill="#C69C6D"/>
<path d="M95.582 42.2429C95.4293 41.7848 95.2002 41.3266 94.8184 41.0021C94.5512 40.7731 93.6922 40.1431 93.3677 40.6204C93.3486 40.6394 93.3486 40.6776 93.3486 40.7158C93.3295 41.0021 93.3295 41.4984 93.5013 41.7466C93.654 41.9756 93.9022 41.8993 94.1122 42.0902C94.2458 42.2238 94.284 42.491 94.1313 42.5865C94.0358 42.6437 93.9213 42.6246 93.8258 42.6628C93.7304 42.6819 93.6159 42.7583 93.6349 42.8728C93.654 42.9301 93.6922 42.9682 93.7304 43.0064C93.9404 43.1782 94.1503 43.3309 94.3412 43.5027C94.6466 43.7318 94.9711 44.0563 94.9139 44.4381C95.2575 44.4572 95.6011 44.4381 95.9256 44.3808C95.8301 43.6554 95.792 42.8919 95.582 42.2429Z" fill="#EAC5B0"/>
<path d="M88.8818 58.3156C88.7481 57.9147 88.6145 57.4948 88.5 57.0748C88.4236 56.8267 87.641 53.0471 88.2709 53.1807C89.6644 53.4671 91.0769 53.5243 92.4704 53.3907C92.6804 53.3716 94.7992 53.2189 94.7992 53.028C94.7801 50.9092 94.7038 48.8095 94.5702 46.6906C94.4938 45.6408 94.322 44.5527 94.322 43.5219C94.322 43.0638 94.322 43.1593 94.6847 42.9684C94.9901 42.8157 95.4864 42.7202 95.7536 42.9684C96.0018 43.1974 96.0781 43.541 96.1545 43.8846C96.7081 46.5379 97.6625 49.0576 98.4451 51.6537C98.9605 53.3525 99.8959 55.6813 98.8078 57.3611C98.4451 57.8956 97.8725 58.2583 97.2998 58.5828C95.41 59.6518 93.463 60.6062 91.4587 61.4461C91.2106 61.5415 90.9624 61.6561 90.7143 61.5988C90.3516 61.5224 90.1225 61.1598 89.9507 60.8162C89.5117 59.9572 89.1681 59.1555 88.8818 58.3156Z" fill="#474EBB"/>
<path d="M75.4054 42.9491C75.5581 42.491 75.7872 42.0329 76.1689 41.7084C76.4362 41.4793 77.2952 40.8494 77.6197 41.3266C77.6388 41.3457 77.6388 41.3839 77.6388 41.4221C77.6578 41.7084 77.6578 42.2047 77.486 42.4528C77.3333 42.6819 77.0852 42.6056 76.8752 42.7964C76.7416 42.9301 76.7034 43.1973 76.8561 43.2927C76.9516 43.35 77.0661 43.3309 77.1615 43.3691C77.257 43.3882 77.3715 43.4645 77.3524 43.5791C77.3333 43.6363 77.2952 43.6745 77.257 43.7127C77.047 43.8845 76.837 44.0372 76.6461 44.209C76.3407 44.4381 76.0162 44.7626 76.0735 45.1443C75.7299 45.1634 75.3863 45.1443 75.0618 45.0871C75.1572 44.3617 75.2145 43.5982 75.4054 42.9491Z" fill="#EAC5B0"/>
<path d="M82.6781 59.1173C82.8689 57.972 83.0216 56.9221 83.0216 56.7312C83.0216 56.1776 83.098 54.2306 82.5635 53.9252C82.1436 53.6961 80.4065 54.326 79.7957 54.2688C79.0703 54.1924 78.4213 53.7343 77.9823 53.1616C77.5241 52.589 77.2569 51.9018 77.0088 51.2146C76.627 50.1075 76.1498 48.8858 76.2643 47.7023C76.3597 46.5379 76.7033 45.4117 76.7033 44.2282C76.7033 43.7701 76.7033 43.8655 76.3407 43.6746C76.0352 43.5219 75.5389 43.4265 75.2717 43.6746C74.5654 44.3237 74.47 45.7553 74.26 46.6143C73.9164 47.9887 73.5728 49.363 73.2292 50.7565C73.0193 51.6155 72.7902 52.4936 72.9238 53.3716C73.0383 54.2688 73.4965 55.0705 74.0119 55.815C75.9398 58.6591 78.6504 60.988 81.7618 62.4578C81.9718 62.6105 82.3917 60.7589 82.6781 59.1173Z" fill="#474EBB"/>
<path d="M80.9904 52.9521V55.6269C80.9904 56.5027 81.6769 57.1892 82.529 57.1892H89.3936C90.2458 57.1892 90.9323 56.479 90.9323 55.6269V52.9521H80.9904Z" fill="#3B455A"/>
<path d="M102.626 17.0432C102.626 7.64575 95.1694 0 85.9614 0C76.7533 0 69.297 7.62208 69.297 17.0432C69.297 20.3808 70.2438 23.5054 71.8771 26.1329C76.5166 34.0863 77.5818 40.7379 77.5818 40.7379H85.9614H94.3409C94.3409 40.7379 95.4061 34.0863 100.046 26.1329C101.679 23.5054 102.626 20.4045 102.626 17.0432Z" fill="#F7F8F9"/>
<path d="M77.3924 40.7378V52.0999C77.3924 52.5734 77.7712 52.9521 78.2209 52.9521H93.7491C94.1989 52.9521 94.5776 52.5734 94.5776 52.0999V40.7378H77.3924Z" fill="#9EA6AD"/>
<path opacity="0.2" d="M102.342 13.8714C98.1046 22.322 89.8907 35.3884 77.5818 40.6907C77.5818 40.7144 77.5818 40.7381 77.5818 40.7381H85.9613H94.3409C94.3409 40.7381 95.4061 34.0865 100.046 26.133C101.679 23.5055 102.626 20.3809 102.626 17.0433C102.626 15.9545 102.531 14.8893 102.342 13.8714Z" fill="#799FE2"/>
<path d="M72.019 18.4634C72.019 10.2495 78.5286 3.59795 86.5767 3.59795C91.2636 3.59795 95.4534 5.87038 98.1045 9.39736C95.5954 4.9472 90.8848 1.94098 85.4878 1.94098C77.4634 1.94098 70.9301 8.59254 70.9301 16.8064C70.9301 20.215 72.0664 23.3633 73.9364 25.8724C72.7291 23.6947 72.019 21.1619 72.019 18.4634Z" fill="#D6E1F2"/>
<path d="M82.7183 40.7379L80.7063 18.9369L83.5232 21.3276L85.9613 17.3509L88.4704 21.2093L91.2162 18.9132L89.2042 40.7379H90.0564L92.2814 16.9248L88.6598 19.9074L85.9613 15.7413L83.3101 20.0257L79.6648 16.9012L81.8662 40.7379H82.7183Z" fill="#587BC9"/>
<path d="M81.6532 38.56L81.8662 40.7377H82.7184L82.458 38.0629C82.1976 38.2286 81.9373 38.3943 81.6532 38.56Z" fill="#EDECED"/>
<path d="M90.0328 31.7427L89.2043 40.7377H90.0565L90.9797 30.7485C90.672 31.0799 90.3642 31.4113 90.0328 31.7427Z" fill="#EDECED"/>
<path d="M94.5539 43.5548H77.3924V45.6615H94.5539V43.5548Z" fill="#3B455A"/>
<path d="M94.5539 48.0286H77.3924V50.1353H94.5539V48.0286Z" fill="#3B455A"/>
<path opacity="0.11" d="M94.2699 40.7378C93.4887 41.7557 92.6839 42.7025 91.8791 43.5547C91.169 44.3122 90.4588 45.0223 89.7487 45.6614C88.7545 46.5609 87.7603 47.3657 86.7898 48.0522C85.6063 48.8807 84.4464 49.5908 83.3338 50.1589C81.0614 51.3188 79.0257 51.9816 77.4161 52.3366C77.5108 52.7154 77.8185 52.9758 78.1972 52.9758H93.7254C94.1752 52.9758 94.5539 52.597 94.5539 52.1236V50.1589V48.0522V45.6614V43.5547V40.7378H94.2699Z" fill="black"/>
<defs>
<filter id="filter0_f" x="0.449219" y="131.753" width="27.1735" height="8.69578" filterUnits="userSpaceOnUse" color-interpolation-filters="sRGB">
<feFlood flood-opacity="0" result="BackgroundImageFix"/>
<feBlend mode="normal" in="SourceGraphic" in2="BackgroundImageFix" result="shape"/>
<feGaussianBlur stdDeviation="1" result="effect1_foregroundBlur"/>
</filter>
<filter id="filter1_f" x="36.412" y="131.753" width="27.1735" height="8.69578" filterUnits="userSpaceOnUse" color-interpolation-filters="sRGB">
<feFlood flood-opacity="0" result="BackgroundImageFix"/>
<feBlend mode="normal" in="SourceGraphic" in2="BackgroundImageFix" result="shape"/>
<feGaussianBlur stdDeviation="1" result="effect1_foregroundBlur"/>
</filter>
<filter id="filter2_f" x="108.337" y="131.753" width="27.1735" height="8.69578" filterUnits="userSpaceOnUse" color-interpolation-filters="sRGB">
<feFlood flood-opacity="0" result="BackgroundImageFix"/>
<feBlend mode="normal" in="SourceGraphic" in2="BackgroundImageFix" result="shape"/>
<feGaussianBlur stdDeviation="1" result="effect1_foregroundBlur"/>
</filter>
<filter id="filter3_f" x="72.3746" y="131.753" width="27.1735" height="8.69578" filterUnits="userSpaceOnUse" color-interpolation-filters="sRGB">
<feFlood flood-opacity="0" result="BackgroundImageFix"/>
<feBlend mode="normal" in="SourceGraphic" in2="BackgroundImageFix" result="shape"/>
<feGaussianBlur stdDeviation="1" result="effect1_foregroundBlur"/>
</filter>
</defs>
</svg>
